<?xml version="1.0" encoding="UTF-8"?>
<svg width="165.22mm" height="64.328mm" version="1.1" viewBox="0 0 165.22 64.328" xmlns="http://www.w3.org/2000/svg" xmlns:cc="http://creativecommons.org/ns#" xmlns:dc="http://purl.org/dc/elements/1.1/" xmlns:rdf="http://www.w3.org/1999/02/22-rdf-syntax-ns#">
<g transform="translate(189.95 -104.57)">
<g transform="translate(760.31 378.45)">
<path d="m-923.63-249.63h12.687c1.6876 0 3.0463 1.3586 3.0463 3.0463v10.56c0 1.6876-1.3586 3.0463-3.0463 3.0463h-12.687c-1.6876 0-3.0463-1.3586-3.0463-3.0463v-10.56c0-1.6876 1.3586-3.0463 3.0463-3.0463z" fill="#444"/>
<path d="m-914.25-245.99-7.7234 4.6636 7.7234 4.6636z" fill="#aad400"/>
</g>
<g transform="translate(764.05 378.45)">
<path d="m-873.04-249.63h12.687c1.6876 0 3.0463 1.3586 3.0463 3.0463v10.56c0 1.6876-1.3586 3.0463-3.0463 3.0463h-12.687c-1.6876 0-3.0463-1.3586-3.0463-3.0463v-10.56c0-1.6876 1.3586-3.0463 3.0463-3.0463z" fill="#444"/>
<path d="m-869.32-245.99 7.7234 4.6636-7.7234 4.6636z" fill="#aad400"/>
</g>
<g transform="translate(761.91 379.26)">
<path d="m-898.42-238.88h12.687c1.6876 0 3.0463 1.3586 3.0463 3.0463v10.56c0 1.6876-1.3586 3.0463-3.0463 3.0463h-12.687c-1.6876 0-3.0463-1.3586-3.0463-3.0463v-10.56c0-1.6876 1.3586-3.0463 3.0463-3.0463z" fill="#444"/>
<path d="m-887.43-233.63-4.6731 7.7076-4.6731-7.7076z" fill="#aad400"/>
</g>
<g transform="translate(761.91 377.12)">
<path d="m-898.42-260.64h12.687c1.6876 0 3.0463 1.3586 3.0463 3.0463v10.56c0 1.6876-1.3586 3.0463-3.0463 3.0463h-12.687c-1.6876 0-3.0463-1.3586-3.0463-3.0463v-10.56c0-1.6876 1.3586-3.0463 3.0463-3.0463z" fill="#444"/>
<path d="m-887.43-249.15-4.6731-7.7076-4.6731 7.7076z" fill="#aad400"/>
</g>
<g fill="#fff" stroke-width=".26458" aria-label="prev step">
<path d="m-185.54 130.65q0 1.0947-0.50081 1.7639-0.50081 0.66923-1.3562 0.66923-0.87309 0-1.3739-0.55399v2.309h-0.81991v-6.6391h0.749l0.0399 0.53184q0.50081-0.62048 1.3916-0.62048 0.86423 0 1.365 0.6515 0.50524 0.6515 0.50524 1.8127zm-0.81991-0.0931q0-0.81104-0.34569-1.2808t-0.94844-0.46979q-0.74457 0-1.1168 0.66036v2.2913q0.36785 0.65592 1.1257 0.65592 0.58945 0 0.93515-0.46535 0.35012-0.46979 0.35012-1.3916z"/>
<path d="m-182.19 128.94q-0.18615-0.031-0.40331-0.031-0.80662 0-1.0947 0.68696v3.4037h-0.81991v-4.7954h0.79775l0.0133 0.554q0.40331-0.64264 1.1434-0.64264 0.23933 0 0.36343 0.062z"/>
<path d="m-179.54 133.09q-0.97504 0-1.5866-0.6382-0.61161-0.64264-0.61161-1.7152v-0.15069q0-0.71354 0.27035-1.272 0.27479-0.56286 0.7623-0.87752 0.49195-0.31911 1.0637-0.31911 0.93514 0 1.4537 0.61605 0.51854 0.61604 0.51854 1.7639v0.34126h-3.2486q0.0177 0.70911 0.41217 1.1479 0.39887 0.43433 1.0105 0.43433 0.43434 0 0.73571-0.17727 0.30137-0.17728 0.5274-0.46979l0.50081 0.39001q-0.60274 0.92628-1.8082 0.92628zm-0.10194-4.299q-0.49638 0-0.83321 0.36342-0.33683 0.35899-0.4166 1.0105h2.4021v-0.062q-0.0355-0.6249-0.33683-0.96617-0.30137-0.34569-0.81548-0.34569z"/>
<path d="m-175.19 131.89 1.1878-3.683h0.83764l-1.7196 4.7954h-0.62491l-1.7373-4.7954h0.83764z"/>
<path d="m-186.96 143.07q0-0.3324-0.25262-0.51411-0.24819-0.18614-0.8731-0.3191-0.62047-0.13296-0.98833-0.3191-0.36342-0.18614-0.54069-0.4432-0.17285-0.25705-0.17285-0.61161 0-0.58945 0.49638-0.99719 0.50081-0.40774 1.2764-0.40774 0.81548 0 1.3207 0.42104 0.50967 0.42104 0.50967 1.077h-0.82434q0-0.33683-0.28808-0.58059-0.28365-0.24376-0.71798-0.24376-0.44763 0-0.70025 0.19501-0.25262 0.195-0.25262 0.50967 0 0.29694 0.2349 0.44763 0.23489 0.15069 0.8465 0.28808 0.61604 0.13739 0.99719 0.32796 0.38115 0.19058 0.56286 0.46093 0.18614 0.26591 0.18614 0.65149 0 0.64264-0.51411 1.0326-0.5141 0.38558-1.334 0.38558-0.57615 0-1.0194-0.20387-0.44319-0.20387-0.69581-0.56729-0.24819-0.36785-0.24819-0.79332h0.81991q0.0222 0.41217 0.32796 0.65593 0.31024 0.23932 0.81548 0.23932 0.46536 0 0.74457-0.18614 0.28365-0.19057 0.28365-0.50524z"/>
<path d="m-183.96 138.39v1.1612h0.89526v0.63377h-0.89526v2.9738q0 0.28807 0.11967 0.43433 0.11966 0.14182 0.40774 0.14182 0.14182 0 0.39001-0.0532v0.66479q-0.32353 0.0886-0.62934 0.0886-0.54956 0-0.82878-0.3324-0.27921-0.33239-0.27921-0.944v-2.9738h-0.87309v-0.63377h0.87309v-1.1612z"/>
<path d="m-180.12 144.43q-0.97503 0-1.5866-0.6382-0.61161-0.64264-0.61161-1.7152v-0.15069q0-0.71354 0.27035-1.272 0.27478-0.56286 0.76229-0.87752 0.49195-0.31911 1.0637-0.31911 0.93515 0 1.4537 0.61605 0.51854 0.61604 0.51854 1.7639v0.34126h-3.2486q0.0177 0.70911 0.41217 1.1479 0.39888 0.43433 1.0105 0.43433 0.43433 0 0.7357-0.17727 0.30137-0.17728 0.5274-0.46979l0.50082 0.39001q-0.60275 0.92628-1.8082 0.92628zm-0.10194-4.299q-0.49638 0-0.83321 0.36342-0.33682 0.35899-0.4166 1.0105h2.4021v-0.062q-0.0354-0.6249-0.33683-0.96617-0.30137-0.34569-0.81548-0.34569z"/>
<path d="m-173.26 142q0 1.0947-0.50081 1.7639-0.50081 0.66923-1.3562 0.66923-0.8731 0-1.3739-0.55399v2.309h-0.81991v-6.6391h0.749l0.0399 0.53184q0.50081-0.62048 1.3916-0.62048 0.86423 0 1.365 0.6515 0.50524 0.6515 0.50524 1.8127zm-0.81991-0.0931q0-0.81104-0.3457-1.2808-0.34569-0.46979-0.94843-0.46979-0.74457 0-1.1169 0.66036v2.2913q0.36785 0.65593 1.1257 0.65593 0.58945 0 0.93514-0.46535 0.35013-0.46979 0.35013-1.3916z"/>
</g>
<g fill="#fff" stroke-width=".26458" aria-label="next step">
<path d="m-84.889 128.74 0.02659 0.60275q0.54956-0.69139 1.436-0.69139 1.5202 0 1.5335 1.7152v3.1688h-0.81991v-3.1733q-0.0044-0.51854-0.23933-0.76673-0.23046-0.24819-0.72241-0.24819-0.39888 0-0.70025 0.21274-0.30137 0.21273-0.46979 0.55842v3.417h-0.81991v-4.7954z"/>
<path d="m-78.658 133.62q-0.97503 0-1.5866-0.6382-0.61161-0.64264-0.61161-1.7152v-0.15069q0-0.71354 0.27035-1.272 0.27478-0.56286 0.7623-0.87752 0.49195-0.31911 1.0637-0.31911 0.93514 0 1.4537 0.61605 0.51854 0.61604 0.51854 1.7639v0.34126h-3.2486q0.01773 0.70911 0.41217 1.1479 0.39888 0.43433 1.0105 0.43433 0.43433 0 0.7357-0.17727 0.30137-0.17728 0.5274-0.46979l0.50081 0.39001q-0.60275 0.92628-1.8082 0.92628zm-0.10194-4.299q-0.49638 0-0.83321 0.36342-0.33683 0.35899-0.4166 1.0105h2.4021v-0.062q-0.03545-0.6249-0.33683-0.96617-0.30137-0.34569-0.81548-0.34569z"/>
<path d="m-74.235 130.49 1.0637-1.7506h0.9573l-1.5689 2.3711 1.6177 2.4243h-0.94844l-1.108-1.7949-1.108 1.7949h-0.95287l1.6177-2.4243-1.5689-2.3711h0.94844z"/>
<path d="m-70.228 127.58v1.1612h0.89526v0.63377h-0.89526v2.9738q0 0.28807 0.11966 0.43433 0.11966 0.14182 0.40774 0.14182 0.14182 0 0.39001-0.0532v0.66479q-0.32353 0.0886-0.62934 0.0886-0.54956 0-0.82878-0.3324-0.27921-0.33239-0.27921-0.944v-2.9738h-0.8731v-0.63377h0.8731v-1.1612z"/>
<path d="m-82.997 143.61q0-0.3324-0.25262-0.51411-0.24819-0.18614-0.8731-0.3191-0.62047-0.13296-0.98833-0.3191-0.36342-0.18614-0.5407-0.4432-0.17285-0.25705-0.17285-0.61161 0-0.58945 0.49638-0.99719 0.50081-0.40774 1.2764-0.40774 0.81548 0 1.3207 0.42104 0.50968 0.42104 0.50968 1.077h-0.82434q0-0.33683-0.28808-0.58059-0.28365-0.24376-0.71798-0.24376-0.44763 0-0.70025 0.19501-0.25262 0.195-0.25262 0.50967 0 0.29694 0.23489 0.44763 0.23489 0.15069 0.8465 0.28808 0.61604 0.13739 0.99719 0.32796 0.38115 0.19058 0.56286 0.46093 0.18614 0.26591 0.18614 0.65149 0 0.64264-0.51411 1.0326-0.51411 0.38558-1.334 0.38558-0.57615 0-1.0194-0.20387-0.4432-0.20387-0.69582-0.56729-0.24819-0.36785-0.24819-0.79332h0.81991q0.02216 0.41217 0.32796 0.65593 0.31024 0.23932 0.81548 0.23932 0.46536 0 0.74457-0.18614 0.28364-0.19057 0.28364-0.50524z"/>
<path d="m-79.996 138.92v1.1612h0.89526v0.63377h-0.89526v2.9738q0 0.28807 0.11966 0.43433 0.11966 0.14182 0.40774 0.14182 0.14182 0 0.39001-0.0532v0.66479q-0.32353 0.0886-0.62934 0.0886-0.54956 0-0.82878-0.3324-0.27921-0.33239-0.27921-0.944v-2.9738h-0.8731v-0.63377h0.8731v-1.1612z"/>
<path d="m-76.158 144.97q-0.97503 0-1.5866-0.6382-0.61161-0.64264-0.61161-1.7152v-0.15069q0-0.71354 0.27035-1.272 0.27478-0.56286 0.7623-0.87752 0.49195-0.31911 1.0637-0.31911 0.93514 0 1.4537 0.61605 0.51854 0.61604 0.51854 1.7639v0.34126h-3.2486q0.01773 0.70911 0.41217 1.1479 0.39888 0.43433 1.0105 0.43433 0.43433 0 0.7357-0.17727 0.30137-0.17728 0.5274-0.46979l0.50081 0.39001q-0.60275 0.92628-1.8082 0.92628zm-0.10194-4.299q-0.49638 0-0.83321 0.36342-0.33683 0.35899-0.4166 1.0105h2.4021v-0.062q-0.03546-0.6249-0.33683-0.96617-0.30137-0.34569-0.81548-0.34569z"/>
<path d="m-69.293 142.54q0 1.0947-0.50081 1.7639-0.50081 0.66923-1.3562 0.66923-0.8731 0-1.3739-0.55399v2.309h-0.81991v-6.6391h0.749l0.03989 0.53184q0.50081-0.62048 1.3916-0.62048 0.86423 0 1.365 0.6515 0.50524 0.6515 0.50524 1.8127zm-0.81991-0.0931q0-0.81104-0.34569-1.2808-0.34569-0.46979-0.94844-0.46979-0.74457 0-1.1169 0.66036v2.2913q0.36785 0.65592 1.1257 0.65592 0.58945 0 0.93514-0.46535 0.35012-0.46979 0.35012-1.3916z"/>
</g>
<g fill="#fff" aria-label="prev slide">
<path d="m-144.88 109.04q0 1.0947-0.50081 1.7639-0.50081 0.66923-1.3562 0.66923-0.87309 0-1.3739-0.554v2.309h-0.81991v-6.6391h0.749l0.0399 0.53183q0.50081-0.62047 1.3916-0.62047 0.86423 0 1.365 0.6515 0.50524 0.6515 0.50524 1.8127zm-0.81991-0.0931q0-0.81105-0.34569-1.2808-0.3457-0.46979-0.94844-0.46979-0.74457 0-1.1169 0.66036v2.2913q0.36786 0.65593 1.1257 0.65593 0.58945 0 0.93514-0.46535 0.35013-0.46979 0.35013-1.3916z"/>
<path d="m-141.52 107.32q-0.18614-0.031-0.40331-0.031-0.80661 0-1.0947 0.68695v3.4038h-0.81991v-4.7954h0.79775l0.0133 0.55399q0.40331-0.64263 1.1434-0.64263 0.23933 0 0.36342 0.062z"/>
<path d="m-138.87 111.47q-0.97503 0-1.5866-0.63821-0.61161-0.64263-0.61161-1.7152v-0.15069q0-0.71354 0.27035-1.272 0.27478-0.56286 0.7623-0.87753 0.49194-0.3191 1.0637-0.3191 0.93514 0 1.4537 0.61604t0.51854 1.7639v0.34126h-3.2486q0.0177 0.70912 0.41218 1.1479 0.39887 0.43433 1.0105 0.43433 0.43433 0 0.73571-0.17728 0.30137-0.17728 0.5274-0.46978l0.50081 0.39001q-0.60275 0.92628-1.8082 0.92628zm-0.10193-4.299q-0.49638 0-0.83321 0.36342-0.33683 0.35899-0.4166 1.0105h2.4021v-0.062q-0.0355-0.62491-0.33683-0.96617-0.30138-0.34569-0.81548-0.34569z"/>
<path d="m-134.53 110.27 1.1878-3.683h0.83764l-1.7196 4.7954h-0.62491l-1.7373-4.7954h0.83764z"/>
<path d="m-126.67 110.11q0-0.3324-0.25262-0.51411-0.24819-0.18614-0.8731-0.3191-0.62047-0.13296-0.98832-0.3191-0.36342-0.18615-0.5407-0.4432-0.17285-0.25705-0.17285-0.61161 0-0.58945 0.49638-0.99719 0.50081-0.40774 1.2764-0.40774 0.81548 0 1.3207 0.42104 0.50967 0.42103 0.50967 1.077h-0.82434q0-0.33683-0.28808-0.58058-0.28364-0.24376-0.71798-0.24376-0.44762 0-0.70024 0.195-0.25263 0.19501-0.25263 0.50968 0 0.29694 0.2349 0.44763 0.23489 0.15068 0.8465 0.28807 0.61604 0.13739 0.99719 0.32797 0.38115 0.19057 0.56286 0.46092 0.18614 0.26592 0.18614 0.6515 0 0.64263-0.5141 1.0326-0.51411 0.38558-1.334 0.38558-0.57616 0-1.0194-0.20387-0.4432-0.20387-0.69582-0.56729-0.24819-0.36786-0.24819-0.79332h0.81991q0.0222 0.41217 0.32797 0.65593 0.31023 0.23932 0.81548 0.23932 0.46535 0 0.74456-0.18614 0.28365-0.19058 0.28365-0.50524z"/>
<path d="m-123.89 111.38h-0.81991v-6.8075h0.81991z"/>
<path d="m-121.69 111.38h-0.81991v-4.7954h0.81991zm-0.88639-6.0674q0-0.19944 0.11966-0.33683 0.12409-0.13739 0.36342-0.13739t0.36342 0.13739 0.12409 0.33683-0.12409 0.3324q-0.12409 0.13295-0.36342 0.13295t-0.36342-0.13295q-0.11966-0.13296-0.11966-0.3324z"/>
<path d="m-120.59 108.94q0-1.1036 0.52297-1.7728 0.52297-0.67366 1.3695-0.67366 0.84207 0 1.334 0.57616v-2.4996h0.81991v6.8075h-0.75343l-0.0399-0.51411q-0.49194 0.60275-1.3695 0.60275-0.83321 0-1.3606-0.68252-0.52297-0.68253-0.52297-1.7816zm0.81991 0.0931q0 0.81548 0.33683 1.2764 0.33683 0.46092 0.93071 0.46092 0.78002 0 1.139-0.70025v-2.2027q-0.36785-0.67809-1.1302-0.67809-0.60274 0-0.93957 0.46535-0.33683 0.46536-0.33683 1.3783z"/>
<path d="m-113.27 111.47q-0.97503 0-1.5866-0.63821-0.61161-0.64263-0.61161-1.7152v-0.15069q0-0.71354 0.27035-1.272 0.27478-0.56286 0.76229-0.87753 0.49195-0.3191 1.0637-0.3191 0.93515 0 1.4537 0.61604 0.51854 0.61604 0.51854 1.7639v0.34126h-3.2486q0.0177 0.70912 0.41217 1.1479 0.39888 0.43433 1.0105 0.43433 0.43433 0 0.7357-0.17728t0.5274-0.46978l0.50082 0.39001q-0.60275 0.92628-1.8082 0.92628zm-0.10194-4.299q-0.49638 0-0.83321 0.36342-0.33682 0.35899-0.4166 1.0105h2.4021v-0.062q-0.0354-0.62491-0.33683-0.96617-0.30137-0.34569-0.81548-0.34569z"/>
</g>
<g fill="#fff" stroke-width=".26458" aria-label="next slide">
<path d="m-148.19 164.02 0.0266 0.60274q0.54956-0.69138 1.436-0.69138 1.5202 0 1.5334 1.7152v3.1688h-0.81991v-3.1733q-4e-3 -0.51854-0.23933-0.76673-0.23046-0.24819-0.7224-0.24819-0.39888 0-0.70025 0.21274-0.30138 0.21273-0.46979 0.55842v3.417h-0.81991v-4.7954z"/>
<path d="m-141.96 168.9q-0.97503 0-1.5866-0.6382-0.61161-0.64263-0.61161-1.7152v-0.15068q0-0.71355 0.27035-1.272 0.27478-0.56285 0.7623-0.87752 0.49194-0.3191 1.0637-0.3191 0.93514 0 1.4537 0.61604t0.51854 1.7639v0.34126h-3.2486q0.0177 0.70911 0.41217 1.1479 0.39888 0.43434 1.0105 0.43434 0.43433 0 0.73571-0.17728 0.30137-0.17728 0.5274-0.46979l0.50081 0.39001q-0.60275 0.92628-1.8082 0.92628zm-0.10193-4.299q-0.49638 0-0.83321 0.36342-0.33683 0.35899-0.41661 1.0105h2.4021v-0.062q-0.0354-0.6249-0.33682-0.96616-0.30138-0.3457-0.81548-0.3457z"/>
<path d="m-137.53 165.77 1.0637-1.7506h0.95731l-1.5689 2.3711 1.6177 2.4243h-0.94844l-1.108-1.7949-1.108 1.7949h-0.95287l1.6177-2.4243-1.5689-2.3711h0.94844z"/>
<path d="m-133.53 162.86v1.1612h0.89526v0.63377h-0.89526v2.9738q0 0.28808 0.11967 0.43433 0.11966 0.14182 0.40774 0.14182 0.14182 0 0.39001-0.0532v0.66479q-0.32353 0.0886-0.62934 0.0886-0.54956 0-0.82878-0.33239-0.27921-0.3324-0.27921-0.94401v-2.9738h-0.87309v-0.63377h0.87309v-1.1612z"/>
<path d="m-126.64 167.54q0-0.3324-0.25263-0.51411-0.24819-0.18614-0.87309-0.3191-0.62048-0.13296-0.98833-0.3191-0.36342-0.18614-0.5407-0.44319-0.17284-0.25706-0.17284-0.61161 0-0.58945 0.49638-0.99719 0.50081-0.40774 1.2764-0.40774 0.81548 0 1.3207 0.42103 0.50968 0.42104 0.50968 1.077h-0.82435q0-0.33683-0.28807-0.58059-0.28365-0.24376-0.71798-0.24376-0.44763 0-0.70025 0.19501t-0.25262 0.50968q0 0.29694 0.23489 0.44762 0.2349 0.15069 0.84651 0.28808 0.61604 0.13739 0.99719 0.32796 0.38115 0.19058 0.56286 0.46093 0.18614 0.26592 0.18614 0.6515 0 0.64263-0.51411 1.0326-0.51411 0.38558-1.334 0.38558-0.57615 0-1.0194-0.20387-0.44319-0.20387-0.69582-0.56729-0.24819-0.36785-0.24819-0.79332h0.81992q0.0222 0.41217 0.32796 0.65593 0.31024 0.23933 0.81548 0.23933 0.46536 0 0.74457-0.18615 0.28365-0.19057 0.28365-0.50524z"/>
<path d="m-123.86 168.81h-0.81991v-6.8075h0.81991z"/>
<path d="m-121.66 168.81h-0.81991v-4.7954h0.81991zm-0.88639-6.0674q0-0.19943 0.11966-0.33682 0.1241-0.1374 0.36343-0.1374 0.23932 0 0.36342 0.1374 0.12409 0.13739 0.12409 0.33682 0 0.19944-0.12409 0.3324-0.1241 0.13296-0.36342 0.13296-0.23933 0-0.36343-0.13296-0.11966-0.13296-0.11966-0.3324z"/>
<path d="m-120.55 166.38q0-1.1036 0.52297-1.7728 0.52297-0.67365 1.3695-0.67365 0.84207 0 1.334 0.57615v-2.4996h0.81991v6.8075h-0.75343l-0.0399-0.5141q-0.49195 0.60274-1.3695 0.60274-0.8332 0-1.3606-0.68252-0.52297-0.68252-0.52297-1.7816zm0.81991 0.0931q0 0.81548 0.33683 1.2764t0.93071 0.46092q0.78003 0 1.139-0.70024v-2.2027q-0.36786-0.67809-1.1302-0.67809-0.60275 0-0.93958 0.46536-0.33683 0.46535-0.33683 1.3783z"/>
<path d="m-113.24 168.9q-0.97503 0-1.5866-0.6382-0.61161-0.64263-0.61161-1.7152v-0.15068q0-0.71355 0.27035-1.272 0.27478-0.56285 0.7623-0.87752 0.49195-0.3191 1.0637-0.3191 0.93514 0 1.4537 0.61604t0.51854 1.7639v0.34126h-3.2486q0.0177 0.70911 0.41218 1.1479 0.39887 0.43434 1.0105 0.43434 0.43433 0 0.73571-0.17728 0.30137-0.17728 0.5274-0.46979l0.50081 0.39001q-0.60274 0.92628-1.8082 0.92628zm-0.10193-4.299q-0.49638 0-0.83321 0.36342-0.33683 0.35899-0.4166 1.0105h2.4021v-0.062q-0.0355-0.6249-0.33683-0.96616-0.30138-0.3457-0.81548-0.3457z"/>
</g>
<g transform="matrix(.49201 -.13214 .13183 .49314 487.72 122.07)" stroke-width="1.961">
<path d="m-1008.2-278.5c-8.9733 0-16.197 8.8061-16.197 19.745v22.821c0 16.378 9.9619 29.563 22.336 29.563 12.374 3e-5 22.336-13.185 22.336-29.563l2.4e-4 -22.821c1e-5 -10.938-7.2239-19.745-16.197-19.745z" opacity=".2"/>
<path d="m-1010.6-279.96c-8.9733 0-16.197 8.8061-16.197 19.745v22.821c0 16.378 9.962 29.563 22.336 29.563 12.374 1e-5 22.336-13.185 22.336-29.563l2.3e-4 -22.821c1e-5 -10.938-7.2239-19.744-16.197-19.744z" fill="#fff" stroke="#000" stroke-linecap="round" stroke-linejoin="round" stroke-width="1.9556"/>
<path transform="scale(.26458)" d="m-3816.7-1048.5c-29.478 0-53.209 30.94-53.209 69.371v12.164h146.75v-12.164c0-38.431-23.731-69.371-53.209-69.371z" fill="#aad400"/>
<path d="m-1024.8-252.62 40.641 1e-5" fill="#fff" stroke="#000" stroke-linecap="round" stroke-linejoin="round" stroke-width="1.8819"/>
<path d="m-1005.2-274.11h1.3836c0.8896 0 1.6058 0.71622 1.6058 1.6059v12.847c0 0.88964-0.7162 1.6059-1.6058 1.6059h-1.3836c-0.8897 0-1.6059-0.71622-1.6059-1.6059v-12.847c0-0.88964 0.7162-1.6059 1.6059-1.6059z"/>
</g>
<g transform="translate(748.74 379.74)" fill="none" stroke="#aad400" stroke-width=".965">
<path transform="matrix(.16667 .98601 .98601 -.16667 -426.12 497.49)" d="m-813.76-243.89c-1.1381-0.60475-2.1833-1.4133-2.9685-2.4432-0.66612-0.87367-1.116-1.9074-1.3141-2.9879-0.23949-1.3062-0.11973-2.6603 0.23664-3.9336 0.44322-1.5836 1.2273-3.0627 2.2313-4.3608 0.95211-1.231 2.1026-2.3197 3.4307-3.1362 0.79071-0.48614 1.6468-0.87528 2.5493-1.0995" stroke-dasharray="1.93, 0.965"/>
<path transform="matrix(.38845 .92147 .92147 -.38845 -195.43 413.88)" d="m-867.56-314.38h6.949v6.8154"/>
</g>
</g>
</svg>
