<?xml version="1.0" encoding="UTF-8"?>
<svg width="130.9mm" height="80.41mm" version="1.1" viewBox="0 0 130.9 80.41" xmlns="http://www.w3.org/2000/svg" xmlns:cc="http://creativecommons.org/ns#" xmlns:dc="http://purl.org/dc/elements/1.1/" xmlns:rdf="http://www.w3.org/1999/02/22-rdf-syntax-ns#" xmlns:xlink="http://www.w3.org/1999/xlink">
<defs>
<linearGradient id="b" x1="-940.12" x2="-939.74" y1="-385.64" y2="-372.92" gradientTransform="matrix(-1 0 0 -1.2168 -655.3 -562.16)" gradientUnits="userSpaceOnUse" xlink:href="#a"/>
<linearGradient id="a">
<stop stop-color="#aad400" offset="0"/>
<stop stop-color="#aad400" stop-opacity="0" offset="1"/>
</linearGradient>
<linearGradient id="c" x1="-940.12" x2="-940.12" y1="-388.44" y2="-373.7" gradientTransform="matrix(1 0 0 1.2168 1123.3 320.08)" gradientUnits="userSpaceOnUse" xlink:href="#a"/>
</defs>
<g transform="translate(-168.14 161.25)">
<path d="m174.69-139.44h124.06v33.073h-124.06z" fill="#444" stroke="#0cf" stroke-width=".565"/>
<g fill="#00cbfe" aria-label="3">
<path d="m182.88-124.22h1.0293q0.73519 0 1.0894-0.3676t0.35423-0.9758q0-0.58816-0.35423-0.91566-0.34754-0.32749-0.96243-0.32749-0.55474 0-0.92902 0.30744-0.37428 0.30076-0.37428 0.78867h-1.9316q0-0.76193 0.4077-1.3635 0.41438-0.6082 1.1496-0.94907 0.74187-0.34086 1.6308-0.34086 1.5439 0 2.4195 0.74188 0.87555 0.73519 0.87555 2.0318 0 0.66836-0.4077 1.2298t-1.0694 0.86218q0.82208 0.29408 1.2231 0.88224 0.4077 0.58815 0.4077 1.3902 0 1.2966-0.94907 2.0786-0.94238 0.78198-2.4997 0.78198-1.457 0-2.386-0.76861-0.92234-0.76861-0.92234-2.0318h1.9316q0 0.54805 0.4077 0.8956 0.41438 0.34755 1.0159 0.34755 0.68841 0 1.076-0.36092 0.39434-0.3676 0.39434-0.96912 0-1.457-1.6041-1.457h-1.0226z" fill="#00cbfe" stroke-width=".26458"/>
</g>
<path d="m183.13-161.25-4.2762 5.2288 1.3364 24.33h5.8797l1.3364-24.33z" fill="url(#c)"/>
<g fill="#fff" aria-label="drag a complete step to a new position, or...">
<path d="m192.49-151.31q0-0.53928 0.25556-0.86631 0.25557-0.3292 0.66923-0.3292 0.4115 0 0.6519 0.28155v-1.2215h0.40068v3.3267h-0.36819l-0.0195-0.25123q-0.2404 0.29454-0.66923 0.29454-0.40717 0-0.6649-0.33353-0.25556-0.33353-0.25556-0.87065zm0.40067 0.0455q0 0.39851 0.1646 0.62375 0.1646 0.22525 0.45482 0.22525 0.38118 0 0.5566-0.3422v-1.0764q-0.17976-0.33136-0.55227-0.33136-0.29455 0-0.45915 0.2274-0.1646 0.22741-0.1646 0.67356z"/>
<path d="m196.22-152.1q-0.091-0.0152-0.19708-0.0152-0.39418 0-0.53495 0.3357v1.6633h-0.40068v-2.3434h0.38985l6e-3 0.27073q0.19709-0.31404 0.55878-0.31404 0.11695 0 0.17759 0.0303z"/>
<path d="m197.95-150.12q-0.0346-0.0693-0.0563-0.2469-0.27939 0.29021-0.66706 0.29021-0.34653 0-0.56961-0.19492-0.22091-0.19708-0.22091-0.49813 0-0.36602 0.27722-0.56744 0.27939-0.20358 0.78402-0.20358h0.38984v-0.18409q0-0.21008-0.12561-0.33354-0.12562-0.12561-0.37035-0.12561-0.21442 0-0.35953 0.10829-0.1451 0.10829-0.1451 0.26206h-0.40284q0-0.17543 0.12345-0.33786 0.12562-0.1646 0.33786-0.2599 0.21442-0.0953 0.46998-0.0953 0.405 0 0.63458 0.20358 0.22957 0.20142 0.23823 0.55661v1.0786q0 0.32271 0.0823 0.5133v0.0346zm-0.6649-0.30538q0.18843 0 0.35736-0.0975t0.24473-0.2534v-0.4808h-0.31404q-0.73637 0-0.73637 0.43099 0 0.18842 0.12562 0.29455 0.12562 0.10612 0.3227 0.10612z"/>
<path d="m198.82-151.31q0-0.54794 0.2534-0.87065 0.2534-0.32486 0.67139-0.32486 0.42883 0 0.66923 0.30321l0.0195-0.2599h0.36601v2.2871q0 0.45481-0.27072 0.71688-0.26856 0.26206-0.72337 0.26206-0.2534 0-0.49597-0.10829t-0.37035-0.29672l0.20792-0.2404q0.25772 0.31837 0.63024 0.31837 0.29238 0 0.45482-0.1646 0.1646-0.1646 0.1646-0.46348v-0.20142q-0.24041 0.27722-0.65624 0.27722-0.4115 0-0.66706-0.33136-0.2534-0.33137-0.2534-0.90314zm0.40284 0.0455q0 0.39634 0.16243 0.62375 0.16244 0.22525 0.45482 0.22525 0.37901 0 0.55661-0.34437v-1.0699q-0.1841-0.33569-0.55228-0.33569-0.29238 0-0.45698 0.2274-0.1646 0.22741-0.1646 0.67356z"/>
<path d="m203.95-150.12q-0.0347-0.0693-0.0563-0.2469-0.27939 0.29021-0.66707 0.29021-0.34652 0-0.5696-0.19492-0.22091-0.19708-0.22091-0.49813 0-0.36602 0.27722-0.56744 0.27939-0.20358 0.78402-0.20358h0.38984v-0.18409q0-0.21008-0.12562-0.33354-0.12561-0.12561-0.37035-0.12561-0.21441 0-0.35952 0.10829t-0.14511 0.26206h-0.40283q0-0.17543 0.12345-0.33786 0.12561-0.1646 0.33786-0.2599 0.21441-0.0953 0.46998-0.0953 0.405 0 0.63457 0.20358 0.22958 0.20142 0.23824 0.55661v1.0786q0 0.32271 0.0823 0.5133v0.0346zm-0.6649-0.30538q0.18842 0 0.35735-0.0975 0.16894-0.0975 0.24474-0.2534v-0.4808h-0.31404q-0.73637 0-0.73637 0.43099 0 0.18842 0.12562 0.29455 0.12561 0.10612 0.3227 0.10612z"/>
<path d="m206.96-150.4q0.21441 0 0.37468-0.12995 0.16027-0.12994 0.17759-0.32487h0.37902q-0.0108 0.20142-0.13861 0.38335-0.12778 0.18193-0.3422 0.29022-0.21225 0.10828-0.45048 0.10828-0.47864 0-0.76236-0.31837-0.28155-0.32053-0.28155-0.87498v-0.0671q0-0.34219 0.12561-0.60858 0.12562-0.2664 0.35952-0.41367 0.23607-0.14727 0.55661-0.14727 0.39418 0 0.65407 0.23607 0.26206 0.23607 0.27939 0.61292h-0.37902q-0.0173-0.22741-0.17326-0.37252-0.15377-0.14727-0.38118-0.14727-0.30538 0-0.47431 0.22091-0.16676 0.21874-0.16676 0.63457v0.0758q0 0.405 0.16676 0.62375 0.16677 0.21874 0.47648 0.21874z"/>
<path d="m208.24-151.31q0-0.34436 0.13428-0.61942 0.13644-0.27505 0.37685-0.42449 0.24257-0.14944 0.55227-0.14944 0.47864 0 0.77319 0.33136 0.29671 0.33137 0.29671 0.88148v0.0281q0 0.3422-0.13211 0.61509-0.12995 0.27072-0.37468 0.42233-0.24257 0.1516-0.55877 0.1516-0.47648 0-0.77319-0.33136-0.29455-0.33137-0.29455-0.87715zm0.40284 0.0476q0 0.38985 0.17976 0.62592 0.18192 0.23607 0.48514 0.23607 0.30537 0 0.48513-0.23824 0.17976-0.2404 0.17976-0.67139 0-0.38551-0.18409-0.62375-0.18193-0.2404-0.48514-0.2404-0.29671 0-0.47864 0.23607-0.18192 0.23607-0.18192 0.67572z"/>
<path d="m211.25-152.46 0.0108 0.2599q0.25773-0.30321 0.69522-0.30321 0.49163 0 0.66923 0.37684 0.11695-0.16893 0.30321-0.27289 0.18842-0.10395 0.44398-0.10395 0.77103 0 0.78402 0.8165v1.5702h-0.40067v-1.5464q0-0.25123-0.11479-0.37468-0.11479-0.12561-0.38551-0.12561-0.22308 0-0.37035 0.13427-0.14727 0.13212-0.1711 0.35736v1.555h-0.40283v-1.5356q0-0.51112-0.5003-0.51112-0.39418 0-0.53929 0.33569v1.711h-0.40067v-2.3434z"/>
<path d="m216.74-151.26q0 0.53496-0.24474 0.86199-0.24473 0.32703-0.66273 0.32703-0.42666 0-0.6714-0.27072v1.1284h-0.40067v-3.2444h0.36602l0.0195 0.2599q0.24474-0.30321 0.68006-0.30321 0.42233 0 0.66707 0.31837 0.2469 0.31837 0.2469 0.88581zm-0.40068-0.0455q0-0.39634-0.16893-0.62591t-0.46348-0.22957q-0.36385 0-0.54578 0.3227v1.1197q0.17976 0.32054 0.55011 0.32054 0.28806 0 0.45699-0.22741 0.17109-0.22957 0.17109-0.68006z"/>
<path d="m217.68-150.12h-0.40068v-3.3267h0.40068z"/>
<path d="m219.3-150.07q-0.47647 0-0.77535-0.31187-0.29888-0.31404-0.29888-0.83816v-0.0736q0-0.34869 0.13212-0.62158 0.13427-0.27506 0.37251-0.42883 0.2404-0.15593 0.51979-0.15593 0.45698 0 0.71038 0.30104 0.2534 0.30105 0.2534 0.86199v0.16676h-1.5875q9e-3 0.34653 0.20142 0.56094 0.19492 0.21225 0.4938 0.21225 0.21225 0 0.35952-0.0866 0.14728-0.0866 0.25773-0.22958l0.24474 0.19059q-0.29455 0.45265-0.88365 0.45265zm-0.0498-2.1008q-0.24257 0-0.40717 0.17759-0.1646 0.17543-0.20358 0.4938h1.1739v-0.0303q-0.0173-0.30538-0.1646-0.47214-0.14728-0.16893-0.39851-0.16893z"/>
<path d="m221.21-153.03v0.56744h0.43749v0.30971h-0.43749v1.4532q0 0.14077 0.0585 0.21224 0.0585 0.0693 0.19926 0.0693 0.0693 0 0.19059-0.026v0.32487q-0.15811 0.0433-0.30755 0.0433-0.26855 0-0.405-0.16243-0.13644-0.16243-0.13644-0.46131v-1.4532h-0.42667v-0.30971h0.42667v-0.56744z"/>
<path d="m223.09-150.07q-0.47647 0-0.77535-0.31187-0.29888-0.31404-0.29888-0.83816v-0.0736q0-0.34869 0.13211-0.62158 0.13428-0.27506 0.37252-0.42883 0.2404-0.15593 0.51979-0.15593 0.45698 0 0.71038 0.30104 0.2534 0.30105 0.2534 0.86199v0.16676h-1.5875q9e-3 0.34653 0.20142 0.56094 0.19492 0.21225 0.4938 0.21225 0.21225 0 0.35952-0.0866 0.14728-0.0866 0.25773-0.22958l0.24474 0.19059q-0.29455 0.45265-0.88365 0.45265zm-0.0498-2.1008q-0.24257 0-0.40717 0.17759-0.1646 0.17543-0.20358 0.4938h1.1739v-0.0303q-0.0173-0.30538-0.1646-0.47214-0.14728-0.16893-0.39851-0.16893z"/>
<path d="m226.93-150.74q0-0.16244-0.12345-0.25124-0.12128-0.091-0.42666-0.15593-0.30321-0.065-0.48297-0.15594-0.17759-0.091-0.26423-0.21658-0.0845-0.12561-0.0845-0.29888 0-0.28805 0.24257-0.4873 0.24473-0.19925 0.62375-0.19925 0.3985 0 0.6454 0.20575 0.24907 0.20575 0.24907 0.52628h-0.40284q0-0.1646-0.14078-0.28372-0.13861-0.11911-0.35085-0.11911-0.21875 0-0.3422 0.0953t-0.12345 0.24907q0 0.14511 0.11479 0.21874 0.11478 0.0736 0.41366 0.14078 0.30105 0.0671 0.48731 0.16027 0.18625 0.0931 0.27505 0.22524 0.091 0.12995 0.091 0.31837 0 0.31404-0.25124 0.50463-0.25123 0.18842-0.6519 0.18842-0.28155 0-0.49813-0.0996t-0.34003-0.27722q-0.12129-0.17976-0.12129-0.38768h0.40068q0.0108 0.20142 0.16026 0.32054 0.15161 0.11695 0.39851 0.11695 0.22741 0 0.36385-0.091 0.13861-0.0931 0.13861-0.2469z"/>
<path d="m228.4-153.03v0.56744h0.43749v0.30971h-0.43749v1.4532q0 0.14077 0.0585 0.21224 0.0585 0.0693 0.19925 0.0693 0.0693 0 0.19059-0.026v0.32487q-0.1581 0.0433-0.30754 0.0433-0.26856 0-0.405-0.16243-0.13645-0.16243-0.13645-0.46131v-1.4532h-0.42666v-0.30971h0.42666v-0.56744z"/>
<path d="m230.27-150.07q-0.47647 0-0.77535-0.31187-0.29888-0.31404-0.29888-0.83816v-0.0736q0-0.34869 0.13211-0.62158 0.13428-0.27506 0.37252-0.42883 0.2404-0.15593 0.51979-0.15593 0.45698 0 0.71038 0.30104 0.2534 0.30105 0.2534 0.86199v0.16676h-1.5875q9e-3 0.34653 0.20142 0.56094 0.19492 0.21225 0.4938 0.21225 0.21225 0 0.35952-0.0866t0.25773-0.22958l0.24473 0.19059q-0.29454 0.45265-0.88364 0.45265zm-0.0498-2.1008q-0.24257 0-0.40717 0.17759-0.1646 0.17543-0.20359 0.4938h1.1739v-0.0303q-0.0173-0.30538-0.1646-0.47214-0.14727-0.16893-0.3985-0.16893z"/>
<path d="m233.63-151.26q0 0.53496-0.24473 0.86199-0.24474 0.32703-0.66273 0.32703-0.42667 0-0.6714-0.27072v1.1284h-0.40067v-3.2444h0.36602l0.0195 0.2599q0.24473-0.30321 0.68006-0.30321 0.42233 0 0.66706 0.31837 0.2469 0.31837 0.2469 0.88581zm-0.40067-0.0455q0-0.39634-0.16893-0.62591t-0.46348-0.22957q-0.36385 0-0.54578 0.3227v1.1197q0.17976 0.32054 0.55011 0.32054 0.28805 0 0.45698-0.22741 0.1711-0.22957 0.1711-0.68006z"/>
<path d="m235.78-153.03v0.56744h0.43749v0.30971h-0.43749v1.4532q0 0.14077 0.0585 0.21224 0.0585 0.0693 0.19925 0.0693 0.0693 0 0.19059-0.026v0.32487q-0.1581 0.0433-0.30754 0.0433-0.26856 0-0.405-0.16243-0.13645-0.16243-0.13645-0.46131v-1.4532h-0.42666v-0.30971h0.42666v-0.56744z"/>
<path d="m236.53-151.31q0-0.34436 0.13428-0.61942 0.13644-0.27505 0.37685-0.42449 0.24257-0.14944 0.55227-0.14944 0.47864 0 0.77319 0.33136 0.29672 0.33137 0.29672 0.88148v0.0281q0 0.3422-0.13212 0.61509-0.12995 0.27072-0.37468 0.42233-0.24257 0.1516-0.55877 0.1516-0.47648 0-0.77319-0.33136-0.29455-0.33137-0.29455-0.87715zm0.40284 0.0476q0 0.38985 0.17976 0.62592 0.18193 0.23607 0.48514 0.23607 0.30537 0 0.48513-0.23824 0.17976-0.2404 0.17976-0.67139 0-0.38551-0.18409-0.62375-0.18192-0.2404-0.48514-0.2404-0.29671 0-0.47864 0.23607-0.18192 0.23607-0.18192 0.67572z"/>
<path d="m241.71-150.12q-0.0346-0.0693-0.0563-0.2469-0.27939 0.29021-0.66706 0.29021-0.34653 0-0.56961-0.19492-0.22091-0.19708-0.22091-0.49813 0-0.36602 0.27722-0.56744 0.27939-0.20358 0.78402-0.20358h0.38984v-0.18409q0-0.21008-0.12561-0.33354-0.12562-0.12561-0.37035-0.12561-0.21442 0-0.35952 0.10829-0.14511 0.10829-0.14511 0.26206h-0.40284q0-0.17543 0.12345-0.33786 0.12562-0.1646 0.33786-0.2599 0.21442-0.0953 0.46998-0.0953 0.405 0 0.63458 0.20358 0.22957 0.20142 0.23823 0.55661v1.0786q0 0.32271 0.0823 0.5133v0.0346zm-0.6649-0.30538q0.18843 0 0.35736-0.0975t0.24473-0.2534v-0.4808h-0.31404q-0.73637 0-0.73637 0.43099 0 0.18842 0.12562 0.29455 0.12562 0.10612 0.3227 0.10612z"/>
<path d="m244.16-152.46 0.013 0.29455q0.26855-0.33786 0.70171-0.33786 0.74287 0 0.74937 0.83816v1.5485h-0.40067v-1.5507q-2e-3 -0.2534-0.11696-0.37468-0.11262-0.12128-0.35302-0.12128-0.19492 0-0.3422 0.10395-0.14727 0.10396-0.22957 0.27289v1.6698h-0.40067v-2.3434z"/>
<path d="m247.21-150.07q-0.47647 0-0.77535-0.31187-0.29888-0.31404-0.29888-0.83816v-0.0736q0-0.34869 0.13211-0.62158 0.13428-0.27506 0.37252-0.42883 0.2404-0.15593 0.51979-0.15593 0.45698 0 0.71038 0.30104 0.2534 0.30105 0.2534 0.86199v0.16676h-1.5875q9e-3 0.34653 0.20142 0.56094 0.19492 0.21225 0.4938 0.21225 0.21225 0 0.35952-0.0866 0.14728-0.0866 0.25773-0.22958l0.24474 0.19059q-0.29455 0.45265-0.88365 0.45265zm-0.0498-2.1008q-0.24257 0-0.40717 0.17759-0.1646 0.17543-0.20358 0.4938h1.1739v-0.0303q-0.0173-0.30538-0.1646-0.47214-0.14728-0.16893-0.39851-0.16893z"/>
<path d="m250.66-150.67 0.45049-1.7911h0.40067l-0.68222 2.3434h-0.32487l-0.56961-1.776-0.55444 1.776h-0.32487l-0.68006-2.3434h0.39851l0.46131 1.7543 0.54578-1.7543h0.3227z"/>
<path d="m255-151.26q0 0.53496-0.24473 0.86199-0.24474 0.32703-0.66274 0.32703-0.42666 0-0.67139-0.27072v1.1284h-0.40067v-3.2444h0.36602l0.0195 0.2599q0.24473-0.30321 0.68006-0.30321 0.42233 0 0.66706 0.31837 0.2469 0.31837 0.2469 0.88581zm-0.40067-0.0455q0-0.39634-0.16893-0.62591t-0.46348-0.22957q-0.36385 0-0.54578 0.3227v1.1197q0.17976 0.32054 0.55011 0.32054 0.28805 0 0.45698-0.22741 0.1711-0.22957 0.1711-0.68006z"/>
<path d="m255.4-151.31q0-0.34436 0.13428-0.61942 0.13645-0.27505 0.37685-0.42449 0.24257-0.14944 0.55228-0.14944 0.47864 0 0.77318 0.33136 0.29672 0.33137 0.29672 0.88148v0.0281q0 0.3422-0.13212 0.61509-0.12994 0.27072-0.37468 0.42233-0.24257 0.1516-0.55877 0.1516-0.47648 0-0.77319-0.33136-0.29455-0.33137-0.29455-0.87715zm0.40284 0.0476q0 0.38985 0.17976 0.62592 0.18193 0.23607 0.48514 0.23607 0.30537 0 0.48513-0.23824 0.17977-0.2404 0.17977-0.67139 0-0.38551-0.1841-0.62375-0.18192-0.2404-0.48513-0.2404-0.29672 0-0.47864 0.23607-0.18193 0.23607-0.18193 0.67572z"/>
<path d="m259.4-150.74q0-0.16244-0.12345-0.25124-0.12129-0.091-0.42666-0.15593-0.30321-0.065-0.48297-0.15594-0.1776-0.091-0.26423-0.21658-0.0845-0.12561-0.0845-0.29888 0-0.28805 0.24257-0.4873 0.24474-0.19925 0.62375-0.19925 0.39851 0 0.64541 0.20575 0.24906 0.20575 0.24906 0.52628h-0.40283q0-0.1646-0.14078-0.28372-0.13861-0.11911-0.35086-0.11911-0.21874 0-0.34219 0.0953t-0.12345 0.24907q0 0.14511 0.11478 0.21874 0.11479 0.0736 0.41367 0.14078 0.30104 0.0671 0.4873 0.16027 0.18626 0.0931 0.27506 0.22524 0.091 0.12995 0.091 0.31837 0 0.31404-0.25123 0.50463-0.25123 0.18842-0.6519 0.18842-0.28156 0-0.49814-0.0996t-0.34003-0.27722q-0.12128-0.17976-0.12128-0.38768h0.40067q0.0108 0.20142 0.16027 0.32054 0.1516 0.11695 0.39851 0.11695 0.2274 0 0.36385-0.091 0.13861-0.0931 0.13861-0.2469z"/>
<path d="m260.76-150.12h-0.40067v-2.3434h0.40067zm-0.43316-2.965q0-0.0975 0.0585-0.1646 0.0606-0.0671 0.1776-0.0671 0.11695 0 0.17759 0.0671 0.0606 0.0671 0.0606 0.1646t-0.0606 0.16243q-0.0606 0.065-0.17759 0.065-0.11696 0-0.1776-0.065-0.0585-0.065-0.0585-0.16243z"/>
<path d="m261.94-153.03v0.56744h0.43749v0.30971h-0.43749v1.4532q0 0.14077 0.0585 0.21224 0.0585 0.0693 0.19926 0.0693 0.0693 0 0.19059-0.026v0.32487q-0.15811 0.0433-0.30755 0.0433-0.26856 0-0.405-0.16243-0.13645-0.16243-0.13645-0.46131v-1.4532h-0.42666v-0.30971h0.42666v-0.56744z"/>
<path d="m263.28-150.12h-0.40067v-2.3434h0.40067zm-0.43315-2.965q0-0.0975 0.0585-0.1646 0.0606-0.0671 0.1776-0.0671 0.11695 0 0.17759 0.0671 0.0606 0.0671 0.0606 0.1646t-0.0606 0.16243q-0.0606 0.065-0.17759 0.065-0.11696 0-0.1776-0.065-0.0585-0.065-0.0585-0.16243z"/>
<path d="m263.81-151.31q0-0.34436 0.13428-0.61942 0.13644-0.27505 0.37685-0.42449 0.24257-0.14944 0.55227-0.14944 0.47864 0 0.77319 0.33136 0.29672 0.33137 0.29672 0.88148v0.0281q0 0.3422-0.13212 0.61509-0.12995 0.27072-0.37468 0.42233-0.24257 0.1516-0.55877 0.1516-0.47648 0-0.77319-0.33136-0.29455-0.33137-0.29455-0.87715zm0.40284 0.0476q0 0.38985 0.17976 0.62592 0.18192 0.23607 0.48514 0.23607 0.30537 0 0.48513-0.23824 0.17976-0.2404 0.17976-0.67139 0-0.38551-0.18409-0.62375-0.18193-0.2404-0.48514-0.2404-0.29671 0-0.47864 0.23607-0.18192 0.23607-0.18192 0.67572z"/>
<path d="m266.83-152.46 0.013 0.29455q0.26856-0.33786 0.70172-0.33786 0.74286 0 0.74936 0.83816v1.5485h-0.40067v-1.5507q-2e-3 -0.2534-0.11695-0.37468-0.11263-0.12128-0.35303-0.12128-0.19492 0-0.34219 0.10395-0.14728 0.10396-0.22958 0.27289v1.6698h-0.40067v-2.3434z"/>
<path d="m268.89-149.49-0.22741-0.15594q0.20359-0.28372 0.21225-0.58476v-0.36169h0.39201v0.31404q0 0.21875-0.10829 0.43749-0.10612 0.21875-0.26856 0.35086z"/>
<path d="m270.77-151.31q0-0.34436 0.13428-0.61942 0.13644-0.27505 0.37684-0.42449 0.24257-0.14944 0.55228-0.14944 0.47864 0 0.77319 0.33136 0.29671 0.33137 0.29671 0.88148v0.0281q0 0.3422-0.13211 0.61509-0.12995 0.27072-0.37468 0.42233-0.24257 0.1516-0.55878 0.1516-0.47647 0-0.77318-0.33136-0.29455-0.33137-0.29455-0.87715zm0.40283 0.0476q0 0.38985 0.17977 0.62592 0.18192 0.23607 0.48513 0.23607 0.30538 0 0.48514-0.23824 0.17976-0.2404 0.17976-0.67139 0-0.38551-0.18409-0.62375-0.18193-0.2404-0.48514-0.2404-0.29671 0-0.47864 0.23607t-0.18193 0.67572z"/>
<path d="m274.54-152.1q-0.091-0.0152-0.19709-0.0152-0.39417 0-0.53495 0.3357v1.6633h-0.40067v-2.3434h0.38984l7e-3 0.27073q0.19709-0.31404 0.55878-0.31404 0.11695 0 0.17759 0.0303z"/>
<path d="m274.64-150.33q0-0.10396 0.0606-0.17327 0.0628-0.0693 0.18626-0.0693 0.12345 0 0.18625 0.0693 0.065 0.0693 0.065 0.17327 0 0.0996-0.065 0.16676-0.0628 0.0671-0.18625 0.0671t-0.18626-0.0671q-0.0606-0.0671-0.0606-0.16676z"/>
<path d="m275.81-150.33q0-0.10396 0.0606-0.17327 0.0628-0.0693 0.18626-0.0693 0.12345 0 0.18626 0.0693 0.065 0.0693 0.065 0.17327 0 0.0996-0.065 0.16676-0.0628 0.0671-0.18626 0.0671-0.12345 0-0.18626-0.0671-0.0606-0.0671-0.0606-0.16676z"/>
<path d="m276.98-150.33q0-0.10396 0.0607-0.17327 0.0628-0.0693 0.18625-0.0693t0.18626 0.0693q0.065 0.0693 0.065 0.17327 0 0.0996-0.065 0.16676-0.0628 0.0671-0.18626 0.0671-0.12345 0-0.18625-0.0671-0.0607-0.0671-0.0607-0.16676z"/>
</g>
<g fill="#fff" aria-label="...drag a single element to another step or new position">
<path d="m168.14-91.282q0-0.10396 0.0606-0.17326 0.0628-0.06931 0.18626-0.06931 0.12345 0 0.18626 0.06931 0.065 0.0693 0.065 0.17326 0 0.09963-0.065 0.16677-0.0628 0.06714-0.18626 0.06714-0.12345 0-0.18626-0.06714-0.0606-0.06714-0.0606-0.16677z"/>
<path d="m169.31-91.282q0-0.10396 0.0606-0.17326 0.0628-0.06931 0.18626-0.06931 0.12345 0 0.18626 0.06931 0.065 0.0693 0.065 0.17326 0 0.09963-0.065 0.16677-0.0628 0.06714-0.18626 0.06714-0.12345 0-0.18626-0.06714-0.0606-0.06714-0.0606-0.16677z"/>
<path d="m170.48-91.282q0-0.10396 0.0606-0.17326 0.0628-0.06931 0.18626-0.06931 0.12345 0 0.18625 0.06931 0.065 0.0693 0.065 0.17326 0 0.09963-0.065 0.16677-0.0628 0.06714-0.18625 0.06714t-0.18626-0.06714q-0.0606-0.06714-0.0606-0.16677z"/>
<path d="m171.54-92.263q0-0.53928 0.25556-0.86632 0.25557-0.3292 0.66923-0.3292 0.4115 0 0.65191 0.28155v-1.2215h0.40067v3.3267h-0.36819l-0.0195-0.25123q-0.2404 0.29455-0.66923 0.29455-0.40717 0-0.6649-0.33353-0.25556-0.33353-0.25556-0.87065zm0.40067 0.04548q0 0.39851 0.1646 0.62375t0.45482 0.22524q0.38118 0 0.55661-0.3422v-1.0764q-0.17976-0.33137-0.55228-0.33137-0.29455 0-0.45915 0.22741-0.1646 0.22741-0.1646 0.67356z"/>
<path d="m175.28-93.055q-0.091-0.01516-0.19709-0.01516-0.39418 0-0.53495 0.3357v1.6633h-0.40067v-2.3434h0.38984l7e-3 0.27072q0.19708-0.31404 0.55877-0.31404 0.11695 0 0.1776 0.03032z"/>
<path d="m177-91.072q-0.0346-0.0693-0.0563-0.2469-0.27939 0.29022-0.66706 0.29022-0.34653 0-0.56961-0.19492-0.22091-0.19709-0.22091-0.49813 0-0.36602 0.27722-0.56744 0.27939-0.20358 0.78402-0.20358h0.38984v-0.18409q0-0.21008-0.12561-0.33353-0.12562-0.12562-0.37035-0.12562-0.21442 0-0.35952 0.10829-0.14511 0.10829-0.14511 0.26206h-0.40284q0-0.17543 0.12345-0.33786 0.12562-0.1646 0.33786-0.2599 0.21442-0.0953 0.46998-0.0953 0.405 0 0.63458 0.20358 0.22957 0.20142 0.23824 0.55661v1.0786q0 0.3227 0.0823 0.51329v0.03465zm-0.6649-0.30538q0.18843 0 0.35736-0.09746t0.24473-0.2534v-0.48081h-0.31404q-0.73637 0-0.73637 0.43099 0 0.18842 0.12562 0.29455 0.12562 0.10612 0.3227 0.10612z"/>
<path d="m177.88-92.263q0-0.54794 0.2534-0.87065 0.2534-0.32487 0.67139-0.32487 0.42883 0 0.66923 0.30321l0.0195-0.2599h0.36602v2.2871q0 0.45482-0.27073 0.71688-0.26856 0.26206-0.72337 0.26206-0.2534 0-0.49597-0.10829-0.24257-0.10829-0.37035-0.29671l0.20792-0.2404q0.25773 0.31837 0.63024 0.31837 0.29238 0 0.45482-0.1646 0.1646-0.1646 0.1646-0.46348v-0.20142q-0.2404 0.27722-0.65624 0.27722-0.4115 0-0.66706-0.33137-0.2534-0.33137-0.2534-0.90314zm0.40284 0.04548q0 0.39634 0.16243 0.62375 0.16244 0.22524 0.45482 0.22524 0.37901 0 0.55661-0.34436v-1.0699q-0.18409-0.3357-0.55228-0.3357-0.29238 0-0.45698 0.22741-0.1646 0.22741-0.1646 0.67356z"/>
<path d="m183.01-91.072q-0.0346-0.0693-0.0563-0.2469-0.27939 0.29022-0.66707 0.29022-0.34652 0-0.5696-0.19492-0.22091-0.19709-0.22091-0.49813 0-0.36602 0.27722-0.56744 0.27939-0.20358 0.78402-0.20358h0.38984v-0.18409q0-0.21008-0.12562-0.33353-0.12561-0.12562-0.37035-0.12562-0.21441 0-0.35952 0.10829-0.14511 0.10829-0.14511 0.26206h-0.40283q0-0.17543 0.12345-0.33786 0.12561-0.1646 0.33786-0.2599 0.21441-0.0953 0.46998-0.0953 0.405 0 0.63457 0.20358 0.22958 0.20142 0.23824 0.55661v1.0786q0 0.3227 0.0823 0.51329v0.03465zm-0.6649-0.30538q0.18842 0 0.35736-0.09746 0.16893-0.09746 0.24473-0.2534v-0.48081h-0.31404q-0.73637 0-0.73637 0.43099 0 0.18842 0.12562 0.29455 0.12561 0.10612 0.3227 0.10612z"/>
<path d="m186.44-91.693q0-0.16243-0.12345-0.25123-0.12129-0.09096-0.42667-0.15594-0.30321-0.06497-0.48297-0.15594-0.17759-0.09096-0.26422-0.21658-0.0845-0.12562-0.0845-0.29888 0-0.28805 0.24257-0.4873 0.24473-0.19925 0.62375-0.19925 0.3985 0 0.6454 0.20575 0.24907 0.20575 0.24907 0.52629h-0.40284q0-0.1646-0.14077-0.28372-0.13862-0.11912-0.35086-0.11912-0.21875 0-0.3422 0.0953-0.12345 0.09529-0.12345 0.24907 0 0.14511 0.11479 0.21874 0.11479 0.07364 0.41366 0.14078 0.30105 0.06714 0.48731 0.16027 0.18626 0.09313 0.27505 0.22524 0.091 0.12995 0.091 0.31837 0 0.31404-0.25123 0.50463-0.25124 0.18842-0.65191 0.18842-0.28155 0-0.49813-0.09963t-0.34003-0.27722q-0.12128-0.17976-0.12128-0.38768h0.40067q0.0108 0.20142 0.16027 0.32054 0.1516 0.11695 0.3985 0.11695 0.22741 0 0.36385-0.09096 0.13862-0.09313 0.13862-0.2469z"/>
<path d="m187.8-91.072h-0.40068v-2.3434h0.40068zm-0.43316-2.965q0-0.09746 0.0585-0.1646 0.0607-0.06714 0.1776-0.06714 0.11695 0 0.17759 0.06714 0.0607 0.06714 0.0607 0.1646t-0.0607 0.16244q-0.0606 0.06497-0.17759 0.06497-0.11695 0-0.1776-0.06497-0.0585-0.06497-0.0585-0.16244z"/>
<path d="m188.82-93.415 0.013 0.29455q0.26856-0.33786 0.70172-0.33786 0.74287 0 0.74936 0.83816v1.5485h-0.40067v-1.5507q-2e-3 -0.2534-0.11695-0.37468-0.11262-0.12128-0.35302-0.12128-0.19493 0-0.3422 0.10396t-0.22957 0.27289v1.6698h-0.40067v-2.3434z"/>
<path d="m190.79-92.263q0-0.54794 0.2534-0.87065 0.25339-0.32487 0.67139-0.32487 0.42883 0 0.66923 0.30321l0.0195-0.2599h0.36602v2.2871q0 0.45482-0.27072 0.71688-0.26856 0.26206-0.72338 0.26206-0.25339 0-0.49596-0.10829-0.24257-0.10829-0.37035-0.29671l0.20791-0.2404q0.25773 0.31837 0.63025 0.31837 0.29238 0 0.45481-0.1646 0.1646-0.1646 0.1646-0.46348v-0.20142q-0.2404 0.27722-0.65623 0.27722-0.4115 0-0.66706-0.33137-0.2534-0.33137-0.2534-0.90314zm0.40284 0.04548q0 0.39634 0.16243 0.62375 0.16243 0.22524 0.45482 0.22524 0.37901 0 0.5566-0.34436v-1.0699q-0.18409-0.3357-0.55227-0.3357-0.29238 0-0.45698 0.22741-0.1646 0.22741-0.1646 0.67356z"/>
<path d="m193.81-91.072h-0.40067v-3.3267h0.40067z"/>
<path d="m195.42-91.028q-0.47648 0-0.77536-0.31187-0.29888-0.31404-0.29888-0.83816v-0.07364q0-0.34869 0.13212-0.62158 0.13427-0.27506 0.37251-0.42883 0.24041-0.15594 0.51979-0.15594 0.45698 0 0.71038 0.30104t0.2534 0.86198v0.16677h-1.5875q9e-3 0.34653 0.20142 0.56094 0.19492 0.21225 0.4938 0.21225 0.21225 0 0.35952-0.08663 0.14728-0.08663 0.25773-0.22957l0.24474 0.19059q-0.29455 0.45265-0.88364 0.45265zm-0.0498-2.1008q-0.24257 0-0.40717 0.1776-0.1646 0.17543-0.20358 0.4938h1.1739v-0.03032q-0.0173-0.30538-0.1646-0.47214-0.14728-0.16893-0.39851-0.16893z"/>
<path d="m198.87-91.028q-0.47648 0-0.77536-0.31187-0.29888-0.31404-0.29888-0.83816v-0.07364q0-0.34869 0.13212-0.62158 0.13428-0.27506 0.37251-0.42883 0.24041-0.15594 0.51979-0.15594 0.45699 0 0.71038 0.30104 0.2534 0.30104 0.2534 0.86198v0.16677h-1.5875q9e-3 0.34653 0.20142 0.56094 0.19492 0.21225 0.4938 0.21225 0.21225 0 0.35953-0.08663 0.14727-0.08663 0.25773-0.22957l0.24473 0.19059q-0.29455 0.45265-0.88364 0.45265zm-0.0498-2.1008q-0.24257 0-0.40717 0.1776-0.1646 0.17543-0.20358 0.4938h1.1739v-0.03032q-0.0173-0.30538-0.1646-0.47214-0.14728-0.16893-0.39851-0.16893z"/>
<path d="m200.68-91.072h-0.40067v-3.3267h0.40067z"/>
<path d="m202.29-91.028q-0.47647 0-0.77535-0.31187-0.29888-0.31404-0.29888-0.83816v-0.07364q0-0.34869 0.13211-0.62158 0.13428-0.27506 0.37252-0.42883 0.2404-0.15594 0.51979-0.15594 0.45698 0 0.71038 0.30104 0.25339 0.30104 0.25339 0.86198v0.16677h-1.5875q9e-3 0.34653 0.20142 0.56094 0.19492 0.21225 0.4938 0.21225 0.21225 0 0.35952-0.08663t0.25773-0.22957l0.24473 0.19059q-0.29454 0.45265-0.88364 0.45265zm-0.0498-2.1008q-0.24257 0-0.40717 0.1776-0.1646 0.17543-0.20359 0.4938h1.1739v-0.03032q-0.0173-0.30538-0.1646-0.47214-0.14727-0.16893-0.3985-0.16893z"/>
<path d="m204.04-93.415 0.0108 0.2599q0.25773-0.30321 0.69522-0.30321 0.49164 0 0.66923 0.37685 0.11695-0.16893 0.30321-0.27289 0.18843-0.10396 0.44399-0.10396 0.77102 0 0.78402 0.8165v1.5702h-0.40067v-1.5464q0-0.25123-0.11479-0.37468-0.11479-0.12562-0.38551-0.12562-0.22308 0-0.37035 0.13428-0.14728 0.13211-0.1711 0.35736v1.555h-0.40284v-1.5355q0-0.51113-0.5003-0.51113-0.39417 0-0.53928 0.3357v1.711h-0.40067v-2.3434z"/>
<path d="m208.53-91.028q-0.47647 0-0.77535-0.31187-0.29888-0.31404-0.29888-0.83816v-0.07364q0-0.34869 0.13211-0.62158 0.13428-0.27506 0.37252-0.42883 0.2404-0.15594 0.51979-0.15594 0.45698 0 0.71038 0.30104 0.25339 0.30104 0.25339 0.86198v0.16677h-1.5875q9e-3 0.34653 0.20142 0.56094 0.19492 0.21225 0.4938 0.21225 0.21225 0 0.35952-0.08663t0.25773-0.22957l0.24473 0.19059q-0.29454 0.45265-0.88364 0.45265zm-0.0498-2.1008q-0.24257 0-0.40717 0.1776-0.1646 0.17543-0.20359 0.4938h1.1739v-0.03032q-0.0173-0.30538-0.1646-0.47214-0.14727-0.16893-0.3985-0.16893z"/>
<path d="m210.28-93.415 0.013 0.29455q0.26856-0.33786 0.70172-0.33786 0.74287 0 0.74937 0.83816v1.5485h-0.40068v-1.5507q-2e-3 -0.2534-0.11695-0.37468-0.11262-0.12128-0.35302-0.12128-0.19492 0-0.3422 0.10396-0.14727 0.10396-0.22957 0.27289v1.6698h-0.40067v-2.3434z"/>
<path d="m212.9-93.982v0.56744h0.43749v0.30971h-0.43749v1.4532q0 0.14078 0.0585 0.21225 0.0585 0.06931 0.19925 0.06931 0.0693 0 0.19059-0.02599v0.32487q-0.1581 0.04332-0.30754 0.04332-0.26856 0-0.40501-0.16244-0.13644-0.16243-0.13644-0.46131v-1.4532h-0.42666v-0.30971h0.42666v-0.56744z"/>
<path d="m215.45-93.982v0.56744h0.43749v0.30971h-0.43749v1.4532q0 0.14078 0.0585 0.21225 0.0585 0.06931 0.19925 0.06931 0.0693 0 0.19059-0.02599v0.32487q-0.1581 0.04332-0.30754 0.04332-0.26856 0-0.40501-0.16244-0.13644-0.16243-0.13644-0.46131v-1.4532h-0.42666v-0.30971h0.42666v-0.56744z"/>
<path d="m216.2-92.265q0-0.34436 0.13428-0.61942 0.13644-0.27506 0.37684-0.4245 0.24257-0.14944 0.55228-0.14944 0.47864 0 0.77319 0.33137 0.29671 0.33137 0.29671 0.88148v0.02816q0 0.3422-0.13211 0.61508-0.12995 0.27072-0.37468 0.42233-0.24257 0.15161-0.55878 0.15161-0.47647 0-0.77319-0.33137-0.29454-0.33137-0.29454-0.87715zm0.40283 0.04765q0 0.38984 0.17976 0.62591 0.18193 0.23607 0.48514 0.23607 0.30538 0 0.48514-0.23824 0.17976-0.2404 0.17976-0.6714 0-0.38551-0.18409-0.62375-0.18193-0.2404-0.48514-0.2404-0.29671 0-0.47864 0.23607-0.18193 0.23607-0.18193 0.67573z"/>
<path d="m221.38-91.072q-0.0347-0.0693-0.0563-0.2469-0.27939 0.29022-0.66707 0.29022-0.34652 0-0.5696-0.19492-0.22091-0.19709-0.22091-0.49813 0-0.36602 0.27722-0.56744 0.27939-0.20358 0.78402-0.20358h0.38984v-0.18409q0-0.21008-0.12562-0.33353-0.12561-0.12562-0.37035-0.12562-0.21441 0-0.35952 0.10829-0.14511 0.10829-0.14511 0.26206h-0.40283q0-0.17543 0.12345-0.33786 0.12561-0.1646 0.33786-0.2599 0.21441-0.0953 0.46998-0.0953 0.405 0 0.63457 0.20358 0.22958 0.20142 0.23824 0.55661v1.0786q0 0.3227 0.0823 0.51329v0.03465zm-0.6649-0.30538q0.18842 0 0.35735-0.09746 0.16894-0.09746 0.24474-0.2534v-0.48081h-0.31404q-0.73637 0-0.73637 0.43099 0 0.18842 0.12562 0.29455 0.12561 0.10612 0.3227 0.10612z"/>
<path d="m222.73-93.415 0.013 0.29455q0.26856-0.33786 0.70172-0.33786 0.74286 0 0.74936 0.83816v1.5485h-0.40067v-1.5507q-2e-3 -0.2534-0.11695-0.37468-0.11263-0.12128-0.35303-0.12128-0.19492 0-0.34219 0.10396-0.14728 0.10396-0.22958 0.27289v1.6698h-0.40067v-2.3434z"/>
<path d="m224.7-92.265q0-0.34436 0.13428-0.61942 0.13644-0.27506 0.37684-0.4245 0.24257-0.14944 0.55228-0.14944 0.47864 0 0.77319 0.33137 0.29671 0.33137 0.29671 0.88148v0.02816q0 0.3422-0.13211 0.61508-0.12995 0.27072-0.37468 0.42233-0.24257 0.15161-0.55878 0.15161-0.47647 0-0.77319-0.33137-0.29454-0.33137-0.29454-0.87715zm0.40283 0.04765q0 0.38984 0.17976 0.62591 0.18193 0.23607 0.48514 0.23607 0.30538 0 0.48514-0.23824 0.17976-0.2404 0.17976-0.6714 0-0.38551-0.18409-0.62375-0.18193-0.2404-0.48514-0.2404-0.29671 0-0.47864 0.23607-0.18193 0.23607-0.18193 0.67573z"/>
<path d="m227.88-93.982v0.56744h0.43749v0.30971h-0.43749v1.4532q0 0.14078 0.0585 0.21225 0.0585 0.06931 0.19926 0.06931 0.0693 0 0.19059-0.02599v0.32487q-0.15811 0.04332-0.30755 0.04332-0.26855 0-0.405-0.16244-0.13644-0.16243-0.13644-0.46131v-1.4532h-0.42666v-0.30971h0.42666v-0.56744z"/>
<path d="m229.18-93.131q0.26639-0.32703 0.69305-0.32703 0.74287 0 0.74936 0.83816v1.5485h-0.40067v-1.5507q-2e-3 -0.2534-0.11695-0.37468-0.11262-0.12128-0.35302-0.12128-0.19493 0-0.3422 0.10396t-0.22957 0.27289v1.6698h-0.40068v-3.3267h0.40068z"/>
<path d="m232.2-91.028q-0.47648 0-0.77536-0.31187-0.29888-0.31404-0.29888-0.83816v-0.07364q0-0.34869 0.13212-0.62158 0.13428-0.27506 0.37251-0.42883 0.24041-0.15594 0.51979-0.15594 0.45699 0 0.71038 0.30104 0.2534 0.30104 0.2534 0.86198v0.16677h-1.5875q9e-3 0.34653 0.20141 0.56094 0.19493 0.21225 0.49381 0.21225 0.21224 0 0.35952-0.08663 0.14727-0.08663 0.25773-0.22957l0.24473 0.19059q-0.29455 0.45265-0.88364 0.45265zm-0.0498-2.1008q-0.24256 0-0.40716 0.1776-0.1646 0.17543-0.20359 0.4938h1.1739v-0.03032q-0.0173-0.30538-0.1646-0.47214-0.14727-0.16893-0.39851-0.16893z"/>
<path d="m234.71-93.055q-0.091-0.01516-0.19709-0.01516-0.39417 0-0.53495 0.3357v1.6633h-0.40067v-2.3434h0.38984l6e-3 0.27072q0.19709-0.31404 0.55877-0.31404 0.11696 0 0.1776 0.03032z"/>
<path d="m237.54-91.693q0-0.16243-0.12345-0.25123-0.12128-0.09096-0.42666-0.15594-0.30321-0.06497-0.48297-0.15594-0.1776-0.09096-0.26423-0.21658-0.0845-0.12562-0.0845-0.29888 0-0.28805 0.24257-0.4873 0.24473-0.19925 0.62374-0.19925 0.39851 0 0.64541 0.20575 0.24907 0.20575 0.24907 0.52629h-0.40284q0-0.1646-0.14078-0.28372-0.13861-0.11912-0.35086-0.11912-0.21874 0-0.34219 0.0953-0.12345 0.09529-0.12345 0.24907 0 0.14511 0.11479 0.21874 0.11478 0.07364 0.41366 0.14078 0.30105 0.06714 0.48731 0.16027 0.18625 0.09313 0.27505 0.22524 0.091 0.12995 0.091 0.31837 0 0.31404-0.25123 0.50463-0.25123 0.18842-0.6519 0.18842-0.28155 0-0.49813-0.09963t-0.34003-0.27722q-0.12129-0.17976-0.12129-0.38768h0.40067q0.0108 0.20142 0.16027 0.32054 0.15161 0.11695 0.39851 0.11695 0.22741 0 0.36385-0.09096 0.13861-0.09313 0.13861-0.2469z"/>
<path d="m239-93.982v0.56744h0.43749v0.30971h-0.43749v1.4532q0 0.14078 0.0585 0.21225 0.0585 0.06931 0.19926 0.06931 0.0693 0 0.19059-0.02599v0.32487q-0.15811 0.04332-0.30755 0.04332-0.26856 0-0.405-0.16244-0.13645-0.16243-0.13645-0.46131v-1.4532h-0.42666v-0.30971h0.42666v-0.56744z"/>
<path d="m240.88-91.028q-0.47647 0-0.77535-0.31187-0.29888-0.31404-0.29888-0.83816v-0.07364q0-0.34869 0.13211-0.62158 0.13428-0.27506 0.37252-0.42883 0.2404-0.15594 0.51979-0.15594 0.45698 0 0.71038 0.30104 0.25339 0.30104 0.25339 0.86198v0.16677h-1.5875q9e-3 0.34653 0.20142 0.56094 0.19492 0.21225 0.4938 0.21225 0.21225 0 0.35952-0.08663t0.25773-0.22957l0.24473 0.19059q-0.29454 0.45265-0.88364 0.45265zm-0.0498-2.1008q-0.24257 0-0.40717 0.1776-0.1646 0.17543-0.20359 0.4938h1.1739v-0.03032q-0.0173-0.30538-0.1646-0.47214-0.14727-0.16893-0.3985-0.16893z"/>
<path d="m244.23-92.217q0 0.53495-0.24474 0.86198-0.24473 0.32704-0.66273 0.32704-0.42666 0-0.67139-0.27072v1.1284h-0.40068v-3.2444h0.36602l0.0195 0.2599q0.24473-0.30321 0.68005-0.30321 0.42233 0 0.66707 0.31837 0.2469 0.31837 0.2469 0.88581zm-0.40067-0.04548q0-0.39634-0.16893-0.62591-0.16894-0.22957-0.46348-0.22957-0.36386 0-0.54578 0.3227v1.1197q0.17976 0.32054 0.55011 0.32054 0.28805 0 0.45698-0.22741 0.1711-0.22957 0.1711-0.68006z"/>
<path d="m245.73-92.265q0-0.34436 0.13428-0.61942 0.13644-0.27506 0.37685-0.4245 0.24256-0.14944 0.55227-0.14944 0.47864 0 0.77319 0.33137 0.29671 0.33137 0.29671 0.88148v0.02816q0 0.3422-0.13211 0.61508-0.12995 0.27072-0.37468 0.42233-0.24257 0.15161-0.55878 0.15161-0.47647 0-0.77318-0.33137-0.29455-0.33137-0.29455-0.87715zm0.40284 0.04765q0 0.38984 0.17976 0.62591 0.18192 0.23607 0.48513 0.23607 0.30538 0 0.48514-0.23824 0.17976-0.2404 0.17976-0.6714 0-0.38551-0.18409-0.62375-0.18193-0.2404-0.48514-0.2404-0.29671 0-0.47864 0.23607-0.18192 0.23607-0.18192 0.67573z"/>
<path d="m249.5-93.055q-0.091-0.01516-0.19709-0.01516-0.39417 0-0.53495 0.3357v1.6633h-0.40067v-2.3434h0.38984l7e-3 0.27072q0.19709-0.31404 0.55877-0.31404 0.11696 0 0.1776 0.03032z"/>
<path d="m251.35-93.415 0.013 0.29455q0.26856-0.33786 0.70172-0.33786 0.74287 0 0.74936 0.83816v1.5485h-0.40067v-1.5507q-2e-3 -0.2534-0.11695-0.37468-0.11262-0.12128-0.35302-0.12128-0.19493 0-0.3422 0.10396t-0.22957 0.27289v1.6698h-0.40067v-2.3434z"/>
<path d="m254.39-91.028q-0.47647 0-0.77535-0.31187-0.29888-0.31404-0.29888-0.83816v-0.07364q0-0.34869 0.13211-0.62158 0.13428-0.27506 0.37252-0.42883 0.2404-0.15594 0.51979-0.15594 0.45698 0 0.71038 0.30104 0.25339 0.30104 0.25339 0.86198v0.16677h-1.5875q9e-3 0.34653 0.20142 0.56094 0.19492 0.21225 0.4938 0.21225 0.21224 0 0.35952-0.08663 0.14727-0.08663 0.25773-0.22957l0.24473 0.19059q-0.29455 0.45265-0.88364 0.45265zm-0.0498-2.1008q-0.24257 0-0.40717 0.1776-0.1646 0.17543-0.20359 0.4938h1.1739v-0.03032q-0.0173-0.30538-0.1646-0.47214-0.14727-0.16893-0.3985-0.16893z"/>
<path d="m257.84-91.624 0.45049-1.7911h0.40067l-0.68222 2.3434h-0.32487l-0.56961-1.776-0.55444 1.776h-0.32487l-0.68006-2.3434h0.39851l0.46131 1.7543 0.54578-1.7543h0.32271z"/>
<path d="m262.18-92.217q0 0.53495-0.24474 0.86198-0.24473 0.32704-0.66273 0.32704-0.42666 0-0.67139-0.27072v1.1284h-0.40067v-3.2444h0.36601l0.0195 0.2599q0.24473-0.30321 0.68005-0.30321 0.42233 0 0.66707 0.31837 0.2469 0.31837 0.2469 0.88581zm-0.40067-0.04548q0-0.39634-0.16893-0.62591-0.16894-0.22957-0.46348-0.22957-0.36386 0-0.54578 0.3227v1.1197q0.17976 0.32054 0.55011 0.32054 0.28805 0 0.45698-0.22741 0.1711-0.22957 0.1711-0.68006z"/>
<path d="m262.58-92.265q0-0.34436 0.13428-0.61942 0.13644-0.27506 0.37685-0.4245 0.24257-0.14944 0.55227-0.14944 0.47864 0 0.77319 0.33137 0.29671 0.33137 0.29671 0.88148v0.02816q0 0.3422-0.13211 0.61508-0.12995 0.27072-0.37468 0.42233-0.24257 0.15161-0.55877 0.15161-0.47648 0-0.77319-0.33137-0.29455-0.33137-0.29455-0.87715zm0.40284 0.04765q0 0.38984 0.17976 0.62591 0.18192 0.23607 0.48514 0.23607 0.30537 0 0.48513-0.23824 0.17976-0.2404 0.17976-0.6714 0-0.38551-0.18409-0.62375-0.18193-0.2404-0.48514-0.2404-0.29671 0-0.47864 0.23607-0.18192 0.23607-0.18192 0.67573z"/>
<path d="m266.58-91.693q0-0.16243-0.12345-0.25123-0.12128-0.09096-0.42666-0.15594-0.30321-0.06497-0.48297-0.15594-0.1776-0.09096-0.26423-0.21658-0.0845-0.12562-0.0845-0.29888 0-0.28805 0.24257-0.4873 0.24474-0.19925 0.62375-0.19925 0.39851 0 0.64541 0.20575 0.24906 0.20575 0.24906 0.52629h-0.40283q0-0.1646-0.14078-0.28372-0.13861-0.11912-0.35086-0.11912-0.21874 0-0.34219 0.0953-0.12345 0.09529-0.12345 0.24907 0 0.14511 0.11478 0.21874 0.11479 0.07364 0.41367 0.14078 0.30104 0.06714 0.4873 0.16027 0.18626 0.09313 0.27506 0.22524 0.091 0.12995 0.091 0.31837 0 0.31404-0.25123 0.50463-0.25123 0.18842-0.6519 0.18842-0.28156 0-0.49814-0.09963t-0.34003-0.27722q-0.12128-0.17976-0.12128-0.38768h0.40067q0.0108 0.20142 0.16027 0.32054 0.15161 0.11695 0.39851 0.11695 0.2274 0 0.36385-0.09096 0.13861-0.09313 0.13861-0.2469z"/>
<path d="m267.94-91.072h-0.40067v-2.3434h0.40067zm-0.43315-2.965q0-0.09746 0.0585-0.1646 0.0606-0.06714 0.1776-0.06714 0.11695 0 0.17759 0.06714 0.0606 0.06714 0.0606 0.1646t-0.0606 0.16244q-0.0606 0.06497-0.17759 0.06497-0.11696 0-0.1776-0.06497-0.0585-0.06497-0.0585-0.16244z"/>
<path d="m269.12-93.982v0.56744h0.43749v0.30971h-0.43749v1.4532q0 0.14078 0.0585 0.21225 0.0585 0.06931 0.19926 0.06931 0.0693 0 0.19059-0.02599v0.32487q-0.15811 0.04332-0.30755 0.04332-0.26855 0-0.405-0.16244-0.13644-0.16243-0.13644-0.46131v-1.4532h-0.42666v-0.30971h0.42666v-0.56744z"/>
<path d="m270.46-91.072h-0.40068v-2.3434h0.40068zm-0.43316-2.965q0-0.09746 0.0585-0.1646 0.0607-0.06714 0.1776-0.06714 0.11695 0 0.17759 0.06714 0.0606 0.06714 0.0606 0.1646t-0.0606 0.16244q-0.0606 0.06497-0.17759 0.06497-0.11695 0-0.1776-0.06497-0.0585-0.06497-0.0585-0.16244z"/>
<path d="m271-92.265q0-0.34436 0.13428-0.61942 0.13645-0.27506 0.37685-0.4245 0.24257-0.14944 0.55227-0.14944 0.47865 0 0.77319 0.33137 0.29672 0.33137 0.29672 0.88148v0.02816q0 0.3422-0.13212 0.61508-0.12994 0.27072-0.37468 0.42233-0.24257 0.15161-0.55877 0.15161-0.47648 0-0.77319-0.33137-0.29455-0.33137-0.29455-0.87715zm0.40284 0.04765q0 0.38984 0.17976 0.62591 0.18193 0.23607 0.48514 0.23607 0.30537 0 0.48513-0.23824 0.17976-0.2404 0.17976-0.6714 0-0.38551-0.18409-0.62375-0.18192-0.2404-0.48514-0.2404-0.29671 0-0.47864 0.23607-0.18192 0.23607-0.18192 0.67573z"/>
<path d="m274.01-93.415 0.013 0.29455q0.26856-0.33786 0.70172-0.33786 0.74286 0 0.74936 0.83816v1.5485h-0.40067v-1.5507q-2e-3 -0.2534-0.11695-0.37468-0.11262-0.12128-0.35303-0.12128-0.19492 0-0.34219 0.10396-0.14728 0.10396-0.22958 0.27289v1.6698h-0.40067v-2.3434z"/>
</g>
<path d="m195.81-133.89h25.891c1.5814 0 2.8545 1.2731 2.8545 2.8545v16.257c0 1.5814-1.2731 2.8545-2.8545 2.8545h-25.891c-1.5814 0-2.8545-1.2731-2.8545-2.8545v-16.257c0-1.5814 1.2731-2.8545 2.8545-2.8545z" fill="#45bdce"/>
<g transform="matrix(.25165 0 0 .25165 419.72 -190.98)" fill="#fff">
<path d="m-838.36 272.82c-5.5764 0-10.104 4.6256-10.104 10.41-3e-5 5.7846 4.5274 10.412 10.104 10.412 5.5763 0 10.103-4.6271 10.103-10.412 0-5.7846-4.5269-10.41-10.103-10.41zm-10.165 2.543a24.649 29.646 0 0 0-8.663 7.8455 24.649 29.646 0 0 0 8.6294 7.845c-1.6019-2.1851-2.5518-4.8961-2.5518-7.8233 0-2.9473 0.96348-5.6748 2.5854-7.8672zm20.364 0.0455c1.6014 2.1845 2.5502 4.8951 2.5502 7.8218 0 2.9475-0.96321 5.6754-2.5854 7.8682a24.649 29.646 0 0 0 8.6635-7.8455 24.649 29.646 0 0 0-8.6284-7.8445zm-10.199 1.7534a6.1689 6.0692 0 0 1 6.1686 6.0689 6.1689 6.0692 0 0 1-6.1686 6.0694 6.1689 6.0692 0 0 1-6.1691-6.0694 6.1689 6.0692 0 0 1 6.1691-6.0689z"/>
<path d="m-834.73 283.23a3.6298 3.5711 0 0 1-3.6298 3.5712 3.6298 3.5711 0 0 1-3.6298-3.5712 3.6298 3.5711 0 0 1 3.6298-3.5711 3.6298 3.5711 0 0 1 3.6298 3.5711z"/>
</g>
<g fill="#fff" stroke-width=".26458" aria-label="View">
<path d="m204.61-127.12 0.87155-2.892h0.88212l-1.339 3.8454h-0.82665l-1.3337-3.8454h0.87947z"/>
<path d="m207.48-126.17h-0.76591v-2.8576h0.76591zm-0.81081-3.5971q0-0.17167 0.11357-0.2826 0.11621-0.11092 0.31429-0.11092 0.19543 0 0.31164 0.11092 0.11621 0.11093 0.11621 0.2826 0 0.17431-0.11885 0.28523-0.11621 0.11093-0.309 0.11093-0.1928 0-0.31165-0.11093-0.11621-0.11092-0.11621-0.28523z"/>
<path d="m209.43-126.12q-0.62857 0-1.0247-0.3856-0.39352-0.38559-0.39352-1.0274v-0.074q0-0.43049 0.16639-0.76855 0.16639-0.3407 0.47011-0.52293 0.30636-0.18487 0.69724-0.18487 0.58632 0 0.92173 0.36974 0.33806 0.36975 0.33806 1.0485v0.31164h-1.8197q0.037 0.27996 0.22185 0.44898 0.18752 0.16903 0.47275 0.16903 0.44106 0 0.68932-0.31957l0.37503 0.41993q-0.17167 0.24298-0.46482 0.38032-0.29316 0.13469-0.64971 0.13469zm-0.0872-2.3453q-0.22713 0-0.36975 0.15319-0.13998 0.15318-0.17959 0.43841h1.0617v-0.0607q-5e-3 -0.25354-0.13734-0.39088-0.13205-0.13998-0.37503-0.13998z"/>
<path d="m213.53-127.21 0.37504-1.8197h0.73685l-0.72893 2.8576h-0.63914l-0.54142-1.7986-0.54142 1.7986h-0.63649l-0.72894-2.8576h0.73686l0.37239 1.817 0.52293-1.817h0.55198z"/>
</g>
<path d="m230.38-134.02h25.782c1.5999 0 2.888 1.288 2.888 2.888v16.447c0 1.5999-1.288 2.888-2.888 2.888h-25.782c-1.5999 0-2.888-1.288-2.888-2.888v-16.447c0-1.5999 1.288-2.888 2.888-2.888z" fill="#3dc75f"/>
<path d="m247.13-120.37-1.9804 1.832 0.38649 2.67-2.3543-1.3173-2.4199 1.1926 0.5253-2.6462-1.882-1.9329 2.679-0.31812 1.2567-2.3872 1.1304 2.4496z" fill="#fff" stroke="#fff" stroke-linejoin="round" stroke-width=".40308"/>
<g fill="#fff" stroke-width=".26458" aria-label="Effect in">
<path d="m235.79-127.84h-1.5212v1.03h1.7854v0.6365h-2.5777v-3.8454h2.5724v0.64178h-1.7801v0.91645h1.5212z"/>
<path d="m236.63-126.17v-2.2977h-0.42521v-0.5599h0.42521v-0.24298q0-0.48067 0.27467-0.74478 0.27732-0.26675 0.77384-0.26675 0.15846 0 0.38823 0.0528l-8e-3 0.5916q-0.0951-0.0238-0.23241-0.0238-0.4305 0-0.4305 0.40408v0.22978h0.56783v0.5599h-0.56783v2.2977z"/>
<path d="m238.58-126.17v-2.2977h-0.42521v-0.5599h0.42521v-0.24298q0-0.48067 0.27467-0.74478 0.27731-0.26675 0.77383-0.26675 0.15846 0 0.38824 0.0528l-8e-3 0.5916q-0.0951-0.0238-0.23241-0.0238-0.43049 0-0.43049 0.40408v0.22978h0.56782v0.5599h-0.56782v2.2977z"/>
<path d="m241.57-126.12q-0.62857 0-1.0247-0.3856-0.39352-0.38559-0.39352-1.0274v-0.074q0-0.43049 0.16639-0.76855 0.16638-0.3407 0.47011-0.52293 0.30636-0.18487 0.69724-0.18487 0.58631 0 0.92173 0.36974 0.33805 0.36975 0.33805 1.0485v0.31164h-1.8197q0.037 0.27996 0.22185 0.44898 0.18752 0.16903 0.47275 0.16903 0.44106 0 0.68932-0.31957l0.37503 0.41993q-0.17167 0.24298-0.46483 0.38032-0.29316 0.13469-0.6497 0.13469zm-0.0871-2.3453q-0.22714 0-0.36975 0.15319-0.13998 0.15318-0.1796 0.43841h1.0617v-0.0607q-5e-3 -0.25354-0.13733-0.39088-0.13206-0.13998-0.37503-0.13998z"/>
<path d="m244.36-126.73q0.21128 0 0.34334-0.11621 0.13205-0.1162 0.13733-0.309h0.71573q-3e-3 0.29052-0.15846 0.53349-0.15583 0.24034-0.42786 0.37504-0.26938 0.13205-0.59688 0.13205-0.61272 0-0.96663-0.38824-0.3539-0.39087-0.3539-1.0776v-0.0502q0-0.66027 0.35126-1.0538 0.35126-0.39351 0.96399-0.39351 0.53614 0 0.85835 0.30636 0.32485 0.30372 0.33013 0.81081h-0.71573q-5e-3 -0.22185-0.13733-0.35919-0.13206-0.13998-0.34862-0.13998-0.26675 0-0.40409 0.19544-0.13469 0.1928-0.13469 0.62858v0.0792q0 0.44106 0.13469 0.63385 0.1347 0.1928 0.40937 0.1928z"/>
<path d="m246.91-129.73v0.70253h0.4886v0.5599h-0.4886v1.4262q0 0.15846 0.0607 0.22713 0.0607 0.0687 0.23241 0.0687 0.12677 0 0.22449-0.0185v0.57839q-0.22449 0.0687-0.46218 0.0687-0.80289 0-0.81873-0.81081v-1.5397h-0.41729v-0.5599h0.41729v-0.70253z"/>
<path d="m249.98-126.17h-0.76591v-2.8576h0.76591zm-0.8108-3.5971q0-0.17167 0.11356-0.2826 0.11621-0.11092 0.31429-0.11092 0.19544 0 0.31164 0.11092 0.11621 0.11093 0.11621 0.2826 0 0.17431-0.11885 0.28523-0.1162 0.11093-0.309 0.11093t-0.31165-0.11093q-0.1162-0.11092-0.1162-0.28523z"/>
<path d="m251.32-129.03 0.0238 0.33013q0.30636-0.38295 0.82137-0.38295 0.45426 0 0.67611 0.26674 0.22185 0.26675 0.22713 0.7976v1.8461h-0.76326v-1.8276q0-0.24298-0.10565-0.35126-0.10564-0.11092-0.35126-0.11092-0.32221 0-0.48331 0.27467v2.0151h-0.76327v-2.8576z"/>
</g>
<path d="m264.92-124.86h26.094c1.5901 0 2.8702 1.2801 2.8702 2.8702v16.347c0 1.5901-1.2801 2.8702-2.8702 2.8702h-26.094c-1.5901 0-2.8702-1.2801-2.8702-2.8702v-16.347c0-1.5901 1.2801-2.8702 2.8702-2.8702z" fill="#5676f0"/>
<path d="m281.83-111.5-1.9804 1.832 0.38649 2.67-2.3543-1.3173-2.4199 1.1926 0.5253-2.6462-1.882-1.9329 2.679-0.31812 1.2567-2.3872 1.1304 2.4496z" fill="none" stroke="#fff" stroke-linejoin="round" stroke-width=".40308"/>
<g fill="#fff" stroke-width=".26458" aria-label="Effect out">
<path d="m268.66-118.67h-1.5213v1.03h1.7854v0.63649h-2.5777v-3.8454h2.5724v0.64178h-1.7801v0.91645h1.5213z"/>
<path d="m269.51-117v-2.2977h-0.42521v-0.55991h0.42521v-0.24298q0-0.48067 0.27467-0.74478 0.27731-0.26674 0.77383-0.26674 0.15846 0 0.38824 0.0528l-8e-3 0.59159q-0.0951-0.0238-0.23241-0.0238-0.43049 0-0.43049 0.40408v0.22977h0.56782v0.55991h-0.56782v2.2977z"/>
<path d="m271.45-117v-2.2977h-0.42521v-0.55991h0.42521v-0.24298q0-0.48067 0.27467-0.74478 0.27731-0.26674 0.77383-0.26674 0.15847 0 0.38824 0.0528l-8e-3 0.59159q-0.0951-0.0238-0.23242-0.0238-0.43049 0-0.43049 0.40408v0.22977h0.56783v0.55991h-0.56783v2.2977z"/>
<path d="m274.44-116.95q-0.62857 0-1.0247-0.38559-0.39352-0.3856-0.39352-1.0274v-0.074q0-0.43049 0.16639-0.76855 0.16639-0.34069 0.47011-0.52293 0.30636-0.18487 0.69724-0.18487 0.58632 0 0.92173 0.36975 0.33806 0.36975 0.33806 1.0485v0.31165h-1.8197q0.037 0.27995 0.22185 0.44898 0.18752 0.16903 0.47275 0.16903 0.44106 0 0.68932-0.31957l0.37503 0.41993q-0.17167 0.24297-0.46482 0.38031-0.29316 0.13469-0.64971 0.13469zm-0.0872-2.3453q-0.22713 0-0.36975 0.15318-0.13998 0.15318-0.17959 0.43842h1.0617v-0.0607q-5e-3 -0.25354-0.13734-0.39088-0.13205-0.13997-0.37503-0.13997z"/>
<path d="m277.24-117.57q0.21129 0 0.34334-0.11621t0.13734-0.30901h0.71572q-3e-3 0.29052-0.15846 0.5335-0.15582 0.24034-0.42785 0.37503-0.26939 0.13205-0.59688 0.13205-0.61273 0-0.96663-0.38823-0.3539-0.39088-0.3539-1.0776v-0.0502q0-0.66026 0.35126-1.0538t0.96398-0.39352q0.53614 0 0.85835 0.30636 0.32485 0.30373 0.33013 0.81081h-0.71572q-5e-3 -0.22185-0.13734-0.35919-0.13205-0.13997-0.34862-0.13997-0.26675 0-0.40408 0.19544-0.1347 0.19279-0.1347 0.62857v0.0792q0 0.44106 0.1347 0.63386 0.13469 0.1928 0.40936 0.1928z"/>
<path d="m279.79-120.56v0.70252h0.48859v0.55991h-0.48859v1.4262q0 0.15846 0.0607 0.22713 0.0608 0.0687 0.23242 0.0687 0.12677 0 0.22449-0.0185v0.5784q-0.22449 0.0687-0.46219 0.0687-0.80288 0-0.81873-0.8108v-1.5397h-0.41729v-0.55991h0.41729v-0.70252z"/>
<path d="m281.93-118.46q0-0.42522 0.16375-0.75799 0.16374-0.33277 0.47011-0.51501 0.309-0.18223 0.71573-0.18223 0.57839 0 0.94286 0.3539 0.3671 0.3539 0.40936 0.96135l5e-3 0.19544q0 0.65762-0.3671 1.0564-0.36711 0.39616-0.98512 0.39616t-0.98776-0.39616q-0.36711-0.39616-0.36711-1.0776zm0.76327 0.0555q0 0.40672 0.15318 0.62329 0.15318 0.21393 0.43842 0.21393 0.27731 0 0.43313-0.21129 0.15583-0.21393 0.15583-0.68139 0-0.3988-0.15583-0.61801-0.15582-0.21921-0.43841-0.21921-0.27996 0-0.43314 0.21921-0.15318 0.21656-0.15318 0.67347z"/>
<path d="m286.83-117.29q-0.2826 0.34333-0.78176 0.34333-0.45954 0-0.70252-0.2641-0.24034-0.26411-0.24562-0.77383v-1.8725h0.76327v1.8461q0 0.44634 0.40672 0.44634 0.38824 0 0.53349-0.26938v-2.0231h0.76591v2.8576h-0.71837z"/>
<path d="m289.06-120.56v0.70252h0.4886v0.55991h-0.4886v1.4262q0 0.15846 0.0607 0.22713 0.0607 0.0687 0.23241 0.0687 0.12677 0 0.22449-0.0185v0.5784q-0.22449 0.0687-0.46218 0.0687-0.80289 0-0.81873-0.8108v-1.5397h-0.41729v-0.55991h0.41729v-0.70252z"/>
</g>
<path d="m284.82-80.836 4.2762-5.2288-1.3364-24.33h-5.8797l-1.3364 24.33z" fill="url(#b)"/>
</g>
</svg>
