<?xml version="1.0" encoding="UTF-8"?>
<svg width="72.658mm" height="58.622mm" version="1.1" viewBox="0 0 72.658 58.622" xmlns="http://www.w3.org/2000/svg" xmlns:cc="http://creativecommons.org/ns#" xmlns:dc="http://purl.org/dc/elements/1.1/" xmlns:rdf="http://www.w3.org/1999/02/22-rdf-syntax-ns#">
<g transform="translate(-209.25 -153.15)">
<g transform="matrix(1.9295 0 0 1.9295 1863.2 -364.04)" fill="#fff">
<path d="m-838.36 272.82c-5.5764 0-10.104 4.6256-10.104 10.41-3e-5 5.7846 4.5274 10.412 10.104 10.412 5.5763 0 10.103-4.6271 10.103-10.412 0-5.7846-4.5269-10.41-10.103-10.41zm-10.165 2.543a24.649 29.646 0 0 0-8.663 7.8455 24.649 29.646 0 0 0 8.6294 7.845c-1.6019-2.1851-2.5518-4.8961-2.5518-7.8233 0-2.9473 0.96348-5.6748 2.5854-7.8672zm20.364 0.0455c1.6014 2.1845 2.5502 4.8951 2.5502 7.8218 0 2.9475-0.96321 5.6754-2.5854 7.8682a24.649 29.646 0 0 0 8.6635-7.8455 24.649 29.646 0 0 0-8.6284-7.8445zm-10.199 1.7534a6.1689 6.0692 0 0 1 6.1686 6.0689 6.1689 6.0692 0 0 1-6.1686 6.0694 6.1689 6.0692 0 0 1-6.1691-6.0694 6.1689 6.0692 0 0 1 6.1691-6.0689z"/>
<ellipse cx="-838.36" cy="283.23" rx="3.6298" ry="3.5711"/>
</g>
</g>
</svg>
