<?xml version="1.0" encoding="UTF-8" standalone="no"?>
<!-- Created with Inkscape (http://www.inkscape.org/) -->

<svg
   xmlns:dc="http://purl.org/dc/elements/1.1/"
   xmlns:cc="http://creativecommons.org/ns#"
   xmlns:rdf="http://www.w3.org/1999/02/22-rdf-syntax-ns#"
   xmlns:svg="http://www.w3.org/2000/svg"
   xmlns="http://www.w3.org/2000/svg"
   xmlns:xlink="http://www.w3.org/1999/xlink"
   xmlns:sodipodi="http://sodipodi.sourceforge.net/DTD/sodipodi-0.dtd"
   xmlns:inkscape="http://www.inkscape.org/namespaces/inkscape"
   width="130.89868mm"
   height="80.410431mm"
   viewBox="0 0 130.89868 80.410431"
   version="1.1"
   id="svg4084"
   inkscape:version="0.92.5 (2060ec1f9f, 2020-04-08)"
   sodipodi:docname="Stepview dragging.svg">
  <defs
     id="defs4078">
    <linearGradient
       inkscape:collect="always"
       xlink:href="#linearGradient1250"
       id="linearGradient1256"
       gradientUnits="userSpaceOnUse"
       gradientTransform="matrix(-1,0,0,-1.2167541,-655.29798,-562.16225)"
       x1="-940.12054"
       y1="-385.64359"
       x2="-939.74255"
       y2="-372.92221" />
    <linearGradient
       inkscape:collect="always"
       id="linearGradient1250">
      <stop
         style="stop-color:#aad400;stop-opacity:1;"
         offset="0"
         id="stop1246" />
      <stop
         style="stop-color:#aad400;stop-opacity:0;"
         offset="1"
         id="stop1248" />
    </linearGradient>
    <linearGradient
       inkscape:collect="always"
       xlink:href="#linearGradient1250"
       id="linearGradient1252"
       x1="-940.12054"
       y1="-388.43936"
       x2="-940.12054"
       y2="-373.69882"
       gradientUnits="userSpaceOnUse"
       gradientTransform="matrix(1,0,0,1.2167541,1123.2506,320.07888)" />
  </defs>
  <sodipodi:namedview
     id="base"
     pagecolor="#ffffff"
     bordercolor="#666666"
     borderopacity="1.0"
     inkscape:pageopacity="0.0"
     inkscape:pageshadow="2"
     inkscape:zoom="0.35"
     inkscape:cx="711.65332"
     inkscape:cy="-25.186144"
     inkscape:document-units="mm"
     inkscape:current-layer="layer1"
     showgrid="false"
     fit-margin-top="0"
     fit-margin-left="0"
     fit-margin-right="0"
     fit-margin-bottom="0"
     inkscape:window-width="2560"
     inkscape:window-height="1377"
     inkscape:window-x="1912"
     inkscape:window-y="-8"
     inkscape:window-maximized="1" />
  <metadata
     id="metadata4081">
    <rdf:RDF>
      <cc:Work
         rdf:about="">
        <dc:format>image/svg+xml</dc:format>
        <dc:type
           rdf:resource="http://purl.org/dc/dcmitype/StillImage" />
        <dc:title></dc:title>
      </cc:Work>
    </rdf:RDF>
  </metadata>
  <g
     inkscape:label="Ebene 1"
     inkscape:groupmode="layer"
     id="layer1"
     transform="translate(-168.13994,161.24688)">
    <path
       style="opacity:1;vector-effect:none;fill:#444444;fill-opacity:1;stroke:#00ccff;stroke-width:0.56500006;stroke-linecap:butt;stroke-linejoin:miter;stroke-miterlimit:4;stroke-dasharray:none;stroke-dashoffset:0;stroke-opacity:1"
       d="m 174.6929,-139.44318 h 124.06322 v 33.07293 H 174.6929 Z"
       id="rect4029" />
    <g
       aria-label="3"
       style="font-style:normal;font-weight:normal;font-size:13.68799305px;line-height:1.25;font-family:sans-serif;letter-spacing:0px;word-spacing:0px;fill:#00cbfe;fill-opacity:1;stroke:none;stroke-width:0.26458332"
       id="text1083">
      <path
         d="m 182.87986,-124.22392 h 1.02927 q 0.73519,0 1.08942,-0.3676 0.35423,-0.3676 0.35423,-0.9758 0,-0.58816 -0.35423,-0.91566 -0.34754,-0.32749 -0.96243,-0.32749 -0.55474,0 -0.92902,0.30744 -0.37428,0.30076 -0.37428,0.78867 h -1.93156 q 0,-0.76193 0.4077,-1.36346 0.41438,-0.6082 1.14958,-0.94907 0.74187,-0.34086 1.63079,-0.34086 1.54391,0 2.41946,0.74188 0.87555,0.73519 0.87555,2.03181 0,0.66836 -0.4077,1.22978 -0.4077,0.56142 -1.06937,0.86218 0.82208,0.29408 1.22309,0.88224 0.4077,0.58815 0.4077,1.39019 0,1.29661 -0.94907,2.07859 -0.94238,0.78198 -2.49966,0.78198 -1.45702,0 -2.38604,-0.76861 -0.92234,-0.76861 -0.92234,-2.03181 h 1.93156 q 0,0.54805 0.4077,0.8956 0.41438,0.34755 1.01591,0.34755 0.68841,0 1.07605,-0.36092 0.39434,-0.3676 0.39434,-0.96912 0,-1.45702 -1.60407,-1.45702 h -1.02258 z"
         style="font-style:normal;font-variant:normal;font-weight:bold;font-stretch:normal;font-family:Roboto;-inkscape-font-specification:'Roboto Bold';fill:#00cbfe;fill-opacity:1;stroke-width:0.26458332"
         id="path4913" />
    </g>
    <path
       style="opacity:1;vector-effect:none;fill:url(#linearGradient1252);fill-opacity:1;stroke:none;stroke-width:0.96499997;stroke-linecap:butt;stroke-linejoin:miter;stroke-miterlimit:4;stroke-dasharray:none;stroke-dashoffset:0;stroke-opacity:1"
       d="m 183.13024,-161.24688 -4.27622,5.22878 1.33635,24.33003 h 5.87973 l 1.33636,-24.33003 z"
       id="rect1240"
       inkscape:connector-curvature="0"
       sodipodi:nodetypes="cccccc" />
    <g
       aria-label="drag a complete step to a new position, or..."
       style="font-style:normal;font-variant:normal;font-weight:normal;font-stretch:normal;font-size:4.43554258px;line-height:1.25;font-family:Roboto;-inkscape-font-specification:Roboto;text-align:start;letter-spacing:0px;word-spacing:0px;text-anchor:start;fill:#ffffff;fill-opacity:1;stroke:none;stroke-width:0.26458329"
       id="text1260">
      <path
         d="m 192.48746,-151.3074 q 0,-0.53928 0.25556,-0.86631 0.25557,-0.3292 0.66923,-0.3292 0.4115,0 0.6519,0.28155 v -1.22151 h 0.40068 v 3.32666 h -0.36819 l -0.0195,-0.25123 q -0.2404,0.29454 -0.66923,0.29454 -0.40717,0 -0.6649,-0.33353 -0.25556,-0.33353 -0.25556,-0.87065 z m 0.40067,0.0455 q 0,0.39851 0.1646,0.62375 0.1646,0.22525 0.45482,0.22525 0.38118,0 0.5566,-0.3422 v -1.0764 q -0.17976,-0.33136 -0.55227,-0.33136 -0.29455,0 -0.45915,0.2274 -0.1646,0.22741 -0.1646,0.67356 z"
         style="font-style:normal;font-variant:normal;font-weight:normal;font-stretch:normal;font-family:Roboto;-inkscape-font-specification:Roboto;text-align:start;text-anchor:start;fill:#ffffff;stroke:none;stroke-width:0.26458329"
         id="path4838" />
      <path
         d="m 196.22128,-152.10008 q -0.091,-0.0152 -0.19708,-0.0152 -0.39418,0 -0.53495,0.3357 v 1.66333 h -0.40068 v -2.34339 h 0.38985 l 0.006,0.27073 q 0.19709,-0.31404 0.55878,-0.31404 0.11695,0 0.17759,0.0303 z"
         style="font-style:normal;font-variant:normal;font-weight:normal;font-stretch:normal;font-family:Roboto;-inkscape-font-specification:Roboto;text-align:start;text-anchor:start;fill:#ffffff;stroke:none;stroke-width:0.26458329"
         id="path4840" />
      <path
         d="m 197.94742,-150.11621 q -0.0346,-0.0693 -0.0563,-0.2469 -0.27939,0.29021 -0.66706,0.29021 -0.34653,0 -0.56961,-0.19492 -0.22091,-0.19708 -0.22091,-0.49813 0,-0.36602 0.27722,-0.56744 0.27939,-0.20358 0.78402,-0.20358 h 0.38984 v -0.18409 q 0,-0.21008 -0.12561,-0.33354 -0.12562,-0.12561 -0.37035,-0.12561 -0.21442,0 -0.35953,0.10829 -0.1451,0.10829 -0.1451,0.26206 h -0.40284 q 0,-0.17543 0.12345,-0.33786 0.12562,-0.1646 0.33786,-0.2599 0.21442,-0.0953 0.46998,-0.0953 0.405,0 0.63458,0.20358 0.22957,0.20142 0.23823,0.55661 v 1.07856 q 0,0.32271 0.0823,0.5133 v 0.0346 z m -0.6649,-0.30538 q 0.18843,0 0.35736,-0.0975 0.16893,-0.0975 0.24473,-0.2534 v -0.4808 h -0.31404 q -0.73637,0 -0.73637,0.43099 0,0.18842 0.12562,0.29455 0.12562,0.10612 0.3227,0.10612 z"
         style="font-style:normal;font-variant:normal;font-weight:normal;font-stretch:normal;font-family:Roboto;-inkscape-font-specification:Roboto;text-align:start;text-anchor:start;fill:#ffffff;stroke:none;stroke-width:0.26458329"
         id="path4842" />
      <path
         d="m 198.8224,-151.3074 q 0,-0.54794 0.2534,-0.87065 0.2534,-0.32486 0.67139,-0.32486 0.42883,0 0.66923,0.30321 l 0.0195,-0.2599 h 0.36601 v 2.28708 q 0,0.45481 -0.27072,0.71688 -0.26856,0.26206 -0.72337,0.26206 -0.2534,0 -0.49597,-0.10829 -0.24257,-0.10829 -0.37035,-0.29672 l 0.20792,-0.2404 q 0.25772,0.31837 0.63024,0.31837 0.29238,0 0.45482,-0.1646 0.1646,-0.1646 0.1646,-0.46348 v -0.20142 q -0.24041,0.27722 -0.65624,0.27722 -0.4115,0 -0.66706,-0.33136 -0.2534,-0.33137 -0.2534,-0.90314 z m 0.40284,0.0455 q 0,0.39634 0.16243,0.62375 0.16244,0.22525 0.45482,0.22525 0.37901,0 0.55661,-0.34437 v -1.0699 q -0.1841,-0.33569 -0.55228,-0.33569 -0.29238,0 -0.45698,0.2274 -0.1646,0.22741 -0.1646,0.67356 z"
         style="font-style:normal;font-variant:normal;font-weight:normal;font-stretch:normal;font-family:Roboto;-inkscape-font-specification:Roboto;text-align:start;text-anchor:start;fill:#ffffff;stroke:none;stroke-width:0.26458329"
         id="path4844" />
      <path
         d="m 203.951,-150.11621 q -0.0347,-0.0693 -0.0563,-0.2469 -0.27939,0.29021 -0.66707,0.29021 -0.34652,0 -0.5696,-0.19492 -0.22091,-0.19708 -0.22091,-0.49813 0,-0.36602 0.27722,-0.56744 0.27939,-0.20358 0.78402,-0.20358 h 0.38984 v -0.18409 q 0,-0.21008 -0.12562,-0.33354 -0.12561,-0.12561 -0.37035,-0.12561 -0.21441,0 -0.35952,0.10829 -0.14511,0.10829 -0.14511,0.26206 h -0.40283 q 0,-0.17543 0.12345,-0.33786 0.12561,-0.1646 0.33786,-0.2599 0.21441,-0.0953 0.46998,-0.0953 0.405,0 0.63457,0.20358 0.22958,0.20142 0.23824,0.55661 v 1.07856 q 0,0.32271 0.0823,0.5133 v 0.0346 z m -0.6649,-0.30538 q 0.18842,0 0.35735,-0.0975 0.16894,-0.0975 0.24474,-0.2534 v -0.4808 h -0.31404 q -0.73637,0 -0.73637,0.43099 0,0.18842 0.12562,0.29455 0.12561,0.10612 0.3227,0.10612 z"
         style="font-style:normal;font-variant:normal;font-weight:normal;font-stretch:normal;font-family:Roboto;-inkscape-font-specification:Roboto;text-align:start;text-anchor:start;fill:#ffffff;stroke:none;stroke-width:0.26458329"
         id="path4846" />
      <path
         d="m 206.96145,-150.39993 q 0.21441,0 0.37468,-0.12995 0.16027,-0.12994 0.17759,-0.32487 h 0.37902 q -0.0108,0.20142 -0.13861,0.38335 -0.12778,0.18193 -0.3422,0.29022 -0.21225,0.10828 -0.45048,0.10828 -0.47864,0 -0.76236,-0.31837 -0.28155,-0.32053 -0.28155,-0.87498 v -0.0671 q 0,-0.34219 0.12561,-0.60858 0.12562,-0.2664 0.35952,-0.41367 0.23607,-0.14727 0.55661,-0.14727 0.39418,0 0.65407,0.23607 0.26206,0.23607 0.27939,0.61292 h -0.37902 q -0.0173,-0.22741 -0.17326,-0.37252 -0.15377,-0.14727 -0.38118,-0.14727 -0.30538,0 -0.47431,0.22091 -0.16676,0.21874 -0.16676,0.63457 v 0.0758 q 0,0.405 0.16676,0.62375 0.16677,0.21874 0.47648,0.21874 z"
         style="font-style:normal;font-variant:normal;font-weight:normal;font-stretch:normal;font-family:Roboto;-inkscape-font-specification:Roboto;text-align:start;text-anchor:start;fill:#ffffff;stroke:none;stroke-width:0.26458329"
         id="path4848" />
      <path
         d="m 208.2371,-151.30956 q 0,-0.34436 0.13428,-0.61942 0.13644,-0.27505 0.37685,-0.42449 0.24257,-0.14944 0.55227,-0.14944 0.47864,0 0.77319,0.33136 0.29671,0.33137 0.29671,0.88148 v 0.0281 q 0,0.3422 -0.13211,0.61509 -0.12995,0.27072 -0.37468,0.42233 -0.24257,0.1516 -0.55877,0.1516 -0.47648,0 -0.77319,-0.33136 -0.29455,-0.33137 -0.29455,-0.87715 z m 0.40284,0.0476 q 0,0.38985 0.17976,0.62592 0.18192,0.23607 0.48514,0.23607 0.30537,0 0.48513,-0.23824 0.17976,-0.2404 0.17976,-0.67139 0,-0.38551 -0.18409,-0.62375 -0.18193,-0.2404 -0.48514,-0.2404 -0.29671,0 -0.47864,0.23607 -0.18192,0.23607 -0.18192,0.67572 z"
         style="font-style:normal;font-variant:normal;font-weight:normal;font-stretch:normal;font-family:Roboto;-inkscape-font-specification:Roboto;text-align:start;text-anchor:start;fill:#ffffff;stroke:none;stroke-width:0.26458329"
         id="path4850" />
      <path
         d="m 211.24972,-152.4596 0.0108,0.2599 q 0.25773,-0.30321 0.69522,-0.30321 0.49163,0 0.66923,0.37684 0.11695,-0.16893 0.30321,-0.27289 0.18842,-0.10395 0.44398,-0.10395 0.77103,0 0.78402,0.8165 v 1.5702 h -0.40067 v -1.54638 q 0,-0.25123 -0.11479,-0.37468 -0.11479,-0.12561 -0.38551,-0.12561 -0.22308,0 -0.37035,0.13427 -0.14727,0.13212 -0.1711,0.35736 v 1.55504 h -0.40283 v -1.53555 q 0,-0.51112 -0.5003,-0.51112 -0.39418,0 -0.53929,0.33569 v 1.71098 h -0.40067 v -2.34339 z"
         style="font-style:normal;font-variant:normal;font-weight:normal;font-stretch:normal;font-family:Roboto;-inkscape-font-specification:Roboto;text-align:start;text-anchor:start;fill:#ffffff;stroke:none;stroke-width:0.26458329"
         id="path4852" />
      <path
         d="m 216.74217,-151.26192 q 0,0.53496 -0.24474,0.86199 -0.24473,0.32703 -0.66273,0.32703 -0.42666,0 -0.6714,-0.27072 v 1.12838 h -0.40067 v -3.24436 h 0.36602 l 0.0195,0.2599 q 0.24474,-0.30321 0.68006,-0.30321 0.42233,0 0.66707,0.31837 0.2469,0.31837 0.2469,0.88581 z m -0.40068,-0.0455 q 0,-0.39634 -0.16893,-0.62591 -0.16893,-0.22957 -0.46348,-0.22957 -0.36385,0 -0.54578,0.3227 v 1.11971 q 0.17976,0.32054 0.55011,0.32054 0.28806,0 0.45699,-0.22741 0.17109,-0.22957 0.17109,-0.68006 z"
         style="font-style:normal;font-variant:normal;font-weight:normal;font-stretch:normal;font-family:Roboto;-inkscape-font-specification:Roboto;text-align:start;text-anchor:start;fill:#ffffff;stroke:none;stroke-width:0.26458329"
         id="path4854" />
      <path
         d="m 217.68429,-150.11621 h -0.40068 v -3.32666 h 0.40068 z"
         style="font-style:normal;font-variant:normal;font-weight:normal;font-stretch:normal;font-family:Roboto;-inkscape-font-specification:Roboto;text-align:start;text-anchor:start;fill:#ffffff;stroke:none;stroke-width:0.26458329"
         id="path4856" />
      <path
         d="m 219.29563,-150.0729 q -0.47647,0 -0.77535,-0.31187 -0.29888,-0.31404 -0.29888,-0.83816 v -0.0736 q 0,-0.34869 0.13212,-0.62158 0.13427,-0.27506 0.37251,-0.42883 0.2404,-0.15593 0.51979,-0.15593 0.45698,0 0.71038,0.30104 0.2534,0.30105 0.2534,0.86199 v 0.16676 h -1.58753 q 0.009,0.34653 0.20142,0.56094 0.19492,0.21225 0.4938,0.21225 0.21225,0 0.35952,-0.0866 0.14728,-0.0866 0.25773,-0.22958 l 0.24474,0.19059 q -0.29455,0.45265 -0.88365,0.45265 z m -0.0498,-2.10081 q -0.24257,0 -0.40717,0.17759 -0.1646,0.17543 -0.20358,0.4938 h 1.17386 v -0.0303 q -0.0173,-0.30538 -0.1646,-0.47214 -0.14728,-0.16893 -0.39851,-0.16893 z"
         style="font-style:normal;font-variant:normal;font-weight:normal;font-stretch:normal;font-family:Roboto;-inkscape-font-specification:Roboto;text-align:start;text-anchor:start;fill:#ffffff;stroke:none;stroke-width:0.26458329"
         id="path4858" />
      <path
         d="m 221.21453,-153.02704 v 0.56744 h 0.43749 v 0.30971 h -0.43749 v 1.45325 q 0,0.14077 0.0585,0.21224 0.0585,0.0693 0.19926,0.0693 0.0693,0 0.19059,-0.026 v 0.32487 q -0.15811,0.0433 -0.30755,0.0433 -0.26855,0 -0.405,-0.16243 -0.13644,-0.16243 -0.13644,-0.46131 v -1.45325 h -0.42667 v -0.30971 h 0.42667 v -0.56744 z"
         style="font-style:normal;font-variant:normal;font-weight:normal;font-stretch:normal;font-family:Roboto;-inkscape-font-specification:Roboto;text-align:start;text-anchor:start;fill:#ffffff;stroke:none;stroke-width:0.26458329"
         id="path4860" />
      <path
         d="m 223.0901,-150.0729 q -0.47647,0 -0.77535,-0.31187 -0.29888,-0.31404 -0.29888,-0.83816 v -0.0736 q 0,-0.34869 0.13211,-0.62158 0.13428,-0.27506 0.37252,-0.42883 0.2404,-0.15593 0.51979,-0.15593 0.45698,0 0.71038,0.30104 0.2534,0.30105 0.2534,0.86199 v 0.16676 h -1.58753 q 0.009,0.34653 0.20142,0.56094 0.19492,0.21225 0.4938,0.21225 0.21225,0 0.35952,-0.0866 0.14728,-0.0866 0.25773,-0.22958 l 0.24474,0.19059 q -0.29455,0.45265 -0.88365,0.45265 z m -0.0498,-2.10081 q -0.24257,0 -0.40717,0.17759 -0.1646,0.17543 -0.20358,0.4938 h 1.17386 v -0.0303 q -0.0173,-0.30538 -0.1646,-0.47214 -0.14728,-0.16893 -0.39851,-0.16893 z"
         style="font-style:normal;font-variant:normal;font-weight:normal;font-stretch:normal;font-family:Roboto;-inkscape-font-specification:Roboto;text-align:start;text-anchor:start;fill:#ffffff;stroke:none;stroke-width:0.26458329"
         id="path4862" />
      <path
         d="m 226.93005,-150.73779 q 0,-0.16244 -0.12345,-0.25124 -0.12128,-0.091 -0.42666,-0.15593 -0.30321,-0.065 -0.48297,-0.15594 -0.17759,-0.091 -0.26423,-0.21658 -0.0845,-0.12561 -0.0845,-0.29888 0,-0.28805 0.24257,-0.4873 0.24473,-0.19925 0.62375,-0.19925 0.3985,0 0.6454,0.20575 0.24907,0.20575 0.24907,0.52628 h -0.40284 q 0,-0.1646 -0.14078,-0.28372 -0.13861,-0.11911 -0.35085,-0.11911 -0.21875,0 -0.3422,0.0953 -0.12345,0.0953 -0.12345,0.24907 0,0.14511 0.11479,0.21874 0.11478,0.0736 0.41366,0.14078 0.30105,0.0671 0.48731,0.16027 0.18625,0.0931 0.27505,0.22524 0.091,0.12995 0.091,0.31837 0,0.31404 -0.25124,0.50463 -0.25123,0.18842 -0.6519,0.18842 -0.28155,0 -0.49813,-0.0996 -0.21658,-0.0996 -0.34003,-0.27722 -0.12129,-0.17976 -0.12129,-0.38768 h 0.40068 q 0.0108,0.20142 0.16026,0.32054 0.15161,0.11695 0.39851,0.11695 0.22741,0 0.36385,-0.091 0.13861,-0.0931 0.13861,-0.2469 z"
         style="font-style:normal;font-variant:normal;font-weight:normal;font-stretch:normal;font-family:Roboto;-inkscape-font-specification:Roboto;text-align:start;text-anchor:start;fill:#ffffff;stroke:none;stroke-width:0.26458329"
         id="path4864" />
      <path
         d="m 228.39629,-153.02704 v 0.56744 h 0.43749 v 0.30971 h -0.43749 v 1.45325 q 0,0.14077 0.0585,0.21224 0.0585,0.0693 0.19925,0.0693 0.0693,0 0.19059,-0.026 v 0.32487 q -0.1581,0.0433 -0.30754,0.0433 -0.26856,0 -0.405,-0.16243 -0.13645,-0.16243 -0.13645,-0.46131 v -1.45325 h -0.42666 v -0.30971 h 0.42666 v -0.56744 z"
         style="font-style:normal;font-variant:normal;font-weight:normal;font-stretch:normal;font-family:Roboto;-inkscape-font-specification:Roboto;text-align:start;text-anchor:start;fill:#ffffff;stroke:none;stroke-width:0.26458329"
         id="path4866" />
      <path
         d="m 230.27187,-150.0729 q -0.47647,0 -0.77535,-0.31187 -0.29888,-0.31404 -0.29888,-0.83816 v -0.0736 q 0,-0.34869 0.13211,-0.62158 0.13428,-0.27506 0.37252,-0.42883 0.2404,-0.15593 0.51979,-0.15593 0.45698,0 0.71038,0.30104 0.2534,0.30105 0.2534,0.86199 v 0.16676 h -1.58753 q 0.009,0.34653 0.20142,0.56094 0.19492,0.21225 0.4938,0.21225 0.21225,0 0.35952,-0.0866 0.14727,-0.0866 0.25773,-0.22958 l 0.24473,0.19059 q -0.29454,0.45265 -0.88364,0.45265 z m -0.0498,-2.10081 q -0.24257,0 -0.40717,0.17759 -0.1646,0.17543 -0.20359,0.4938 h 1.17386 v -0.0303 q -0.0173,-0.30538 -0.1646,-0.47214 -0.14727,-0.16893 -0.3985,-0.16893 z"
         style="font-style:normal;font-variant:normal;font-weight:normal;font-stretch:normal;font-family:Roboto;-inkscape-font-specification:Roboto;text-align:start;text-anchor:start;fill:#ffffff;stroke:none;stroke-width:0.26458329"
         id="path4868" />
      <path
         d="m 233.62668,-151.26192 q 0,0.53496 -0.24473,0.86199 -0.24474,0.32703 -0.66273,0.32703 -0.42667,0 -0.6714,-0.27072 v 1.12838 h -0.40067 v -3.24436 h 0.36602 l 0.0195,0.2599 q 0.24473,-0.30321 0.68006,-0.30321 0.42233,0 0.66706,0.31837 0.2469,0.31837 0.2469,0.88581 z m -0.40067,-0.0455 q 0,-0.39634 -0.16893,-0.62591 -0.16893,-0.22957 -0.46348,-0.22957 -0.36385,0 -0.54578,0.3227 v 1.11971 q 0.17976,0.32054 0.55011,0.32054 0.28805,0 0.45698,-0.22741 0.1711,-0.22957 0.1711,-0.68006 z"
         style="font-style:normal;font-variant:normal;font-weight:normal;font-stretch:normal;font-family:Roboto;-inkscape-font-specification:Roboto;text-align:start;text-anchor:start;fill:#ffffff;stroke:none;stroke-width:0.26458329"
         id="path4870" />
      <path
         d="m 235.77731,-153.02704 v 0.56744 h 0.43749 v 0.30971 h -0.43749 v 1.45325 q 0,0.14077 0.0585,0.21224 0.0585,0.0693 0.19925,0.0693 0.0693,0 0.19059,-0.026 v 0.32487 q -0.1581,0.0433 -0.30754,0.0433 -0.26856,0 -0.405,-0.16243 -0.13645,-0.16243 -0.13645,-0.46131 v -1.45325 h -0.42666 v -0.30971 h 0.42666 v -0.56744 z"
         style="font-style:normal;font-variant:normal;font-weight:normal;font-stretch:normal;font-family:Roboto;-inkscape-font-specification:Roboto;text-align:start;text-anchor:start;fill:#ffffff;stroke:none;stroke-width:0.26458329"
         id="path4872" />
      <path
         d="m 236.53101,-151.30956 q 0,-0.34436 0.13428,-0.61942 0.13644,-0.27505 0.37685,-0.42449 0.24257,-0.14944 0.55227,-0.14944 0.47864,0 0.77319,0.33136 0.29672,0.33137 0.29672,0.88148 v 0.0281 q 0,0.3422 -0.13212,0.61509 -0.12995,0.27072 -0.37468,0.42233 -0.24257,0.1516 -0.55877,0.1516 -0.47648,0 -0.77319,-0.33136 -0.29455,-0.33137 -0.29455,-0.87715 z m 0.40284,0.0476 q 0,0.38985 0.17976,0.62592 0.18193,0.23607 0.48514,0.23607 0.30537,0 0.48513,-0.23824 0.17976,-0.2404 0.17976,-0.67139 0,-0.38551 -0.18409,-0.62375 -0.18192,-0.2404 -0.48514,-0.2404 -0.29671,0 -0.47864,0.23607 -0.18192,0.23607 -0.18192,0.67572 z"
         style="font-style:normal;font-variant:normal;font-weight:normal;font-stretch:normal;font-family:Roboto;-inkscape-font-specification:Roboto;text-align:start;text-anchor:start;fill:#ffffff;stroke:none;stroke-width:0.26458329"
         id="path4874" />
      <path
         d="m 241.71375,-150.11621 q -0.0346,-0.0693 -0.0563,-0.2469 -0.27939,0.29021 -0.66706,0.29021 -0.34653,0 -0.56961,-0.19492 -0.22091,-0.19708 -0.22091,-0.49813 0,-0.36602 0.27722,-0.56744 0.27939,-0.20358 0.78402,-0.20358 h 0.38984 v -0.18409 q 0,-0.21008 -0.12561,-0.33354 -0.12562,-0.12561 -0.37035,-0.12561 -0.21442,0 -0.35952,0.10829 -0.14511,0.10829 -0.14511,0.26206 h -0.40284 q 0,-0.17543 0.12345,-0.33786 0.12562,-0.1646 0.33786,-0.2599 0.21442,-0.0953 0.46998,-0.0953 0.405,0 0.63458,0.20358 0.22957,0.20142 0.23823,0.55661 v 1.07856 q 0,0.32271 0.0823,0.5133 v 0.0346 z m -0.6649,-0.30538 q 0.18843,0 0.35736,-0.0975 0.16893,-0.0975 0.24473,-0.2534 v -0.4808 h -0.31404 q -0.73637,0 -0.73637,0.43099 0,0.18842 0.12562,0.29455 0.12562,0.10612 0.3227,0.10612 z"
         style="font-style:normal;font-variant:normal;font-weight:normal;font-stretch:normal;font-family:Roboto;-inkscape-font-specification:Roboto;text-align:start;text-anchor:start;fill:#ffffff;stroke:none;stroke-width:0.26458329"
         id="path4876" />
      <path
         d="m 244.16326,-152.4596 0.013,0.29455 q 0.26855,-0.33786 0.70171,-0.33786 0.74287,0 0.74937,0.83816 v 1.54854 h -0.40067 v -1.55071 q -0.002,-0.2534 -0.11696,-0.37468 -0.11262,-0.12128 -0.35302,-0.12128 -0.19492,0 -0.3422,0.10395 -0.14727,0.10396 -0.22957,0.27289 v 1.66983 h -0.40067 v -2.34339 z"
         style="font-style:normal;font-variant:normal;font-weight:normal;font-stretch:normal;font-family:Roboto;-inkscape-font-specification:Roboto;text-align:start;text-anchor:start;fill:#ffffff;stroke:none;stroke-width:0.26458329"
         id="path4878" />
      <path
         d="m 247.20836,-150.0729 q -0.47647,0 -0.77535,-0.31187 -0.29888,-0.31404 -0.29888,-0.83816 v -0.0736 q 0,-0.34869 0.13211,-0.62158 0.13428,-0.27506 0.37252,-0.42883 0.2404,-0.15593 0.51979,-0.15593 0.45698,0 0.71038,0.30104 0.2534,0.30105 0.2534,0.86199 v 0.16676 h -1.58753 q 0.009,0.34653 0.20142,0.56094 0.19492,0.21225 0.4938,0.21225 0.21225,0 0.35952,-0.0866 0.14728,-0.0866 0.25773,-0.22958 l 0.24474,0.19059 q -0.29455,0.45265 -0.88365,0.45265 z m -0.0498,-2.10081 q -0.24257,0 -0.40717,0.17759 -0.1646,0.17543 -0.20358,0.4938 h 1.17386 v -0.0303 q -0.0173,-0.30538 -0.1646,-0.47214 -0.14728,-0.16893 -0.39851,-0.16893 z"
         style="font-style:normal;font-variant:normal;font-weight:normal;font-stretch:normal;font-family:Roboto;-inkscape-font-specification:Roboto;text-align:start;text-anchor:start;fill:#ffffff;stroke:none;stroke-width:0.26458329"
         id="path4880" />
      <path
         d="m 250.65847,-150.66849 0.45049,-1.79111 h 0.40067 l -0.68222,2.34339 h -0.32487 l -0.56961,-1.77595 -0.55444,1.77595 h -0.32487 l -0.68006,-2.34339 h 0.39851 l 0.46131,1.75429 0.54578,-1.75429 h 0.3227 z"
         style="font-style:normal;font-variant:normal;font-weight:normal;font-stretch:normal;font-family:Roboto;-inkscape-font-specification:Roboto;text-align:start;text-anchor:start;fill:#ffffff;stroke:none;stroke-width:0.26458329"
         id="path4882" />
      <path
         d="m 254.99872,-151.26192 q 0,0.53496 -0.24473,0.86199 -0.24474,0.32703 -0.66274,0.32703 -0.42666,0 -0.67139,-0.27072 v 1.12838 h -0.40067 v -3.24436 h 0.36602 l 0.0195,0.2599 q 0.24473,-0.30321 0.68006,-0.30321 0.42233,0 0.66706,0.31837 0.2469,0.31837 0.2469,0.88581 z m -0.40067,-0.0455 q 0,-0.39634 -0.16893,-0.62591 -0.16893,-0.22957 -0.46348,-0.22957 -0.36385,0 -0.54578,0.3227 v 1.11971 q 0.17976,0.32054 0.55011,0.32054 0.28805,0 0.45698,-0.22741 0.1711,-0.22957 0.1711,-0.68006 z"
         style="font-style:normal;font-variant:normal;font-weight:normal;font-stretch:normal;font-family:Roboto;-inkscape-font-specification:Roboto;text-align:start;text-anchor:start;fill:#ffffff;stroke:none;stroke-width:0.26458329"
         id="path4884" />
      <path
         d="m 255.39939,-151.30956 q 0,-0.34436 0.13428,-0.61942 0.13645,-0.27505 0.37685,-0.42449 0.24257,-0.14944 0.55228,-0.14944 0.47864,0 0.77318,0.33136 0.29672,0.33137 0.29672,0.88148 v 0.0281 q 0,0.3422 -0.13212,0.61509 -0.12994,0.27072 -0.37468,0.42233 -0.24257,0.1516 -0.55877,0.1516 -0.47648,0 -0.77319,-0.33136 -0.29455,-0.33137 -0.29455,-0.87715 z m 0.40284,0.0476 q 0,0.38985 0.17976,0.62592 0.18193,0.23607 0.48514,0.23607 0.30537,0 0.48513,-0.23824 0.17977,-0.2404 0.17977,-0.67139 0,-0.38551 -0.1841,-0.62375 -0.18192,-0.2404 -0.48513,-0.2404 -0.29672,0 -0.47864,0.23607 -0.18193,0.23607 -0.18193,0.67572 z"
         style="font-style:normal;font-variant:normal;font-weight:normal;font-stretch:normal;font-family:Roboto;-inkscape-font-specification:Roboto;text-align:start;text-anchor:start;fill:#ffffff;stroke:none;stroke-width:0.26458329"
         id="path4886" />
      <path
         d="m 259.39961,-150.73779 q 0,-0.16244 -0.12345,-0.25124 -0.12129,-0.091 -0.42666,-0.15593 -0.30321,-0.065 -0.48297,-0.15594 -0.1776,-0.091 -0.26423,-0.21658 -0.0845,-0.12561 -0.0845,-0.29888 0,-0.28805 0.24257,-0.4873 0.24474,-0.19925 0.62375,-0.19925 0.39851,0 0.64541,0.20575 0.24906,0.20575 0.24906,0.52628 h -0.40283 q 0,-0.1646 -0.14078,-0.28372 -0.13861,-0.11911 -0.35086,-0.11911 -0.21874,0 -0.34219,0.0953 -0.12345,0.0953 -0.12345,0.24907 0,0.14511 0.11478,0.21874 0.11479,0.0736 0.41367,0.14078 0.30104,0.0671 0.4873,0.16027 0.18626,0.0931 0.27506,0.22524 0.091,0.12995 0.091,0.31837 0,0.31404 -0.25123,0.50463 -0.25123,0.18842 -0.6519,0.18842 -0.28156,0 -0.49814,-0.0996 -0.21658,-0.0996 -0.34003,-0.27722 -0.12128,-0.17976 -0.12128,-0.38768 h 0.40067 q 0.0108,0.20142 0.16027,0.32054 0.1516,0.11695 0.39851,0.11695 0.2274,0 0.36385,-0.091 0.13861,-0.0931 0.13861,-0.2469 z"
         style="font-style:normal;font-variant:normal;font-weight:normal;font-stretch:normal;font-family:Roboto;-inkscape-font-specification:Roboto;text-align:start;text-anchor:start;fill:#ffffff;stroke:none;stroke-width:0.26458329"
         id="path4888" />
      <path
         d="m 260.75756,-150.11621 h -0.40067 v -2.34339 h 0.40067 z m -0.43316,-2.96497 q 0,-0.0975 0.0585,-0.1646 0.0606,-0.0671 0.1776,-0.0671 0.11695,0 0.17759,0.0671 0.0606,0.0671 0.0606,0.1646 0,0.0975 -0.0606,0.16243 -0.0606,0.065 -0.17759,0.065 -0.11696,0 -0.1776,-0.065 -0.0585,-0.065 -0.0585,-0.16243 z"
         style="font-style:normal;font-variant:normal;font-weight:normal;font-stretch:normal;font-family:Roboto;-inkscape-font-specification:Roboto;text-align:start;text-anchor:start;fill:#ffffff;stroke:none;stroke-width:0.26458329"
         id="path4890" />
      <path
         d="m 261.94009,-153.02704 v 0.56744 h 0.43749 v 0.30971 h -0.43749 v 1.45325 q 0,0.14077 0.0585,0.21224 0.0585,0.0693 0.19926,0.0693 0.0693,0 0.19059,-0.026 v 0.32487 q -0.15811,0.0433 -0.30755,0.0433 -0.26856,0 -0.405,-0.16243 -0.13645,-0.16243 -0.13645,-0.46131 v -1.45325 h -0.42666 v -0.30971 h 0.42666 v -0.56744 z"
         style="font-style:normal;font-variant:normal;font-weight:normal;font-stretch:normal;font-family:Roboto;-inkscape-font-specification:Roboto;text-align:start;text-anchor:start;fill:#ffffff;stroke:none;stroke-width:0.26458329"
         id="path4892" />
      <path
         d="m 263.27854,-150.11621 h -0.40067 v -2.34339 h 0.40067 z m -0.43315,-2.96497 q 0,-0.0975 0.0585,-0.1646 0.0606,-0.0671 0.1776,-0.0671 0.11695,0 0.17759,0.0671 0.0606,0.0671 0.0606,0.1646 0,0.0975 -0.0606,0.16243 -0.0606,0.065 -0.17759,0.065 -0.11696,0 -0.1776,-0.065 -0.0585,-0.065 -0.0585,-0.16243 z"
         style="font-style:normal;font-variant:normal;font-weight:normal;font-stretch:normal;font-family:Roboto;-inkscape-font-specification:Roboto;text-align:start;text-anchor:start;fill:#ffffff;stroke:none;stroke-width:0.26458329"
         id="path4894" />
      <path
         d="m 263.81133,-151.30956 q 0,-0.34436 0.13428,-0.61942 0.13644,-0.27505 0.37685,-0.42449 0.24257,-0.14944 0.55227,-0.14944 0.47864,0 0.77319,0.33136 0.29672,0.33137 0.29672,0.88148 v 0.0281 q 0,0.3422 -0.13212,0.61509 -0.12995,0.27072 -0.37468,0.42233 -0.24257,0.1516 -0.55877,0.1516 -0.47648,0 -0.77319,-0.33136 -0.29455,-0.33137 -0.29455,-0.87715 z m 0.40284,0.0476 q 0,0.38985 0.17976,0.62592 0.18192,0.23607 0.48514,0.23607 0.30537,0 0.48513,-0.23824 0.17976,-0.2404 0.17976,-0.67139 0,-0.38551 -0.18409,-0.62375 -0.18193,-0.2404 -0.48514,-0.2404 -0.29671,0 -0.47864,0.23607 -0.18192,0.23607 -0.18192,0.67572 z"
         style="font-style:normal;font-variant:normal;font-weight:normal;font-stretch:normal;font-family:Roboto;-inkscape-font-specification:Roboto;text-align:start;text-anchor:start;fill:#ffffff;stroke:none;stroke-width:0.26458329"
         id="path4896" />
      <path
         d="m 266.82611,-152.4596 0.013,0.29455 q 0.26856,-0.33786 0.70172,-0.33786 0.74286,0 0.74936,0.83816 v 1.54854 h -0.40067 v -1.55071 q -0.002,-0.2534 -0.11695,-0.37468 -0.11263,-0.12128 -0.35303,-0.12128 -0.19492,0 -0.34219,0.10395 -0.14728,0.10396 -0.22958,0.27289 v 1.66983 h -0.40067 v -2.34339 z"
         style="font-style:normal;font-variant:normal;font-weight:normal;font-stretch:normal;font-family:Roboto;-inkscape-font-specification:Roboto;text-align:start;text-anchor:start;fill:#ffffff;stroke:none;stroke-width:0.26458329"
         id="path4898" />
      <path
         d="m 268.88578,-149.48813 -0.22741,-0.15594 q 0.20359,-0.28372 0.21225,-0.58476 v -0.36169 h 0.39201 v 0.31404 q 0,0.21875 -0.10829,0.43749 -0.10612,0.21875 -0.26856,0.35086 z"
         style="font-style:normal;font-variant:normal;font-weight:normal;font-stretch:normal;font-family:Roboto;-inkscape-font-specification:Roboto;text-align:start;text-anchor:start;fill:#ffffff;stroke:none;stroke-width:0.26458329"
         id="path4900" />
      <path
         d="m 270.76786,-151.30956 q 0,-0.34436 0.13428,-0.61942 0.13644,-0.27505 0.37684,-0.42449 0.24257,-0.14944 0.55228,-0.14944 0.47864,0 0.77319,0.33136 0.29671,0.33137 0.29671,0.88148 v 0.0281 q 0,0.3422 -0.13211,0.61509 -0.12995,0.27072 -0.37468,0.42233 -0.24257,0.1516 -0.55878,0.1516 -0.47647,0 -0.77318,-0.33136 -0.29455,-0.33137 -0.29455,-0.87715 z m 0.40283,0.0476 q 0,0.38985 0.17977,0.62592 0.18192,0.23607 0.48513,0.23607 0.30538,0 0.48514,-0.23824 0.17976,-0.2404 0.17976,-0.67139 0,-0.38551 -0.18409,-0.62375 -0.18193,-0.2404 -0.48514,-0.2404 -0.29671,0 -0.47864,0.23607 -0.18193,0.23607 -0.18193,0.67572 z"
         style="font-style:normal;font-variant:normal;font-weight:normal;font-stretch:normal;font-family:Roboto;-inkscape-font-specification:Roboto;text-align:start;text-anchor:start;fill:#ffffff;stroke:none;stroke-width:0.26458329"
         id="path4902" />
      <path
         d="m 274.53633,-152.10008 q -0.091,-0.0152 -0.19709,-0.0152 -0.39417,0 -0.53495,0.3357 v 1.66333 h -0.40067 v -2.34339 h 0.38984 l 0.007,0.27073 q 0.19709,-0.31404 0.55878,-0.31404 0.11695,0 0.17759,0.0303 z"
         style="font-style:normal;font-variant:normal;font-weight:normal;font-stretch:normal;font-family:Roboto;-inkscape-font-specification:Roboto;text-align:start;text-anchor:start;fill:#ffffff;stroke:none;stroke-width:0.26458329"
         id="path4904" />
      <path
         d="m 274.64246,-150.32629 q 0,-0.10396 0.0606,-0.17327 0.0628,-0.0693 0.18626,-0.0693 0.12345,0 0.18625,0.0693 0.065,0.0693 0.065,0.17327 0,0.0996 -0.065,0.16676 -0.0628,0.0671 -0.18625,0.0671 -0.12345,0 -0.18626,-0.0671 -0.0606,-0.0671 -0.0606,-0.16676 z"
         style="font-style:normal;font-variant:normal;font-weight:normal;font-stretch:normal;font-family:Roboto;-inkscape-font-specification:Roboto;text-align:start;text-anchor:start;fill:#ffffff;stroke:none;stroke-width:0.26458329"
         id="path4906" />
      <path
         d="m 275.81198,-150.32629 q 0,-0.10396 0.0606,-0.17327 0.0628,-0.0693 0.18626,-0.0693 0.12345,0 0.18626,0.0693 0.065,0.0693 0.065,0.17327 0,0.0996 -0.065,0.16676 -0.0628,0.0671 -0.18626,0.0671 -0.12345,0 -0.18626,-0.0671 -0.0606,-0.0671 -0.0606,-0.16676 z"
         style="font-style:normal;font-variant:normal;font-weight:normal;font-stretch:normal;font-family:Roboto;-inkscape-font-specification:Roboto;text-align:start;text-anchor:start;fill:#ffffff;stroke:none;stroke-width:0.26458329"
         id="path4908" />
      <path
         d="m 276.98151,-150.32629 q 0,-0.10396 0.0607,-0.17327 0.0628,-0.0693 0.18625,-0.0693 0.12345,0 0.18626,0.0693 0.065,0.0693 0.065,0.17327 0,0.0996 -0.065,0.16676 -0.0628,0.0671 -0.18626,0.0671 -0.12345,0 -0.18625,-0.0671 -0.0607,-0.0671 -0.0607,-0.16676 z"
         style="font-style:normal;font-variant:normal;font-weight:normal;font-stretch:normal;font-family:Roboto;-inkscape-font-specification:Roboto;text-align:start;text-anchor:start;fill:#ffffff;stroke:none;stroke-width:0.26458329"
         id="path4910" />
    </g>
    <g
       aria-label="...drag a single element to another step or new position"
       style="font-style:normal;font-variant:normal;font-weight:normal;font-stretch:normal;font-size:4.43554258px;line-height:1.25;font-family:Roboto;-inkscape-font-specification:Roboto;text-align:end;letter-spacing:0px;word-spacing:0px;text-anchor:end;fill:#ffffff;fill-opacity:1;stroke:none;stroke-width:0.26458329"
       id="text1264">
      <path
         d="m 168.13994,-91.281699 q 0,-0.103958 0.0606,-0.173263 0.0628,-0.06931 0.18626,-0.06931 0.12345,0 0.18626,0.06931 0.065,0.0693 0.065,0.173263 0,0.09963 -0.065,0.166766 -0.0628,0.06714 -0.18626,0.06714 -0.12345,0 -0.18626,-0.06714 -0.0606,-0.06714 -0.0606,-0.166766 z"
         style="font-style:normal;font-variant:normal;font-weight:normal;font-stretch:normal;font-family:Roboto;-inkscape-font-specification:Roboto;text-align:end;text-anchor:end;fill:#ffffff;stroke:none;stroke-width:0.26458329"
         id="path4743" />
      <path
         d="m 169.30947,-91.281699 q 0,-0.103958 0.0606,-0.173263 0.0628,-0.06931 0.18626,-0.06931 0.12345,0 0.18626,0.06931 0.065,0.0693 0.065,0.173263 0,0.09963 -0.065,0.166766 -0.0628,0.06714 -0.18626,0.06714 -0.12345,0 -0.18626,-0.06714 -0.0606,-0.06714 -0.0606,-0.166766 z"
         style="font-style:normal;font-variant:normal;font-weight:normal;font-stretch:normal;font-family:Roboto;-inkscape-font-specification:Roboto;text-align:end;text-anchor:end;fill:#ffffff;stroke:none;stroke-width:0.26458329"
         id="path4745" />
      <path
         d="m 170.479,-91.281699 q 0,-0.103958 0.0606,-0.173263 0.0628,-0.06931 0.18626,-0.06931 0.12345,0 0.18625,0.06931 0.065,0.0693 0.065,0.173263 0,0.09963 -0.065,0.166766 -0.0628,0.06714 -0.18625,0.06714 -0.12345,0 -0.18626,-0.06714 -0.0606,-0.06714 -0.0606,-0.166766 z"
         style="font-style:normal;font-variant:normal;font-weight:normal;font-stretch:normal;font-family:Roboto;-inkscape-font-specification:Roboto;text-align:end;text-anchor:end;fill:#ffffff;stroke:none;stroke-width:0.26458329"
         id="path4747" />
      <path
         d="m 171.5424,-92.262803 q 0,-0.539282 0.25556,-0.866317 0.25557,-0.3292 0.66923,-0.3292 0.4115,0 0.65191,0.281553 v -1.221507 h 0.40067 v 3.326657 h -0.36819 l -0.0195,-0.251232 q -0.2404,0.294548 -0.66923,0.294548 -0.40717,0 -0.6649,-0.333532 -0.25556,-0.333532 -0.25556,-0.870649 z m 0.40067,0.04548 q 0,0.398506 0.1646,0.623748 0.1646,0.225242 0.45482,0.225242 0.38118,0 0.55661,-0.342195 v -1.076399 q -0.17976,-0.331366 -0.55228,-0.331366 -0.29455,0 -0.45915,0.227408 -0.1646,0.227409 -0.1646,0.673562 z"
         style="font-style:normal;font-variant:normal;font-weight:normal;font-stretch:normal;font-family:Roboto;-inkscape-font-specification:Roboto;text-align:end;text-anchor:end;fill:#ffffff;stroke:none;stroke-width:0.26458329"
         id="path4749" />
      <path
         d="m 175.27623,-93.055483 q -0.091,-0.01516 -0.19709,-0.01516 -0.39418,0 -0.53495,0.335697 v 1.663329 h -0.40067 v -2.343387 h 0.38984 l 0.007,0.270724 q 0.19708,-0.31404 0.55877,-0.31404 0.11695,0 0.1776,0.03032 z"
         style="font-style:normal;font-variant:normal;font-weight:normal;font-stretch:normal;font-family:Roboto;-inkscape-font-specification:Roboto;text-align:end;text-anchor:end;fill:#ffffff;stroke:none;stroke-width:0.26458329"
         id="path4751" />
      <path
         d="m 177.00236,-91.071617 q -0.0346,-0.0693 -0.0563,-0.2469 -0.27939,0.290216 -0.66706,0.290216 -0.34653,0 -0.56961,-0.194922 -0.22091,-0.197087 -0.22091,-0.498132 0,-0.366019 0.27722,-0.567437 0.27939,-0.203585 0.78402,-0.203585 h 0.38984 v -0.184092 q 0,-0.210082 -0.12561,-0.333532 -0.12562,-0.125616 -0.37035,-0.125616 -0.21442,0 -0.35952,0.108289 -0.14511,0.10829 -0.14511,0.262061 h -0.40284 q 0,-0.175429 0.12345,-0.337863 0.12562,-0.1646 0.33786,-0.259895 0.21442,-0.0953 0.46998,-0.0953 0.405,0 0.63458,0.203584 0.22957,0.201419 0.23824,0.556609 v 1.078564 q 0,0.322703 0.0823,0.513293 v 0.03465 z m -0.6649,-0.305377 q 0.18843,0 0.35736,-0.09746 0.16893,-0.09746 0.24473,-0.253398 v -0.480806 h -0.31404 q -0.73637,0 -0.73637,0.430993 0,0.188424 0.12562,0.294547 0.12562,0.106124 0.3227,0.106124 z"
         style="font-style:normal;font-variant:normal;font-weight:normal;font-stretch:normal;font-family:Roboto;-inkscape-font-specification:Roboto;text-align:end;text-anchor:end;fill:#ffffff;stroke:none;stroke-width:0.26458329"
         id="path4753" />
      <path
         d="m 177.87734,-92.262803 q 0,-0.547945 0.2534,-0.870648 0.2534,-0.324869 0.67139,-0.324869 0.42883,0 0.66923,0.303211 l 0.0195,-0.259895 h 0.36602 v 2.287076 q 0,0.454817 -0.27073,0.716878 -0.26856,0.26206 -0.72337,0.26206 -0.2534,0 -0.49597,-0.108289 -0.24257,-0.10829 -0.37035,-0.296714 l 0.20792,-0.240403 q 0.25773,0.318372 0.63024,0.318372 0.29238,0 0.45482,-0.1646 0.1646,-0.164601 0.1646,-0.46348 v -0.201419 q -0.2404,0.277222 -0.65624,0.277222 -0.4115,0 -0.66706,-0.331366 -0.2534,-0.331367 -0.2534,-0.903136 z m 0.40284,0.04548 q 0,0.39634 0.16243,0.623748 0.16244,0.225242 0.45482,0.225242 0.37901,0 0.55661,-0.344361 v -1.069901 q -0.18409,-0.335698 -0.55228,-0.335698 -0.29238,0 -0.45698,0.227408 -0.1646,0.227409 -0.1646,0.673562 z"
         style="font-style:normal;font-variant:normal;font-weight:normal;font-stretch:normal;font-family:Roboto;-inkscape-font-specification:Roboto;text-align:end;text-anchor:end;fill:#ffffff;stroke:none;stroke-width:0.26458329"
         id="path4755" />
      <path
         d="m 183.00594,-91.071617 q -0.0346,-0.0693 -0.0563,-0.2469 -0.27939,0.290216 -0.66707,0.290216 -0.34652,0 -0.5696,-0.194922 -0.22091,-0.197087 -0.22091,-0.498132 0,-0.366019 0.27722,-0.567437 0.27939,-0.203585 0.78402,-0.203585 h 0.38984 v -0.184092 q 0,-0.210082 -0.12562,-0.333532 -0.12561,-0.125616 -0.37035,-0.125616 -0.21441,0 -0.35952,0.108289 -0.14511,0.10829 -0.14511,0.262061 h -0.40283 q 0,-0.175429 0.12345,-0.337863 0.12561,-0.1646 0.33786,-0.259895 0.21441,-0.0953 0.46998,-0.0953 0.405,0 0.63457,0.203584 0.22958,0.201419 0.23824,0.556609 v 1.078564 q 0,0.322703 0.0823,0.513293 v 0.03465 z m -0.6649,-0.305377 q 0.18842,0 0.35736,-0.09746 0.16893,-0.09746 0.24473,-0.253398 v -0.480806 h -0.31404 q -0.73637,0 -0.73637,0.430993 0,0.188424 0.12562,0.294547 0.12561,0.106124 0.3227,0.106124 z"
         style="font-style:normal;font-variant:normal;font-weight:normal;font-stretch:normal;font-family:Roboto;-inkscape-font-specification:Roboto;text-align:end;text-anchor:end;fill:#ffffff;stroke:none;stroke-width:0.26458329"
         id="path4757" />
      <path
         d="m 186.44089,-91.6932 q 0,-0.162434 -0.12345,-0.251231 -0.12129,-0.09096 -0.42667,-0.155937 -0.30321,-0.06497 -0.48297,-0.155938 -0.17759,-0.09096 -0.26422,-0.216579 -0.0845,-0.125616 -0.0845,-0.298879 0,-0.28805 0.24257,-0.487303 0.24473,-0.199253 0.62375,-0.199253 0.3985,0 0.6454,0.20575 0.24907,0.20575 0.24907,0.526288 h -0.40284 q 0,-0.164601 -0.14077,-0.283719 -0.13862,-0.119119 -0.35086,-0.119119 -0.21875,0 -0.3422,0.0953 -0.12345,0.09529 -0.12345,0.249066 0,0.145108 0.11479,0.218745 0.11479,0.07364 0.41366,0.140777 0.30105,0.06714 0.48731,0.160268 0.18626,0.09313 0.27505,0.225243 0.091,0.129947 0.091,0.318371 0,0.31404 -0.25123,0.50463 -0.25124,0.188424 -0.65191,0.188424 -0.28155,0 -0.49813,-0.09963 -0.21658,-0.09963 -0.34003,-0.277221 -0.12128,-0.179761 -0.12128,-0.387677 h 0.40067 q 0.0108,0.201419 0.16027,0.320537 0.1516,0.116953 0.3985,0.116953 0.22741,0 0.36385,-0.09096 0.13862,-0.09313 0.13862,-0.246901 z"
         style="font-style:normal;font-variant:normal;font-weight:normal;font-stretch:normal;font-family:Roboto;-inkscape-font-specification:Roboto;text-align:end;text-anchor:end;fill:#ffffff;stroke:none;stroke-width:0.26458329"
         id="path4759" />
      <path
         d="m 187.79884,-91.071617 h -0.40068 v -2.343387 h 0.40068 z m -0.43316,-2.96497 q 0,-0.09746 0.0585,-0.1646 0.0607,-0.06714 0.1776,-0.06714 0.11695,0 0.17759,0.06714 0.0607,0.06714 0.0607,0.1646 0,0.09746 -0.0607,0.162435 -0.0606,0.06497 -0.17759,0.06497 -0.11695,0 -0.1776,-0.06497 -0.0585,-0.06497 -0.0585,-0.162435 z"
         style="font-style:normal;font-variant:normal;font-weight:normal;font-stretch:normal;font-family:Roboto;-inkscape-font-specification:Roboto;text-align:end;text-anchor:end;fill:#ffffff;stroke:none;stroke-width:0.26458329"
         id="path4761" />
      <path
         d="m 188.81676,-93.415004 0.013,0.294547 q 0.26856,-0.337863 0.70172,-0.337863 0.74287,0 0.74936,0.838161 v 1.548542 h -0.40067 v -1.550707 q -0.002,-0.253398 -0.11695,-0.374682 -0.11262,-0.121285 -0.35302,-0.121285 -0.19493,0 -0.3422,0.103958 -0.14727,0.103958 -0.22957,0.27289 v 1.669826 h -0.40067 v -2.343387 z"
         style="font-style:normal;font-variant:normal;font-weight:normal;font-stretch:normal;font-family:Roboto;-inkscape-font-specification:Roboto;text-align:end;text-anchor:end;fill:#ffffff;stroke:none;stroke-width:0.26458329"
         id="path4763" />
      <path
         d="m 190.79413,-92.262803 q 0,-0.547945 0.2534,-0.870648 0.25339,-0.324869 0.67139,-0.324869 0.42883,0 0.66923,0.303211 l 0.0195,-0.259895 h 0.36602 v 2.287076 q 0,0.454817 -0.27072,0.716878 -0.26856,0.26206 -0.72338,0.26206 -0.25339,0 -0.49596,-0.108289 -0.24257,-0.10829 -0.37035,-0.296714 l 0.20791,-0.240403 q 0.25773,0.318372 0.63025,0.318372 0.29238,0 0.45481,-0.1646 0.1646,-0.164601 0.1646,-0.46348 v -0.201419 q -0.2404,0.277222 -0.65623,0.277222 -0.4115,0 -0.66706,-0.331366 -0.2534,-0.331367 -0.2534,-0.903136 z m 0.40284,0.04548 q 0,0.39634 0.16243,0.623748 0.16243,0.225242 0.45482,0.225242 0.37901,0 0.5566,-0.344361 v -1.069901 q -0.18409,-0.335698 -0.55227,-0.335698 -0.29238,0 -0.45698,0.227408 -0.1646,0.227409 -0.1646,0.673562 z"
         style="font-style:normal;font-variant:normal;font-weight:normal;font-stretch:normal;font-family:Roboto;-inkscape-font-specification:Roboto;text-align:end;text-anchor:end;fill:#ffffff;stroke:none;stroke-width:0.26458329"
         id="path4765" />
      <path
         d="m 193.81107,-91.071617 h -0.40067 v -3.326657 h 0.40067 z"
         style="font-style:normal;font-variant:normal;font-weight:normal;font-stretch:normal;font-family:Roboto;-inkscape-font-specification:Roboto;text-align:end;text-anchor:end;fill:#ffffff;stroke:none;stroke-width:0.26458329"
         id="path4767" />
      <path
         d="m 195.42243,-91.028301 q -0.47648,0 -0.77536,-0.311874 -0.29888,-0.31404 -0.29888,-0.838162 v -0.07364 q 0,-0.348692 0.13212,-0.621582 0.13427,-0.275056 0.37251,-0.428827 0.24041,-0.155937 0.51979,-0.155937 0.45698,0 0.71038,0.301045 0.2534,0.301045 0.2534,0.861985 v 0.166766 h -1.58753 q 0.009,0.346527 0.20142,0.56094 0.19492,0.212248 0.4938,0.212248 0.21225,0 0.35952,-0.08663 0.14728,-0.08663 0.25773,-0.229574 l 0.24474,0.19059 q -0.29455,0.452651 -0.88364,0.452651 z m -0.0498,-2.100819 q -0.24257,0 -0.40717,0.177595 -0.1646,0.175429 -0.20358,0.493801 h 1.17386 v -0.03032 q -0.0173,-0.305377 -0.1646,-0.472143 -0.14728,-0.168932 -0.39851,-0.168932 z"
         style="font-style:normal;font-variant:normal;font-weight:normal;font-stretch:normal;font-family:Roboto;-inkscape-font-specification:Roboto;text-align:end;text-anchor:end;fill:#ffffff;stroke:none;stroke-width:0.26458329"
         id="path4769" />
      <path
         d="m 198.87037,-91.028301 q -0.47648,0 -0.77536,-0.311874 -0.29888,-0.31404 -0.29888,-0.838162 v -0.07364 q 0,-0.348692 0.13212,-0.621582 0.13428,-0.275056 0.37251,-0.428827 0.24041,-0.155937 0.51979,-0.155937 0.45699,0 0.71038,0.301045 0.2534,0.301045 0.2534,0.861985 v 0.166766 h -1.58753 q 0.009,0.346527 0.20142,0.56094 0.19492,0.212248 0.4938,0.212248 0.21225,0 0.35953,-0.08663 0.14727,-0.08663 0.25773,-0.229574 l 0.24473,0.19059 q -0.29455,0.452651 -0.88364,0.452651 z m -0.0498,-2.100819 q -0.24257,0 -0.40717,0.177595 -0.1646,0.175429 -0.20358,0.493801 h 1.17386 v -0.03032 q -0.0173,-0.305377 -0.1646,-0.472143 -0.14728,-0.168932 -0.39851,-0.168932 z"
         style="font-style:normal;font-variant:normal;font-weight:normal;font-stretch:normal;font-family:Roboto;-inkscape-font-specification:Roboto;text-align:end;text-anchor:end;fill:#ffffff;stroke:none;stroke-width:0.26458329"
         id="path4771" />
      <path
         d="m 200.68097,-91.071617 h -0.40067 v -3.326657 h 0.40067 z"
         style="font-style:normal;font-variant:normal;font-weight:normal;font-stretch:normal;font-family:Roboto;-inkscape-font-specification:Roboto;text-align:end;text-anchor:end;fill:#ffffff;stroke:none;stroke-width:0.26458329"
         id="path4773" />
      <path
         d="m 202.29232,-91.028301 q -0.47647,0 -0.77535,-0.311874 -0.29888,-0.31404 -0.29888,-0.838162 v -0.07364 q 0,-0.348692 0.13211,-0.621582 0.13428,-0.275056 0.37252,-0.428827 0.2404,-0.155937 0.51979,-0.155937 0.45698,0 0.71038,0.301045 0.25339,0.301045 0.25339,0.861985 v 0.166766 h -1.58752 q 0.009,0.346527 0.20142,0.56094 0.19492,0.212248 0.4938,0.212248 0.21225,0 0.35952,-0.08663 0.14727,-0.08663 0.25773,-0.229574 l 0.24473,0.19059 q -0.29454,0.452651 -0.88364,0.452651 z m -0.0498,-2.100819 q -0.24257,0 -0.40717,0.177595 -0.1646,0.175429 -0.20359,0.493801 h 1.17386 v -0.03032 q -0.0173,-0.305377 -0.1646,-0.472143 -0.14727,-0.168932 -0.3985,-0.168932 z"
         style="font-style:normal;font-variant:normal;font-weight:normal;font-stretch:normal;font-family:Roboto;-inkscape-font-specification:Roboto;text-align:end;text-anchor:end;fill:#ffffff;stroke:none;stroke-width:0.26458329"
         id="path4775" />
      <path
         d="m 204.04444,-93.415004 0.0108,0.259895 q 0.25773,-0.303211 0.69522,-0.303211 0.49164,0 0.66923,0.376848 0.11695,-0.168932 0.30321,-0.27289 0.18843,-0.103958 0.44399,-0.103958 0.77102,0 0.78402,0.816503 v 1.5702 h -0.40067 v -1.546376 q 0,-0.251232 -0.11479,-0.374682 -0.11479,-0.125616 -0.38551,-0.125616 -0.22308,0 -0.37035,0.134279 -0.14728,0.132114 -0.1711,0.357356 v 1.555039 h -0.40284 v -1.535547 q 0,-0.511127 -0.5003,-0.511127 -0.39417,0 -0.53928,0.335698 v 1.710976 h -0.40067 v -2.343387 z"
         style="font-style:normal;font-variant:normal;font-weight:normal;font-stretch:normal;font-family:Roboto;-inkscape-font-specification:Roboto;text-align:end;text-anchor:end;fill:#ffffff;stroke:none;stroke-width:0.26458329"
         id="path4777" />
      <path
         d="m 208.5298,-91.028301 q -0.47647,0 -0.77535,-0.311874 -0.29888,-0.31404 -0.29888,-0.838162 v -0.07364 q 0,-0.348692 0.13211,-0.621582 0.13428,-0.275056 0.37252,-0.428827 0.2404,-0.155937 0.51979,-0.155937 0.45698,0 0.71038,0.301045 0.25339,0.301045 0.25339,0.861985 v 0.166766 h -1.58752 q 0.009,0.346527 0.20142,0.56094 0.19492,0.212248 0.4938,0.212248 0.21225,0 0.35952,-0.08663 0.14727,-0.08663 0.25773,-0.229574 l 0.24473,0.19059 q -0.29454,0.452651 -0.88364,0.452651 z m -0.0498,-2.100819 q -0.24257,0 -0.40717,0.177595 -0.1646,0.175429 -0.20359,0.493801 h 1.17386 v -0.03032 q -0.0173,-0.305377 -0.1646,-0.472143 -0.14727,-0.168932 -0.3985,-0.168932 z"
         style="font-style:normal;font-variant:normal;font-weight:normal;font-stretch:normal;font-family:Roboto;-inkscape-font-specification:Roboto;text-align:end;text-anchor:end;fill:#ffffff;stroke:none;stroke-width:0.26458329"
         id="path4779" />
      <path
         d="m 210.28409,-93.415004 0.013,0.294547 q 0.26856,-0.337863 0.70172,-0.337863 0.74287,0 0.74937,0.838161 v 1.548542 h -0.40068 v -1.550707 q -0.002,-0.253398 -0.11695,-0.374682 -0.11262,-0.121285 -0.35302,-0.121285 -0.19492,0 -0.3422,0.103958 -0.14727,0.103958 -0.22957,0.27289 v 1.669826 h -0.40067 v -2.343387 z"
         style="font-style:normal;font-variant:normal;font-weight:normal;font-stretch:normal;font-family:Roboto;-inkscape-font-specification:Roboto;text-align:end;text-anchor:end;fill:#ffffff;stroke:none;stroke-width:0.26458329"
         id="path4781" />
      <path
         d="m 212.90037,-93.982442 v 0.567438 h 0.43749 v 0.309708 h -0.43749 v 1.453247 q 0,0.140776 0.0585,0.212247 0.0585,0.06931 0.19925,0.06931 0.0693,0 0.19059,-0.02599 v 0.324869 q -0.1581,0.04332 -0.30754,0.04332 -0.26856,0 -0.40501,-0.162435 -0.13644,-0.162434 -0.13644,-0.461313 v -1.453247 h -0.42666 v -0.309708 h 0.42666 v -0.567438 z"
         style="font-style:normal;font-variant:normal;font-weight:normal;font-stretch:normal;font-family:Roboto;-inkscape-font-specification:Roboto;text-align:end;text-anchor:end;fill:#ffffff;stroke:none;stroke-width:0.26458329"
         id="path4783" />
      <path
         d="m 215.44734,-93.982442 v 0.567438 h 0.43749 v 0.309708 h -0.43749 v 1.453247 q 0,0.140776 0.0585,0.212247 0.0585,0.06931 0.19925,0.06931 0.0693,0 0.19059,-0.02599 v 0.324869 q -0.1581,0.04332 -0.30754,0.04332 -0.26856,0 -0.40501,-0.162435 -0.13644,-0.162434 -0.13644,-0.461313 v -1.453247 h -0.42666 v -0.309708 h 0.42666 v -0.567438 z"
         style="font-style:normal;font-variant:normal;font-weight:normal;font-stretch:normal;font-family:Roboto;-inkscape-font-specification:Roboto;text-align:end;text-anchor:end;fill:#ffffff;stroke:none;stroke-width:0.26458329"
         id="path4785" />
      <path
         d="m 216.20104,-92.264969 q 0,-0.344361 0.13428,-0.619416 0.13644,-0.275056 0.37684,-0.424496 0.24257,-0.149439 0.55228,-0.149439 0.47864,0 0.77319,0.331366 0.29671,0.331366 0.29671,0.881477 v 0.02816 q 0,0.342195 -0.13211,0.615085 -0.12995,0.270724 -0.37468,0.422329 -0.24257,0.151606 -0.55878,0.151606 -0.47647,0 -0.77319,-0.331366 -0.29454,-0.331367 -0.29454,-0.877146 z m 0.40283,0.04765 q 0,0.389842 0.17976,0.625914 0.18193,0.236071 0.48514,0.236071 0.30538,0 0.48514,-0.238237 0.17976,-0.240403 0.17976,-0.671396 0,-0.385511 -0.18409,-0.623748 -0.18193,-0.240403 -0.48514,-0.240403 -0.29671,0 -0.47864,0.236072 -0.18193,0.236071 -0.18193,0.675727 z"
         style="font-style:normal;font-variant:normal;font-weight:normal;font-stretch:normal;font-family:Roboto;-inkscape-font-specification:Roboto;text-align:end;text-anchor:end;fill:#ffffff;stroke:none;stroke-width:0.26458329"
         id="path4787" />
      <path
         d="m 221.38378,-91.071617 q -0.0347,-0.0693 -0.0563,-0.2469 -0.27939,0.290216 -0.66707,0.290216 -0.34652,0 -0.5696,-0.194922 -0.22091,-0.197087 -0.22091,-0.498132 0,-0.366019 0.27722,-0.567437 0.27939,-0.203585 0.78402,-0.203585 h 0.38984 v -0.184092 q 0,-0.210082 -0.12562,-0.333532 -0.12561,-0.125616 -0.37035,-0.125616 -0.21441,0 -0.35952,0.108289 -0.14511,0.10829 -0.14511,0.262061 h -0.40283 q 0,-0.175429 0.12345,-0.337863 0.12561,-0.1646 0.33786,-0.259895 0.21441,-0.0953 0.46998,-0.0953 0.405,0 0.63457,0.203584 0.22958,0.201419 0.23824,0.556609 v 1.078564 q 0,0.322703 0.0823,0.513293 v 0.03465 z m -0.6649,-0.305377 q 0.18842,0 0.35735,-0.09746 0.16894,-0.09746 0.24474,-0.253398 v -0.480806 h -0.31404 q -0.73637,0 -0.73637,0.430993 0,0.188424 0.12562,0.294547 0.12561,0.106124 0.3227,0.106124 z"
         style="font-style:normal;font-variant:normal;font-weight:normal;font-stretch:normal;font-family:Roboto;-inkscape-font-specification:Roboto;text-align:end;text-anchor:end;fill:#ffffff;stroke:none;stroke-width:0.26458329"
         id="path4789" />
      <path
         d="m 222.73306,-93.415004 0.013,0.294547 q 0.26856,-0.337863 0.70172,-0.337863 0.74286,0 0.74936,0.838161 v 1.548542 h -0.40067 v -1.550707 q -0.002,-0.253398 -0.11695,-0.374682 -0.11263,-0.121285 -0.35303,-0.121285 -0.19492,0 -0.34219,0.103958 -0.14728,0.103958 -0.22958,0.27289 v 1.669826 h -0.40067 v -2.343387 z"
         style="font-style:normal;font-variant:normal;font-weight:normal;font-stretch:normal;font-family:Roboto;-inkscape-font-specification:Roboto;text-align:end;text-anchor:end;fill:#ffffff;stroke:none;stroke-width:0.26458329"
         id="path4791" />
      <path
         d="m 224.69961,-92.264969 q 0,-0.344361 0.13428,-0.619416 0.13644,-0.275056 0.37684,-0.424496 0.24257,-0.149439 0.55228,-0.149439 0.47864,0 0.77319,0.331366 0.29671,0.331366 0.29671,0.881477 v 0.02816 q 0,0.342195 -0.13211,0.615085 -0.12995,0.270724 -0.37468,0.422329 -0.24257,0.151606 -0.55878,0.151606 -0.47647,0 -0.77319,-0.331366 -0.29454,-0.331367 -0.29454,-0.877146 z m 0.40283,0.04765 q 0,0.389842 0.17976,0.625914 0.18193,0.236071 0.48514,0.236071 0.30538,0 0.48514,-0.238237 0.17976,-0.240403 0.17976,-0.671396 0,-0.385511 -0.18409,-0.623748 -0.18193,-0.240403 -0.48514,-0.240403 -0.29671,0 -0.47864,0.236072 -0.18193,0.236071 -0.18193,0.675727 z"
         style="font-style:normal;font-variant:normal;font-weight:normal;font-stretch:normal;font-family:Roboto;-inkscape-font-specification:Roboto;text-align:end;text-anchor:end;fill:#ffffff;stroke:none;stroke-width:0.26458329"
         id="path4793" />
      <path
         d="m 227.87899,-93.982442 v 0.567438 h 0.43749 v 0.309708 h -0.43749 v 1.453247 q 0,0.140776 0.0585,0.212247 0.0585,0.06931 0.19926,0.06931 0.0693,0 0.19059,-0.02599 v 0.324869 q -0.15811,0.04332 -0.30755,0.04332 -0.26855,0 -0.405,-0.162435 -0.13644,-0.162434 -0.13644,-0.461313 v -1.453247 h -0.42666 v -0.309708 h 0.42666 v -0.567438 z"
         style="font-style:normal;font-variant:normal;font-weight:normal;font-stretch:normal;font-family:Roboto;-inkscape-font-specification:Roboto;text-align:end;text-anchor:end;fill:#ffffff;stroke:none;stroke-width:0.26458329"
         id="path4795" />
      <path
         d="m 229.1828,-93.131286 q 0.26639,-0.327034 0.69305,-0.327034 0.74287,0 0.74936,0.838161 v 1.548542 h -0.40067 v -1.550707 q -0.002,-0.253398 -0.11695,-0.374682 -0.11262,-0.121285 -0.35302,-0.121285 -0.19493,0 -0.3422,0.103958 -0.14727,0.103958 -0.22957,0.27289 v 1.669826 h -0.40068 v -3.326657 h 0.40068 z"
         style="font-style:normal;font-variant:normal;font-weight:normal;font-stretch:normal;font-family:Roboto;-inkscape-font-specification:Roboto;text-align:end;text-anchor:end;fill:#ffffff;stroke:none;stroke-width:0.26458329"
         id="path4797" />
      <path
         d="m 232.19758,-91.028301 q -0.47648,0 -0.77536,-0.311874 -0.29888,-0.31404 -0.29888,-0.838162 v -0.07364 q 0,-0.348692 0.13212,-0.621582 0.13428,-0.275056 0.37251,-0.428827 0.24041,-0.155937 0.51979,-0.155937 0.45699,0 0.71038,0.301045 0.2534,0.301045 0.2534,0.861985 v 0.166766 h -1.58752 q 0.009,0.346527 0.20141,0.56094 0.19493,0.212248 0.49381,0.212248 0.21224,0 0.35952,-0.08663 0.14727,-0.08663 0.25773,-0.229574 l 0.24473,0.19059 q -0.29455,0.452651 -0.88364,0.452651 z m -0.0498,-2.100819 q -0.24256,0 -0.40716,0.177595 -0.1646,0.175429 -0.20359,0.493801 h 1.17386 v -0.03032 q -0.0173,-0.305377 -0.1646,-0.472143 -0.14727,-0.168932 -0.39851,-0.168932 z"
         style="font-style:normal;font-variant:normal;font-weight:normal;font-stretch:normal;font-family:Roboto;-inkscape-font-specification:Roboto;text-align:end;text-anchor:end;fill:#ffffff;stroke:none;stroke-width:0.26458329"
         id="path4799" />
      <path
         d="m 234.70557,-93.055483 q -0.091,-0.01516 -0.19709,-0.01516 -0.39417,0 -0.53495,0.335697 v 1.663329 h -0.40067 v -2.343387 h 0.38984 l 0.006,0.270724 q 0.19709,-0.31404 0.55877,-0.31404 0.11696,0 0.1776,0.03032 z"
         style="font-style:normal;font-variant:normal;font-weight:normal;font-stretch:normal;font-family:Roboto;-inkscape-font-specification:Roboto;text-align:end;text-anchor:end;fill:#ffffff;stroke:none;stroke-width:0.26458329"
         id="path4801" />
      <path
         d="m 237.53625,-91.6932 q 0,-0.162434 -0.12345,-0.251231 -0.12128,-0.09096 -0.42666,-0.155937 -0.30321,-0.06497 -0.48297,-0.155938 -0.1776,-0.09096 -0.26423,-0.216579 -0.0845,-0.125616 -0.0845,-0.298879 0,-0.28805 0.24257,-0.487303 0.24473,-0.199253 0.62374,-0.199253 0.39851,0 0.64541,0.20575 0.24907,0.20575 0.24907,0.526288 h -0.40284 q 0,-0.164601 -0.14078,-0.283719 -0.13861,-0.119119 -0.35086,-0.119119 -0.21874,0 -0.34219,0.0953 -0.12345,0.09529 -0.12345,0.249066 0,0.145108 0.11479,0.218745 0.11478,0.07364 0.41366,0.140777 0.30105,0.06714 0.48731,0.160268 0.18625,0.09313 0.27505,0.225243 0.091,0.129947 0.091,0.318371 0,0.31404 -0.25123,0.50463 -0.25123,0.188424 -0.6519,0.188424 -0.28155,0 -0.49813,-0.09963 -0.21658,-0.09963 -0.34003,-0.277221 -0.12129,-0.179761 -0.12129,-0.387677 h 0.40067 q 0.0108,0.201419 0.16027,0.320537 0.15161,0.116953 0.39851,0.116953 0.22741,0 0.36385,-0.09096 0.13861,-0.09313 0.13861,-0.246901 z"
         style="font-style:normal;font-variant:normal;font-weight:normal;font-stretch:normal;font-family:Roboto;-inkscape-font-specification:Roboto;text-align:end;text-anchor:end;fill:#ffffff;stroke:none;stroke-width:0.26458329"
         id="path4803" />
      <path
         d="m 239.0025,-93.982442 v 0.567438 h 0.43749 v 0.309708 h -0.43749 v 1.453247 q 0,0.140776 0.0585,0.212247 0.0585,0.06931 0.19926,0.06931 0.0693,0 0.19059,-0.02599 v 0.324869 q -0.15811,0.04332 -0.30755,0.04332 -0.26856,0 -0.405,-0.162435 -0.13645,-0.162434 -0.13645,-0.461313 v -1.453247 h -0.42666 v -0.309708 h 0.42666 v -0.567438 z"
         style="font-style:normal;font-variant:normal;font-weight:normal;font-stretch:normal;font-family:Roboto;-inkscape-font-specification:Roboto;text-align:end;text-anchor:end;fill:#ffffff;stroke:none;stroke-width:0.26458329"
         id="path4805" />
      <path
         d="m 240.87807,-91.028301 q -0.47647,0 -0.77535,-0.311874 -0.29888,-0.31404 -0.29888,-0.838162 v -0.07364 q 0,-0.348692 0.13211,-0.621582 0.13428,-0.275056 0.37252,-0.428827 0.2404,-0.155937 0.51979,-0.155937 0.45698,0 0.71038,0.301045 0.25339,0.301045 0.25339,0.861985 v 0.166766 h -1.58752 q 0.009,0.346527 0.20142,0.56094 0.19492,0.212248 0.4938,0.212248 0.21225,0 0.35952,-0.08663 0.14727,-0.08663 0.25773,-0.229574 l 0.24473,0.19059 q -0.29454,0.452651 -0.88364,0.452651 z m -0.0498,-2.100819 q -0.24257,0 -0.40717,0.177595 -0.1646,0.175429 -0.20359,0.493801 h 1.17386 v -0.03032 q -0.0173,-0.305377 -0.1646,-0.472143 -0.14727,-0.168932 -0.3985,-0.168932 z"
         style="font-style:normal;font-variant:normal;font-weight:normal;font-stretch:normal;font-family:Roboto;-inkscape-font-specification:Roboto;text-align:end;text-anchor:end;fill:#ffffff;stroke:none;stroke-width:0.26458329"
         id="path4807" />
      <path
         d="m 244.23289,-92.217321 q 0,0.53495 -0.24474,0.861985 -0.24473,0.327035 -0.66273,0.327035 -0.42666,0 -0.67139,-0.270724 v 1.128377 h -0.40068 v -3.244356 h 0.36602 l 0.0195,0.259895 q 0.24473,-0.303211 0.68005,-0.303211 0.42233,0 0.66707,0.318371 0.2469,0.318372 0.2469,0.885809 z m -0.40067,-0.04548 q 0,-0.39634 -0.16893,-0.625914 -0.16894,-0.229574 -0.46348,-0.229574 -0.36386,0 -0.54578,0.322703 v 1.119715 q 0.17976,0.320537 0.55011,0.320537 0.28805,0 0.45698,-0.227408 0.1711,-0.229574 0.1711,-0.680059 z"
         style="font-style:normal;font-variant:normal;font-weight:normal;font-stretch:normal;font-family:Roboto;-inkscape-font-specification:Roboto;text-align:end;text-anchor:end;fill:#ffffff;stroke:none;stroke-width:0.26458329"
         id="path4809" />
      <path
         d="m 245.73378,-92.264969 q 0,-0.344361 0.13428,-0.619416 0.13644,-0.275056 0.37685,-0.424496 0.24256,-0.149439 0.55227,-0.149439 0.47864,0 0.77319,0.331366 0.29671,0.331366 0.29671,0.881477 v 0.02816 q 0,0.342195 -0.13211,0.615085 -0.12995,0.270724 -0.37468,0.422329 -0.24257,0.151606 -0.55878,0.151606 -0.47647,0 -0.77318,-0.331366 -0.29455,-0.331367 -0.29455,-0.877146 z m 0.40284,0.04765 q 0,0.389842 0.17976,0.625914 0.18192,0.236071 0.48513,0.236071 0.30538,0 0.48514,-0.238237 0.17976,-0.240403 0.17976,-0.671396 0,-0.385511 -0.18409,-0.623748 -0.18193,-0.240403 -0.48514,-0.240403 -0.29671,0 -0.47864,0.236072 -0.18192,0.236071 -0.18192,0.675727 z"
         style="font-style:normal;font-variant:normal;font-weight:normal;font-stretch:normal;font-family:Roboto;-inkscape-font-specification:Roboto;text-align:end;text-anchor:end;fill:#ffffff;stroke:none;stroke-width:0.26458329"
         id="path4811" />
      <path
         d="m 249.50226,-93.055483 q -0.091,-0.01516 -0.19709,-0.01516 -0.39417,0 -0.53495,0.335697 v 1.663329 h -0.40067 v -2.343387 h 0.38984 l 0.007,0.270724 q 0.19709,-0.31404 0.55877,-0.31404 0.11696,0 0.1776,0.03032 z"
         style="font-style:normal;font-variant:normal;font-weight:normal;font-stretch:normal;font-family:Roboto;-inkscape-font-specification:Roboto;text-align:end;text-anchor:end;fill:#ffffff;stroke:none;stroke-width:0.26458329"
         id="path4813" />
      <path
         d="m 251.34751,-93.415004 0.013,0.294547 q 0.26856,-0.337863 0.70172,-0.337863 0.74287,0 0.74936,0.838161 v 1.548542 h -0.40067 v -1.550707 q -0.002,-0.253398 -0.11695,-0.374682 -0.11262,-0.121285 -0.35302,-0.121285 -0.19493,0 -0.3422,0.103958 -0.14727,0.103958 -0.22957,0.27289 v 1.669826 h -0.40067 v -2.343387 z"
         style="font-style:normal;font-variant:normal;font-weight:normal;font-stretch:normal;font-family:Roboto;-inkscape-font-specification:Roboto;text-align:end;text-anchor:end;fill:#ffffff;stroke:none;stroke-width:0.26458329"
         id="path4815" />
      <path
         d="m 254.39262,-91.028301 q -0.47647,0 -0.77535,-0.311874 -0.29888,-0.31404 -0.29888,-0.838162 v -0.07364 q 0,-0.348692 0.13211,-0.621582 0.13428,-0.275056 0.37252,-0.428827 0.2404,-0.155937 0.51979,-0.155937 0.45698,0 0.71038,0.301045 0.25339,0.301045 0.25339,0.861985 v 0.166766 h -1.58752 q 0.009,0.346527 0.20142,0.56094 0.19492,0.212248 0.4938,0.212248 0.21224,0 0.35952,-0.08663 0.14727,-0.08663 0.25773,-0.229574 l 0.24473,0.19059 q -0.29455,0.452651 -0.88364,0.452651 z m -0.0498,-2.100819 q -0.24257,0 -0.40717,0.177595 -0.1646,0.175429 -0.20359,0.493801 h 1.17386 v -0.03032 q -0.0173,-0.305377 -0.1646,-0.472143 -0.14727,-0.168932 -0.3985,-0.168932 z"
         style="font-style:normal;font-variant:normal;font-weight:normal;font-stretch:normal;font-family:Roboto;-inkscape-font-specification:Roboto;text-align:end;text-anchor:end;fill:#ffffff;stroke:none;stroke-width:0.26458329"
         id="path4817" />
      <path
         d="m 257.84272,-91.623894 0.45049,-1.79111 h 0.40067 l -0.68222,2.343387 h -0.32487 l -0.56961,-1.77595 -0.55444,1.77595 h -0.32487 l -0.68006,-2.343387 h 0.39851 l 0.46131,1.754291 0.54578,-1.754291 h 0.32271 z"
         style="font-style:normal;font-variant:normal;font-weight:normal;font-stretch:normal;font-family:Roboto;-inkscape-font-specification:Roboto;text-align:end;text-anchor:end;fill:#ffffff;stroke:none;stroke-width:0.26458329"
         id="path4819" />
      <path
         d="m 262.18297,-92.217321 q 0,0.53495 -0.24474,0.861985 -0.24473,0.327035 -0.66273,0.327035 -0.42666,0 -0.67139,-0.270724 v 1.128377 h -0.40067 v -3.244356 h 0.36601 l 0.0195,0.259895 q 0.24473,-0.303211 0.68005,-0.303211 0.42233,0 0.66707,0.318371 0.2469,0.318372 0.2469,0.885809 z m -0.40067,-0.04548 q 0,-0.39634 -0.16893,-0.625914 -0.16894,-0.229574 -0.46348,-0.229574 -0.36386,0 -0.54578,0.322703 v 1.119715 q 0.17976,0.320537 0.55011,0.320537 0.28805,0 0.45698,-0.227408 0.1711,-0.229574 0.1711,-0.680059 z"
         style="font-style:normal;font-variant:normal;font-weight:normal;font-stretch:normal;font-family:Roboto;-inkscape-font-specification:Roboto;text-align:end;text-anchor:end;fill:#ffffff;stroke:none;stroke-width:0.26458329"
         id="path4821" />
      <path
         d="m 262.58364,-92.264969 q 0,-0.344361 0.13428,-0.619416 0.13644,-0.275056 0.37685,-0.424496 0.24257,-0.149439 0.55227,-0.149439 0.47864,0 0.77319,0.331366 0.29671,0.331366 0.29671,0.881477 v 0.02816 q 0,0.342195 -0.13211,0.615085 -0.12995,0.270724 -0.37468,0.422329 -0.24257,0.151606 -0.55877,0.151606 -0.47648,0 -0.77319,-0.331366 -0.29455,-0.331367 -0.29455,-0.877146 z m 0.40284,0.04765 q 0,0.389842 0.17976,0.625914 0.18192,0.236071 0.48514,0.236071 0.30537,0 0.48513,-0.238237 0.17976,-0.240403 0.17976,-0.671396 0,-0.385511 -0.18409,-0.623748 -0.18193,-0.240403 -0.48514,-0.240403 -0.29671,0 -0.47864,0.236072 -0.18192,0.236071 -0.18192,0.675727 z"
         style="font-style:normal;font-variant:normal;font-weight:normal;font-stretch:normal;font-family:Roboto;-inkscape-font-specification:Roboto;text-align:end;text-anchor:end;fill:#ffffff;stroke:none;stroke-width:0.26458329"
         id="path4823" />
      <path
         d="m 266.58386,-91.6932 q 0,-0.162434 -0.12345,-0.251231 -0.12128,-0.09096 -0.42666,-0.155937 -0.30321,-0.06497 -0.48297,-0.155938 -0.1776,-0.09096 -0.26423,-0.216579 -0.0845,-0.125616 -0.0845,-0.298879 0,-0.28805 0.24257,-0.487303 0.24474,-0.199253 0.62375,-0.199253 0.39851,0 0.64541,0.20575 0.24906,0.20575 0.24906,0.526288 h -0.40283 q 0,-0.164601 -0.14078,-0.283719 -0.13861,-0.119119 -0.35086,-0.119119 -0.21874,0 -0.34219,0.0953 -0.12345,0.09529 -0.12345,0.249066 0,0.145108 0.11478,0.218745 0.11479,0.07364 0.41367,0.140777 0.30104,0.06714 0.4873,0.160268 0.18626,0.09313 0.27506,0.225243 0.091,0.129947 0.091,0.318371 0,0.31404 -0.25123,0.50463 -0.25123,0.188424 -0.6519,0.188424 -0.28156,0 -0.49814,-0.09963 -0.21658,-0.09963 -0.34003,-0.277221 -0.12128,-0.179761 -0.12128,-0.387677 h 0.40067 q 0.0108,0.201419 0.16027,0.320537 0.15161,0.116953 0.39851,0.116953 0.2274,0 0.36385,-0.09096 0.13861,-0.09313 0.13861,-0.246901 z"
         style="font-style:normal;font-variant:normal;font-weight:normal;font-stretch:normal;font-family:Roboto;-inkscape-font-specification:Roboto;text-align:end;text-anchor:end;fill:#ffffff;stroke:none;stroke-width:0.26458329"
         id="path4825" />
      <path
         d="m 267.94181,-91.071617 h -0.40067 v -2.343387 h 0.40067 z m -0.43315,-2.96497 q 0,-0.09746 0.0585,-0.1646 0.0606,-0.06714 0.1776,-0.06714 0.11695,0 0.17759,0.06714 0.0606,0.06714 0.0606,0.1646 0,0.09746 -0.0606,0.162435 -0.0606,0.06497 -0.17759,0.06497 -0.11696,0 -0.1776,-0.06497 -0.0585,-0.06497 -0.0585,-0.162435 z"
         style="font-style:normal;font-variant:normal;font-weight:normal;font-stretch:normal;font-family:Roboto;-inkscape-font-specification:Roboto;text-align:end;text-anchor:end;fill:#ffffff;stroke:none;stroke-width:0.26458329"
         id="path4827" />
      <path
         d="m 269.12434,-93.982442 v 0.567438 h 0.43749 v 0.309708 h -0.43749 v 1.453247 q 0,0.140776 0.0585,0.212247 0.0585,0.06931 0.19926,0.06931 0.0693,0 0.19059,-0.02599 v 0.324869 q -0.15811,0.04332 -0.30755,0.04332 -0.26855,0 -0.405,-0.162435 -0.13644,-0.162434 -0.13644,-0.461313 v -1.453247 h -0.42666 v -0.309708 h 0.42666 v -0.567438 z"
         style="font-style:normal;font-variant:normal;font-weight:normal;font-stretch:normal;font-family:Roboto;-inkscape-font-specification:Roboto;text-align:end;text-anchor:end;fill:#ffffff;stroke:none;stroke-width:0.26458329"
         id="path4829" />
      <path
         d="m 270.4628,-91.071617 h -0.40068 v -2.343387 h 0.40068 z m -0.43316,-2.96497 q 0,-0.09746 0.0585,-0.1646 0.0607,-0.06714 0.1776,-0.06714 0.11695,0 0.17759,0.06714 0.0606,0.06714 0.0606,0.1646 0,0.09746 -0.0606,0.162435 -0.0606,0.06497 -0.17759,0.06497 -0.11695,0 -0.1776,-0.06497 -0.0585,-0.06497 -0.0585,-0.162435 z"
         style="font-style:normal;font-variant:normal;font-weight:normal;font-stretch:normal;font-family:Roboto;-inkscape-font-specification:Roboto;text-align:end;text-anchor:end;fill:#ffffff;stroke:none;stroke-width:0.26458329"
         id="path4831" />
      <path
         d="m 270.99558,-92.264969 q 0,-0.344361 0.13428,-0.619416 0.13645,-0.275056 0.37685,-0.424496 0.24257,-0.149439 0.55227,-0.149439 0.47865,0 0.77319,0.331366 0.29672,0.331366 0.29672,0.881477 v 0.02816 q 0,0.342195 -0.13212,0.615085 -0.12994,0.270724 -0.37468,0.422329 -0.24257,0.151606 -0.55877,0.151606 -0.47648,0 -0.77319,-0.331366 -0.29455,-0.331367 -0.29455,-0.877146 z m 0.40284,0.04765 q 0,0.389842 0.17976,0.625914 0.18193,0.236071 0.48514,0.236071 0.30537,0 0.48513,-0.238237 0.17976,-0.240403 0.17976,-0.671396 0,-0.385511 -0.18409,-0.623748 -0.18192,-0.240403 -0.48514,-0.240403 -0.29671,0 -0.47864,0.236072 -0.18192,0.236071 -0.18192,0.675727 z"
         style="font-style:normal;font-variant:normal;font-weight:normal;font-stretch:normal;font-family:Roboto;-inkscape-font-specification:Roboto;text-align:end;text-anchor:end;fill:#ffffff;stroke:none;stroke-width:0.26458329"
         id="path4833" />
      <path
         d="m 274.01037,-93.415004 0.013,0.294547 q 0.26856,-0.337863 0.70172,-0.337863 0.74286,0 0.74936,0.838161 v 1.548542 h -0.40067 v -1.550707 q -0.002,-0.253398 -0.11695,-0.374682 -0.11262,-0.121285 -0.35303,-0.121285 -0.19492,0 -0.34219,0.103958 -0.14728,0.103958 -0.22958,0.27289 v 1.669826 h -0.40067 v -2.343387 z"
         style="font-style:normal;font-variant:normal;font-weight:normal;font-stretch:normal;font-family:Roboto;-inkscape-font-specification:Roboto;text-align:end;text-anchor:end;fill:#ffffff;stroke:none;stroke-width:0.26458329"
         id="path4835" />
    </g>
    <path
       style="opacity:1;vector-effect:none;fill:#45bdce;fill-opacity:1;stroke:none;stroke-width:0.47990519;stroke-linecap:round;stroke-linejoin:round;stroke-miterlimit:4;stroke-dasharray:none;stroke-dashoffset:0;stroke-opacity:1"
       d="m 195.80606,-133.88965 h 25.89109 c 1.58139,0 2.8545,1.2731 2.8545,2.85449 v 16.25689 c 0,1.58139 -1.27311,2.85449 -2.8545,2.85449 h -25.89109 c -1.58139,0 -2.85449,-1.2731 -2.85449,-2.85449 v -16.25689 c 0,-1.58139 1.2731,-2.85449 2.85449,-2.85449 z"
       id="use4098" />
    <g
       transform="matrix(0.25164692,0,0,0.25164692,419.72136,-190.97512)"
       id="g4108">
      <path
         style="opacity:1;vector-effect:none;fill:#ffffff;fill-opacity:1;stroke:none;stroke-width:2.02147245;stroke-linecap:round;stroke-linejoin:round;stroke-miterlimit:4;stroke-dasharray:none;stroke-dashoffset:0;stroke-opacity:1"
         d="m -838.35613,272.81621 c -5.57636,0 -10.10377,4.6256 -10.10377,10.41022 -3e-5,5.78463 4.52741,10.41177 10.10377,10.41177 5.57633,0 10.10325,-4.62714 10.10325,-10.41177 0,-5.78462 -4.52692,-10.41022 -10.10325,-10.41022 z m -10.16476,2.54302 a 24.648802,29.645723 0 0 0 -8.66304,7.8455 24.648802,29.645723 0 0 0 8.62944,7.845 c -1.60189,-2.18506 -2.55178,-4.89609 -2.55178,-7.8233 0,-2.94728 0.96348,-5.67484 2.58538,-7.8672 z m 20.36413,0.0455 c 1.60139,2.18448 2.55024,4.89508 2.55024,7.82175 0,2.94753 -0.96321,5.67539 -2.58537,7.86825 a 24.648802,29.645723 0 0 0 8.66354,-7.8455 24.648802,29.645723 0 0 0 -8.62841,-7.8445 z m -10.19937,1.7534 a 6.168881,6.0691574 0 0 1 6.1686,6.06888 6.168881,6.0691574 0 0 1 -6.1686,6.06938 6.168881,6.0691574 0 0 1 -6.16913,-6.06938 6.168881,6.0691574 0 0 1 6.16913,-6.06888 z"
         id="path4104"
         inkscape:connector-curvature="0" />
      <path
         style="opacity:1;vector-effect:none;fill:#ffffff;fill-opacity:1;stroke:none;stroke-width:1.98734272;stroke-linecap:round;stroke-linejoin:round;stroke-miterlimit:4;stroke-dasharray:none;stroke-dashoffset:0;stroke-opacity:1"
         d="m -834.72632,283.2272 a 3.6298206,3.5711424 0 0 1 -3.62982,3.57115 3.6298206,3.5711424 0 0 1 -3.62982,-3.57115 3.6298206,3.5711424 0 0 1 3.62982,-3.57114 3.6298206,3.5711424 0 0 1 3.62982,3.57114 z"
         id="ellipse4106" />
    </g>
    <g
       aria-label="View"
       style="font-style:normal;font-weight:normal;font-size:5.40889931px;line-height:1.25;font-family:sans-serif;letter-spacing:0px;word-spacing:0px;fill:#ffffff;fill-opacity:1;stroke:none;stroke-width:0.26458332"
       id="text1950">
      <path
         d="m 204.61039,-127.1238 0.87155,-2.89196 h 0.88212 l -1.33902,3.84539 h -0.82665 l -1.33374,-3.84539 h 0.87947 z"
         style="font-style:normal;font-variant:normal;font-weight:bold;font-stretch:normal;font-family:Roboto;-inkscape-font-specification:'Roboto Bold';fill:#ffffff;stroke-width:0.26458332"
         id="path4732" />
      <path
         d="m 207.48387,-126.17037 h -0.76591 v -2.85763 h 0.76591 z m -0.81081,-3.59713 q 0,-0.17167 0.11357,-0.2826 0.11621,-0.11092 0.31429,-0.11092 0.19543,0 0.31164,0.11092 0.11621,0.11093 0.11621,0.2826 0,0.17431 -0.11885,0.28523 -0.11621,0.11093 -0.309,0.11093 -0.1928,0 -0.31165,-0.11093 -0.11621,-0.11092 -0.11621,-0.28523 z"
         style="font-style:normal;font-variant:normal;font-weight:bold;font-stretch:normal;font-family:Roboto;-inkscape-font-specification:'Roboto Bold';fill:#ffffff;stroke-width:0.26458332"
         id="path4734" />
      <path
         d="m 209.43033,-126.11755 q -0.62857,0 -1.02473,-0.3856 -0.39352,-0.38559 -0.39352,-1.02737 v -0.074 q 0,-0.43049 0.16639,-0.76855 0.16639,-0.3407 0.47011,-0.52293 0.30636,-0.18487 0.69724,-0.18487 0.58632,0 0.92173,0.36974 0.33806,0.36975 0.33806,1.04851 v 0.31164 h -1.8197 q 0.037,0.27996 0.22185,0.44898 0.18752,0.16903 0.47275,0.16903 0.44106,0 0.68932,-0.31957 l 0.37503,0.41993 q -0.17167,0.24298 -0.46482,0.38032 -0.29316,0.13469 -0.64971,0.13469 z m -0.0872,-2.34527 q -0.22713,0 -0.36975,0.15319 -0.13998,0.15318 -0.17959,0.43841 h 1.06171 v -0.0607 q -0.005,-0.25354 -0.13734,-0.39088 -0.13205,-0.13998 -0.37503,-0.13998 z"
         style="font-style:normal;font-variant:normal;font-weight:bold;font-stretch:normal;font-family:Roboto;-inkscape-font-specification:'Roboto Bold';fill:#ffffff;stroke-width:0.26458332"
         id="path4736" />
      <path
         d="m 213.52662,-127.20831 0.37504,-1.81969 h 0.73685 l -0.72893,2.85763 h -0.63914 l -0.54142,-1.79857 -0.54142,1.79857 h -0.63649 l -0.72894,-2.85763 h 0.73686 l 0.37239,1.81705 0.52293,-1.81705 h 0.55198 z"
         style="font-style:normal;font-variant:normal;font-weight:bold;font-stretch:normal;font-family:Roboto;-inkscape-font-specification:'Roboto Bold';fill:#ffffff;stroke-width:0.26458332"
         id="path4738" />
    </g>
    <path
       style="opacity:1;vector-effect:none;fill:#3dc75f;fill-opacity:1;stroke:none;stroke-width:0.48238501;stroke-linecap:round;stroke-linejoin:round;stroke-miterlimit:4;stroke-dasharray:none;stroke-dashoffset:0;stroke-opacity:1"
       d="m 230.37907,-134.0184 h 25.78171 c 1.59992,0 2.88795,1.28802 2.88795,2.88795 v 16.44743 c 0,1.59993 -1.28803,2.88795 -2.88795,2.88795 h -25.78171 c -1.59993,0 -2.88795,-1.28802 -2.88795,-2.88795 v -16.44743 c 0,-1.59993 1.28802,-2.88795 2.88795,-2.88795 z"
       id="use4131" />
    <path
       style="opacity:1;vector-effect:none;fill:#ffffff;fill-opacity:1;stroke:#ffffff;stroke-width:0.40307736;stroke-linecap:butt;stroke-linejoin:round;stroke-miterlimit:4;stroke-dasharray:none;stroke-dashoffset:0;stroke-opacity:1"
       inkscape:transform-center-x="-0.02856058"
       inkscape:transform-center-y="-0.31098953"
       d="m 247.13234,-120.37323 -1.98035,1.83203 0.38649,2.66998 -2.35433,-1.3173 -2.41987,1.19265 0.5253,-2.64618 -1.88205,-1.93288 2.67898,-0.31812 1.25669,-2.38723 1.13041,2.44955 z"
       id="path4137" />
    <g
       aria-label="Effect in"
       style="font-style:normal;font-weight:normal;font-size:5.40889931px;line-height:1.25;font-family:sans-serif;letter-spacing:0px;word-spacing:0px;fill:#ffffff;fill-opacity:1;stroke:none;stroke-width:0.26458332"
       id="text1969">
      <path
         d="m 235.78914,-127.83688 h -1.52125 v 1.03001 h 1.78536 v 0.6365 h -2.57768 v -3.84539 h 2.5724 v 0.64178 h -1.78008 v 0.91645 h 1.52125 z"
         style="font-style:normal;font-variant:normal;font-weight:bold;font-stretch:normal;font-family:Roboto;-inkscape-font-specification:'Roboto Bold';fill:#ffffff;stroke-width:0.26458332"
         id="path4713" />
      <path
         d="m 236.63428,-126.17037 v -2.29773 h -0.42521 v -0.5599 h 0.42521 v -0.24298 q 0,-0.48067 0.27467,-0.74478 0.27732,-0.26675 0.77384,-0.26675 0.15846,0 0.38823,0.0528 l -0.008,0.5916 q -0.0951,-0.0238 -0.23241,-0.0238 -0.4305,0 -0.4305,0.40408 v 0.22978 h 0.56783 v 0.5599 h -0.56783 v 2.29773 z"
         style="font-style:normal;font-variant:normal;font-weight:bold;font-stretch:normal;font-family:Roboto;-inkscape-font-specification:'Roboto Bold';fill:#ffffff;stroke-width:0.26458332"
         id="path4715" />
      <path
         d="m 238.57811,-126.17037 v -2.29773 h -0.42521 v -0.5599 h 0.42521 v -0.24298 q 0,-0.48067 0.27467,-0.74478 0.27731,-0.26675 0.77383,-0.26675 0.15846,0 0.38824,0.0528 l -0.008,0.5916 q -0.0951,-0.0238 -0.23241,-0.0238 -0.43049,0 -0.43049,0.40408 v 0.22978 h 0.56782 v 0.5599 h -0.56782 v 2.29773 z"
         style="font-style:normal;font-variant:normal;font-weight:bold;font-stretch:normal;font-family:Roboto;-inkscape-font-specification:'Roboto Bold';fill:#ffffff;stroke-width:0.26458332"
         id="path4717" />
      <path
         d="m 241.56515,-126.11755 q -0.62857,0 -1.02473,-0.3856 -0.39352,-0.38559 -0.39352,-1.02737 v -0.074 q 0,-0.43049 0.16639,-0.76855 0.16638,-0.3407 0.47011,-0.52293 0.30636,-0.18487 0.69724,-0.18487 0.58631,0 0.92173,0.36974 0.33805,0.36975 0.33805,1.04851 v 0.31164 h -1.81969 q 0.037,0.27996 0.22185,0.44898 0.18752,0.16903 0.47275,0.16903 0.44106,0 0.68932,-0.31957 l 0.37503,0.41993 q -0.17167,0.24298 -0.46483,0.38032 -0.29316,0.13469 -0.6497,0.13469 z m -0.0871,-2.34527 q -0.22714,0 -0.36975,0.15319 -0.13998,0.15318 -0.1796,0.43841 h 1.06171 v -0.0607 q -0.005,-0.25354 -0.13733,-0.39088 -0.13206,-0.13998 -0.37503,-0.13998 z"
         style="font-style:normal;font-variant:normal;font-weight:bold;font-stretch:normal;font-family:Roboto;-inkscape-font-specification:'Roboto Bold';fill:#ffffff;stroke-width:0.26458332"
         id="path4719" />
      <path
         d="m 244.36468,-126.73292 q 0.21128,0 0.34334,-0.11621 0.13205,-0.1162 0.13733,-0.309 h 0.71573 q -0.003,0.29052 -0.15846,0.53349 -0.15583,0.24034 -0.42786,0.37504 -0.26938,0.13205 -0.59688,0.13205 -0.61272,0 -0.96663,-0.38824 -0.3539,-0.39087 -0.3539,-1.07755 v -0.0502 q 0,-0.66027 0.35126,-1.05379 0.35126,-0.39351 0.96399,-0.39351 0.53614,0 0.85835,0.30636 0.32485,0.30372 0.33013,0.81081 h -0.71573 q -0.005,-0.22185 -0.13733,-0.35919 -0.13206,-0.13998 -0.34862,-0.13998 -0.26675,0 -0.40409,0.19544 -0.13469,0.1928 -0.13469,0.62858 v 0.0792 q 0,0.44106 0.13469,0.63385 0.1347,0.1928 0.40937,0.1928 z"
         style="font-style:normal;font-variant:normal;font-weight:bold;font-stretch:normal;font-family:Roboto;-inkscape-font-specification:'Roboto Bold';fill:#ffffff;stroke-width:0.26458332"
         id="path4721" />
      <path
         d="m 246.91066,-129.73053 v 0.70253 h 0.4886 v 0.5599 h -0.4886 v 1.42618 q 0,0.15846 0.0607,0.22713 0.0607,0.0687 0.23241,0.0687 0.12677,0 0.22449,-0.0185 v 0.57839 q -0.22449,0.0687 -0.46218,0.0687 -0.80289,0 -0.81873,-0.81081 v -1.53974 h -0.41729 v -0.5599 h 0.41729 v -0.70253 z"
         style="font-style:normal;font-variant:normal;font-weight:bold;font-stretch:normal;font-family:Roboto;-inkscape-font-specification:'Roboto Bold';fill:#ffffff;stroke-width:0.26458332"
         id="path4723" />
      <path
         d="m 249.98222,-126.17037 h -0.76591 v -2.85763 h 0.76591 z m -0.8108,-3.59713 q 0,-0.17167 0.11356,-0.2826 0.11621,-0.11092 0.31429,-0.11092 0.19544,0 0.31164,0.11092 0.11621,0.11093 0.11621,0.2826 0,0.17431 -0.11885,0.28523 -0.1162,0.11093 -0.309,0.11093 -0.1928,0 -0.31165,-0.11093 -0.1162,-0.11092 -0.1162,-0.28523 z"
         style="font-style:normal;font-variant:normal;font-weight:bold;font-stretch:normal;font-family:Roboto;-inkscape-font-specification:'Roboto Bold';fill:#ffffff;stroke-width:0.26458332"
         id="path4725" />
      <path
         d="m 251.31596,-129.028 0.0238,0.33013 q 0.30636,-0.38295 0.82137,-0.38295 0.45426,0 0.67611,0.26674 0.22185,0.26675 0.22713,0.7976 v 1.84611 h -0.76326 v -1.82762 q 0,-0.24298 -0.10565,-0.35126 -0.10564,-0.11092 -0.35126,-0.11092 -0.32221,0 -0.48331,0.27467 v 2.01513 h -0.76327 v -2.85763 z"
         style="font-style:normal;font-variant:normal;font-weight:bold;font-stretch:normal;font-family:Roboto;-inkscape-font-specification:'Roboto Bold';fill:#ffffff;stroke-width:0.26458332"
         id="path4727" />
    </g>
    <path
       style="opacity:1;vector-effect:none;fill:#5676f0;fill-opacity:1;stroke:none;stroke-width:0.48301068;stroke-linecap:round;stroke-linejoin:round;stroke-miterlimit:4;stroke-dasharray:none;stroke-dashoffset:0;stroke-opacity:1"
       d="m 264.91837,-124.86309 h 26.09422 c 1.59012,0 2.87025,1.28013 2.87025,2.87024 v 16.34659 c 0,1.59012 -1.28013,2.87024 -2.87025,2.87024 h -26.09422 c -1.59012,0 -2.87024,-1.28012 -2.87024,-2.87024 v -16.34659 c 0,-1.59011 1.28012,-2.87024 2.87024,-2.87024 z"
       id="use4141" />
    <path
       style="opacity:1;vector-effect:none;fill:none;fill-opacity:1;stroke:#ffffff;stroke-width:0.40307736;stroke-linecap:butt;stroke-linejoin:round;stroke-miterlimit:4;stroke-dasharray:none;stroke-dashoffset:0;stroke-opacity:1"
       inkscape:transform-center-x="-0.028540058"
       inkscape:transform-center-y="-0.31100829"
       d="m 281.82788,-111.49913 -1.98035,1.83204 0.38649,2.66998 -2.35433,-1.3173 -2.41987,1.19264 0.5253,-2.64617 -1.88205,-1.93288 2.67898,-0.31812 1.2567,-2.38724 1.1304,2.44956 z"
       id="path4147" />
    <g
       aria-label="Effect out"
       style="font-style:normal;font-weight:normal;font-size:5.40889931px;line-height:1.25;font-family:sans-serif;letter-spacing:0px;word-spacing:0px;fill:#ffffff;fill-opacity:1;stroke:none;stroke-width:0.26458332"
       id="text1973">
      <path
         d="m 268.66494,-118.67096 h -1.52126 v 1.03002 h 1.78536 v 0.63649 h -2.57768 v -3.84539 h 2.5724 v 0.64178 h -1.78008 v 0.91645 h 1.52126 z"
         style="font-style:normal;font-variant:normal;font-weight:bold;font-stretch:normal;font-family:Roboto;-inkscape-font-specification:'Roboto Bold';fill:#ffffff;stroke-width:0.26458332"
         id="path4692" />
      <path
         d="m 269.51008,-117.00445 v -2.29772 h -0.42521 v -0.55991 h 0.42521 v -0.24298 q 0,-0.48067 0.27467,-0.74478 0.27731,-0.26674 0.77383,-0.26674 0.15846,0 0.38824,0.0528 l -0.008,0.59159 q -0.0951,-0.0238 -0.23241,-0.0238 -0.43049,0 -0.43049,0.40408 v 0.22977 h 0.56782 v 0.55991 h -0.56782 v 2.29772 z"
         style="font-style:normal;font-variant:normal;font-weight:bold;font-stretch:normal;font-family:Roboto;-inkscape-font-specification:'Roboto Bold';fill:#ffffff;stroke-width:0.26458332"
         id="path4694" />
      <path
         d="m 271.4539,-117.00445 v -2.29772 h -0.42521 v -0.55991 h 0.42521 v -0.24298 q 0,-0.48067 0.27467,-0.74478 0.27731,-0.26674 0.77383,-0.26674 0.15847,0 0.38824,0.0528 l -0.008,0.59159 q -0.0951,-0.0238 -0.23242,-0.0238 -0.43049,0 -0.43049,0.40408 v 0.22977 h 0.56783 v 0.55991 h -0.56783 v 2.29772 z"
         style="font-style:normal;font-variant:normal;font-weight:bold;font-stretch:normal;font-family:Roboto;-inkscape-font-specification:'Roboto Bold';fill:#ffffff;stroke-width:0.26458332"
         id="path4696" />
      <path
         d="m 274.44094,-116.95163 q -0.62857,0 -1.02473,-0.38559 -0.39352,-0.3856 -0.39352,-1.02738 v -0.074 q 0,-0.43049 0.16639,-0.76855 0.16639,-0.34069 0.47011,-0.52293 0.30636,-0.18487 0.69724,-0.18487 0.58632,0 0.92173,0.36975 0.33806,0.36975 0.33806,1.0485 v 0.31165 h -1.8197 q 0.037,0.27995 0.22185,0.44898 0.18752,0.16903 0.47275,0.16903 0.44106,0 0.68932,-0.31957 l 0.37503,0.41993 q -0.17167,0.24297 -0.46482,0.38031 -0.29316,0.13469 -0.64971,0.13469 z m -0.0872,-2.34526 q -0.22713,0 -0.36975,0.15318 -0.13998,0.15318 -0.17959,0.43842 h 1.06171 v -0.0607 q -0.005,-0.25354 -0.13734,-0.39088 -0.13205,-0.13997 -0.37503,-0.13997 z"
         style="font-style:normal;font-variant:normal;font-weight:bold;font-stretch:normal;font-family:Roboto;-inkscape-font-specification:'Roboto Bold';fill:#ffffff;stroke-width:0.26458332"
         id="path4698" />
      <path
         d="m 277.24047,-117.56699 q 0.21129,0 0.34334,-0.11621 0.13205,-0.11621 0.13734,-0.30901 h 0.71572 q -0.003,0.29052 -0.15846,0.5335 -0.15582,0.24034 -0.42785,0.37503 -0.26939,0.13205 -0.59688,0.13205 -0.61273,0 -0.96663,-0.38823 -0.3539,-0.39088 -0.3539,-1.07756 v -0.0502 q 0,-0.66026 0.35126,-1.05378 0.35126,-0.39352 0.96398,-0.39352 0.53614,0 0.85835,0.30636 0.32485,0.30373 0.33013,0.81081 h -0.71572 q -0.005,-0.22185 -0.13734,-0.35919 -0.13205,-0.13997 -0.34862,-0.13997 -0.26675,0 -0.40408,0.19544 -0.1347,0.19279 -0.1347,0.62857 v 0.0792 q 0,0.44106 0.1347,0.63386 0.13469,0.1928 0.40936,0.1928 z"
         style="font-style:normal;font-variant:normal;font-weight:bold;font-stretch:normal;font-family:Roboto;-inkscape-font-specification:'Roboto Bold';fill:#ffffff;stroke-width:0.26458332"
         id="path4700" />
      <path
         d="m 279.78646,-120.5646 v 0.70252 h 0.48859 v 0.55991 h -0.48859 v 1.42617 q 0,0.15846 0.0607,0.22713 0.0608,0.0687 0.23242,0.0687 0.12677,0 0.22449,-0.0185 v 0.5784 q -0.22449,0.0687 -0.46219,0.0687 -0.80288,0 -0.81873,-0.8108 v -1.53974 h -0.41729 v -0.55991 h 0.41729 v -0.70252 z"
         style="font-style:normal;font-variant:normal;font-weight:bold;font-stretch:normal;font-family:Roboto;-inkscape-font-specification:'Roboto Bold';fill:#ffffff;stroke-width:0.26458332"
         id="path4702" />
      <path
         d="m 281.93364,-118.45967 q 0,-0.42522 0.16375,-0.75799 0.16374,-0.33277 0.47011,-0.51501 0.309,-0.18223 0.71573,-0.18223 0.57839,0 0.94286,0.3539 0.3671,0.3539 0.40936,0.96135 l 0.005,0.19544 q 0,0.65762 -0.3671,1.05642 -0.36711,0.39616 -0.98512,0.39616 -0.61801,0 -0.98776,-0.39616 -0.36711,-0.39616 -0.36711,-1.07755 z m 0.76327,0.0555 q 0,0.40672 0.15318,0.62329 0.15318,0.21393 0.43842,0.21393 0.27731,0 0.43313,-0.21129 0.15583,-0.21393 0.15583,-0.68139 0,-0.3988 -0.15583,-0.61801 -0.15582,-0.21921 -0.43841,-0.21921 -0.27996,0 -0.43314,0.21921 -0.15318,0.21656 -0.15318,0.67347 z"
         style="font-style:normal;font-variant:normal;font-weight:bold;font-stretch:normal;font-family:Roboto;-inkscape-font-specification:'Roboto Bold';fill:#ffffff;stroke-width:0.26458332"
         id="path4704" />
      <path
         d="m 286.82754,-117.29496 q -0.2826,0.34333 -0.78176,0.34333 -0.45954,0 -0.70252,-0.2641 -0.24034,-0.26411 -0.24562,-0.77383 v -1.87252 h 0.76327 v 1.8461 q 0,0.44634 0.40672,0.44634 0.38824,0 0.53349,-0.26938 v -2.02306 h 0.76591 v 2.85763 h -0.71837 z"
         style="font-style:normal;font-variant:normal;font-weight:bold;font-stretch:normal;font-family:Roboto;-inkscape-font-specification:'Roboto Bold';fill:#ffffff;stroke-width:0.26458332"
         id="path4706" />
      <path
         d="m 289.06187,-120.5646 v 0.70252 h 0.4886 v 0.55991 h -0.4886 v 1.42617 q 0,0.15846 0.0607,0.22713 0.0607,0.0687 0.23241,0.0687 0.12677,0 0.22449,-0.0185 v 0.5784 q -0.22449,0.0687 -0.46218,0.0687 -0.80289,0 -0.81873,-0.8108 v -1.53974 h -0.41729 v -0.55991 h 0.41729 v -0.70252 z"
         style="font-style:normal;font-variant:normal;font-weight:bold;font-stretch:normal;font-family:Roboto;-inkscape-font-specification:'Roboto Bold';fill:#ffffff;stroke-width:0.26458332"
         id="path4708" />
    </g>
    <path
       sodipodi:nodetypes="cccccc"
       inkscape:connector-curvature="0"
       id="path1254"
       d="m 284.82238,-80.836451 4.27622,-5.228781 -1.33635,-24.330028 h -5.87973 l -1.33636,24.330028 z"
       style="opacity:1;vector-effect:none;fill:url(#linearGradient1256);fill-opacity:1;stroke:none;stroke-width:0.96499997;stroke-linecap:butt;stroke-linejoin:miter;stroke-miterlimit:4;stroke-dasharray:none;stroke-dashoffset:0;stroke-opacity:1" />
  </g>
</svg>
